<?xml version="1.0" encoding="UTF-8"?>
<svg version="1.1" xmlns="http://www.w3.org/2000/svg" width="860" height="860">
<path d="M0 0 C0.94149902 0.31163086 1.88299805 0.62326172 2.85302734 0.94433594 C51.66107417 17.30892854 96.71776464 45.08270263 134.1328125 80.3203125 C136.66843602 82.69011868 139.25097763 84.97938132 141.875 87.25 C145.3370739 90.30142645 148.35225679 93.55622593 151.328125 97.078125 C152.93441634 98.92460944 154.61317614 100.61533023 156.375 102.3125 C160.50692047 106.38945036 164.09566145 110.86530395 167.71386719 115.39746094 C169.07167009 117.08930191 170.44489406 118.76776824 171.8203125 120.4453125 C219.35447496 178.6821157 247.94721476 251.1400757 254 326 C254.08677002 327.06033447 254.08677002 327.06033447 254.17529297 328.14208984 C261.85591221 427.07849382 229.30889224 525.45507563 165.58349609 601.15966797 C162.07145321 605.2413484 158.40724186 609.17949507 154.71484375 613.09765625 C152.33242716 615.64461384 150.03129563 618.23794677 147.75 620.875 C144.69857355 624.3370739 141.44377407 627.35225679 137.921875 630.328125 C136.07539056 631.93441634 134.38466977 633.61317614 132.6875 635.375 C128.61054964 639.50692047 124.13469605 643.09566145 119.60253906 646.71386719 C117.91069809 648.07167009 116.23223176 649.44489406 114.5546875 650.8203125 C40.93555814 710.90986864 -53.77077344 739.36804133 -163 732 C-242.97937809 723.27577005 -319.46593394 688.9682269 -378.09765625 633.71484375 C-380.64461384 631.33242716 -383.23794677 629.03129563 -385.875 626.75 C-389.3370739 623.69857355 -392.35225679 620.44377407 -395.328125 616.921875 C-396.93441634 615.07539056 -398.61317614 613.38466977 -400.375 611.6875 C-404.50692047 607.61054964 -408.09566145 603.13469605 -411.71386719 598.60253906 C-413.07167009 596.91069809 -414.44489406 595.23223176 -415.8203125 593.5546875 C-463.28679817 535.40079899 -491.95536074 462.75917602 -498 388 C-498.05784668 387.29311035 -498.11569336 386.5862207 -498.17529297 385.85791016 C-505.46541454 291.95162606 -476.77557572 194.51244327 -413.45605469 117.76464844 C-412.15203607 116.18425833 -410.87492982 114.58175193 -409.6015625 112.9765625 C-403.88906738 105.7792311 -397.56722649 99.40212862 -391 93 C-388.33091492 90.34775457 -385.68246043 87.67741842 -383.0546875 84.984375 C-376.37188471 78.16422562 -369.51576861 71.90811757 -362 66 C-360.85768898 65.06977493 -359.7171587 64.13736018 -358.578125 63.203125 C-279.15643117 -1.70474375 -175.35352898 -29.34663588 0 0 Z " fill="#1694D3" transform="translate(552,73)"/>
<path d="M0 0 C7.67531787 1.06787031 14.25453092 8.7642506 19.03125 14.375 C31.49748721 30.99664961 41.32120346 53.98251982 41.0625 74.9375 C41.05347656 75.89527344 41.04445313 76.85304688 41.03515625 77.83984375 C41.01775391 78.90912109 41.01775391 78.90912109 41 80 C41.98613281 79.52820313 41.98613281 79.52820313 42.9921875 79.046875 C49.2830191 76.2168532 55.40190338 74.23964109 62.125 72.75 C62.85187012 72.58725586 63.57874023 72.42451172 64.32763672 72.25683594 C85.45610791 67.7992727 112.30814659 66.90894649 132 77 C132.99 77.66 133.98 78.32 135 79 C134.45120761 83.8649704 132.93358592 87.73730273 130.625 92 C130.27703369 92.64646484 129.92906738 93.29292969 129.57055664 93.95898438 C123.99606527 103.95010411 116.59095158 113.43087967 108 121 C107.31164062 121.61875 106.62328125 122.2375 105.9140625 122.875 C88.19637685 137.94386222 64.38461081 148.15638185 41 147 C40.814375 148.258125 40.62875 149.51625 40.4375 150.8125 C34.40198305 180.44896942 16.89376317 209.79367837 -1.61962891 233.234375 C-2.9357429 234.9178091 -4.21380378 236.62292065 -5.48046875 238.34375 C-12.01446367 247.17235836 -19.35992354 255.12117116 -27 263 C-27.63164063 263.65355469 -28.26328125 264.30710937 -28.9140625 264.98046875 C-36.55305661 272.85141612 -44.27394219 280.32368731 -53 287 C-53.56734863 287.44375977 -54.13469727 287.88751953 -54.71923828 288.34472656 C-98.919281 322.9055847 -152.99134638 343.77964504 -209 348 C-210.12341797 348.08467529 -211.24683594 348.16935059 -212.40429688 348.2565918 C-247.42897232 350.67577248 -282.01092167 349.53566225 -316 340 C-317.08474609 339.69642578 -317.08474609 339.69642578 -318.19140625 339.38671875 C-348.48296447 330.7399572 -377.03532875 315.91051834 -399 293 C-399.79148437 292.21109375 -400.58296875 291.4221875 -401.3984375 290.609375 C-409.62327658 282.35983671 -416.7298428 273.81323458 -423 264 C-423.59530518 263.07670898 -423.59530518 263.07670898 -424.20263672 262.13476562 C-435.54668724 244.33347096 -444.68243554 224.02966303 -449.5 203.4375 C-449.7064917 202.55835938 -449.9129834 201.67921875 -450.12573242 200.7734375 C-451.79676899 193.39393474 -453.12206394 185.97095673 -454.3125 178.5 C-454.48394531 177.45126709 -454.65539062 176.40253418 -454.83203125 175.32202148 C-456.55607964 163.90828238 -458.06815373 152.82776034 -451 143 C-446.36131866 137.79938814 -440.94736026 134.3588374 -433.92469025 133.72043693 C-429.98111328 133.61038376 -426.04312238 133.59678609 -422.09863281 133.61473083 C-420.5647274 133.61072189 -419.03082497 133.60539447 -417.49692822 133.59886509 C-413.28885466 133.58472334 -409.08097437 133.58914232 -404.87289119 133.59657824 C-400.33142466 133.60131912 -395.79000257 133.58875345 -391.24855042 133.57821655 C-383.37911794 133.56223954 -375.50973694 133.55696586 -367.64028931 133.55874443 C-356.2460831 133.56112933 -344.85195902 133.54512931 -333.45777428 133.52429188 C-314.94955734 133.49075938 -296.44134775 133.46910341 -277.93310547 133.45629883 C-276.82549933 133.45552934 -275.71789318 133.45475985 -274.57672322 133.45396704 C-270.08956249 133.45086511 -265.60240175 133.44778229 -261.11524099 133.444727 C-248.78011326 133.43620598 -236.44498811 133.42530246 -224.10986328 133.41333008 C-223.00603404 133.41226206 -221.9022048 133.41119404 -220.7649262 133.41009366 C-202.33524846 133.39197734 -183.90558812 133.36596937 -165.47592735 133.33519894 C-154.11683467 133.31668052 -142.75778112 133.30573138 -131.39867312 133.30467702 C-123.60730143 133.30357032 -115.81595652 133.29558828 -108.02459615 133.28229337 C-103.53468058 133.27490282 -99.04482361 133.27075617 -94.55490303 133.27541161 C-90.43531237 133.27964194 -86.31583604 133.27458111 -82.19626188 133.26250375 C-80.71505894 133.25976221 -79.23384498 133.26030588 -77.75264597 133.26468485 C-57.89463621 133.31859722 -35.9492564 131.66856071 -20.51171875 117.7578125 C-17.61997124 114.70683911 -15.40903878 111.87385558 -13.625 108.0625 C-14.13406911 103.90510226 -16.05179423 101.26146938 -18.3046875 97.77734375 C-27.18216349 83.23382893 -29.55230884 65.37603279 -26.27734375 48.72265625 C-24.27312597 40.85995574 -21.45481622 33.33640386 -18 26 C-17.58234375 25.11054688 -17.1646875 24.22109375 -16.734375 23.3046875 C-12.50959598 14.97653116 -6.63169677 6.63169677 0 0 Z " fill="#FEFEFE" transform="translate(617,296)"/>
<path d="M0 0 C17.82 0 35.64 0 54 0 C54 17.82 54 35.64 54 54 C36.18 54 18.36 54 0 54 C0 36.18 0 18.36 0 0 Z " fill="#F9FDFE" transform="translate(430,349)"/>
<path d="M0 0 C17.82 0 35.64 0 54 0 C54 17.82 54 35.64 54 54 C36.18 54 18.36 54 0 54 C0 36.18 0 18.36 0 0 Z " fill="#FEFEFE" transform="translate(349,349)"/>
<path d="M0 0 C17.82 0 35.64 0 54 0 C54 17.82 54 35.64 54 54 C36.18 54 18.36 54 0 54 C0 36.18 0 18.36 0 0 Z " fill="#F8FDFE" transform="translate(269,349)"/>
<path d="M0 0 C17.82 0 35.64 0 54 0 C54 17.82 54 35.64 54 54 C36.18 54 18.36 54 0 54 C0 36.18 0 18.36 0 0 Z " fill="#F9FDFE" transform="translate(188,349)"/>
<path d="M0 0 C17.82 0 35.64 0 54 0 C54 17.82 54 35.64 54 54 C36.18 54 18.36 54 0 54 C0 36.18 0 18.36 0 0 Z " fill="#FEFEFE" transform="translate(349,269)"/>
<path d="M0 0 C17.82 0 35.64 0 54 0 C54 17.82 54 35.64 54 54 C36.18 54 18.36 54 0 54 C0 36.18 0 18.36 0 0 Z " fill="#F9FDFE" transform="translate(430,269)"/>
<path d="M0 0 C17.82 0 35.64 0 54 0 C54 17.82 54 35.64 54 54 C36.18 54 18.36 54 0 54 C0 36.18 0 18.36 0 0 Z " fill="#FBFEFE" transform="translate(430,188)"/>
<path d="M0 0 C17.49 0 34.98 0 53 0 C53 17.49 53 34.98 53 53 C35.51 53 18.02 53 0 53 C0 35.51 0 18.02 0 0 Z " fill="#FEFEFE" transform="translate(511,350)"/>
<path d="M0 0 C17.49 0 34.98 0 53 0 C53 17.49 53 34.98 53 53 C35.51 53 18.02 53 0 53 C0 35.51 0 18.02 0 0 Z " fill="#FCFEFE" transform="translate(269,269)"/>
<path d="M0 0 C0.99261337 0.00222061 1.98522675 0.00444122 3.00791931 0.00672913 C4.12900589 0.00680466 5.25009247 0.00688019 6.40515137 0.00695801 C8.2348069 0.01469994 8.2348069 0.01469994 10.10142517 0.02259827 C11.96377052 0.02472069 11.96377052 0.02472069 13.86373901 0.02688599 C17.16982383 0.03154861 20.47584039 0.04053955 23.78190613 0.05158997 C27.15338042 0.06180625 30.52486175 0.06638407 33.89634705 0.07142639 C40.51550667 0.08248056 47.13463385 0.09923715 53.75376892 0.12025452 C53.77910796 7.45260379 53.79663119 14.78494178 53.80870056 22.11732483 C53.8137317 24.61212079 53.82055726 27.1069138 53.82920837 29.60169983 C53.84132719 33.18601713 53.84700942 36.77029548 53.85142517 40.35462952 C53.85658646 41.4714209 53.86174774 42.58821228 53.86706543 43.73884583 C53.86714096 44.7796228 53.86721649 45.82039978 53.86729431 46.89271545 C53.86951492 47.80760742 53.87173553 48.72249939 53.87402344 49.66511536 C53.7615365 51.96167021 53.40157477 53.92112782 52.75376892 56.12025452 C45.09996748 56.14554354 37.44617675 56.16309556 29.79234314 56.17518616 C27.18687029 56.18022481 24.58140029 56.18705581 21.97593689 56.19569397 C18.23781128 56.20777996 14.49972295 56.2134874 10.76158142 56.21791077 C9.59071991 56.22307205 8.4198584 56.22823334 7.21351624 56.23355103 C6.13254669 56.23362656 5.05157715 56.23370209 3.93785095 56.23377991 C2.98298798 56.23600052 2.028125 56.23822113 1.04432678 56.24050903 C-1.24623108 56.12025452 -1.24623108 56.12025452 -3.24623108 55.12025452 C-3.27149712 47.44814249 -3.28906231 39.77604112 -3.30116272 32.10389709 C-3.30620484 29.49158833 -3.31303833 26.8792824 -3.32167053 24.26698303 C-3.33374144 20.52145183 -3.33946043 16.7759578 -3.34388733 13.03041077 C-3.34904861 11.85438797 -3.3542099 10.67836517 -3.35952759 9.46670532 C-3.35964088 7.84513771 -3.35964088 7.84513771 -3.35975647 6.19081116 C-3.36197708 5.23372757 -3.36419769 4.27664398 -3.3664856 3.29055786 C-3.20115979 0.30682678 -2.98611891 0.15986525 0 0 Z M-1.24623108 2.12025452 C-1.24623108 19.61025452 -1.24623108 37.10025452 -1.24623108 55.12025452 C16.24376892 55.12025452 33.73376892 55.12025452 51.75376892 55.12025452 C51.75376892 37.63025452 51.75376892 20.14025452 51.75376892 2.12025452 C34.26376892 2.12025452 16.77376892 2.12025452 -1.24623108 2.12025452 Z " fill="#51A8D2" transform="translate(270.24623107910156,266.87974548339844)"/>
<path d="M0 0 C17.82 0 35.64 0 54 0 C54 17.82 54 35.64 54 54 C36.18 54 18.36 54 0 54 C0 36.18 0 18.36 0 0 Z M2 2 C2 18.5 2 35 2 52 C4.41033374 53.20516687 5.9258141 53.12686106 8.61743164 53.12939453 C9.57504898 53.13254669 10.53266632 53.13569885 11.51930237 53.13894653 C12.55578415 53.1369223 13.59226593 53.13489807 14.66015625 53.1328125 C16.25046913 53.13424759 16.25046913 53.13424759 17.87290955 53.13571167 C20.11652689 53.13639295 22.3601462 53.13454227 24.60375977 53.13037109 C28.05163972 53.12501686 31.49938971 53.13032058 34.94726562 53.13671875 C37.12239612 53.13605806 39.29752654 53.1347771 41.47265625 53.1328125 C42.51116226 53.13483673 43.54966827 53.13686096 44.61964417 53.13894653 C45.57410934 53.13579437 46.52857452 53.13264221 47.51196289 53.12939453 C48.35642471 53.12859894 49.20088654 53.12780334 50.07093811 53.12698364 C52.0073591 53.21235217 52.0073591 53.21235217 53 52 C53.09839214 50.4706537 53.12798539 48.93680434 53.12939453 47.40429688 C53.13412277 45.93772644 53.13412277 45.93772644 53.13894653 44.44152832 C53.1369223 43.37801147 53.13489807 42.31449463 53.1328125 41.21875 C53.13376923 40.13493042 53.13472595 39.05111084 53.13571167 37.93444824 C53.13639365 35.6377761 53.13453811 33.34110205 53.13037109 31.04443359 C53.12502312 27.51525572 53.1303155 23.98620513 53.13671875 20.45703125 C53.13605797 18.23177055 53.13477682 16.00650993 53.1328125 13.78125 C53.13483673 12.71773315 53.13686096 11.65421631 53.13894653 10.55847168 C53.13579437 9.58075806 53.13264221 8.60304443 53.12939453 7.59570312 C53.12859894 6.73046021 53.12780334 5.86521729 53.12698364 4.97375488 C53.21795727 2.99787418 53.21795727 2.99787418 52 2 C50.43452952 1.90673284 48.86487228 1.88254418 47.29663086 1.88647461 C46.28161499 1.88659546 45.26659912 1.88671631 44.2208252 1.88684082 C42.60911438 1.89451477 42.60911438 1.89451477 40.96484375 1.90234375 C39.98294067 1.90335083 39.0010376 1.90435791 37.98937988 1.90539551 C34.30540812 1.91064555 30.62145294 1.92460668 26.9375 1.9375 C14.5934375 1.9684375 14.5934375 1.9684375 2 2 Z " fill="#C8F2FD" transform="translate(349,349)"/>
<path d="M0 0 C17.82 0 35.64 0 54 0 C54 17.82 54 35.64 54 54 C36.18 54 18.36 54 0 54 C0 36.18 0 18.36 0 0 Z M2 2 C1.90673284 3.56547048 1.88254418 5.13512772 1.88647461 6.70336914 C1.88659546 7.71838501 1.88671631 8.73340088 1.88684082 9.7791748 C1.89195679 10.85364868 1.89707275 11.92812256 1.90234375 13.03515625 C1.90335083 14.01705933 1.90435791 14.9989624 1.90539551 16.01062012 C1.91064555 19.69459188 1.92460668 23.37854706 1.9375 27.0625 C1.958125 35.291875 1.97875 43.52125 2 52 C18.83 52 35.66 52 53 52 C53 35.17 53 18.34 53 1 C44.770625 0.979375 36.54125 0.95875 28.0625 0.9375 C25.46125244 0.928396 22.86000488 0.91929199 20.17993164 0.90991211 C18.1316737 0.90699313 16.08341519 0.90444453 14.03515625 0.90234375 C12.42344543 0.8946698 12.42344543 0.8946698 10.7791748 0.88684082 C9.76415894 0.88671997 8.74914307 0.88659912 7.70336914 0.88647461 C6.81734512 0.884254 5.93132111 0.88203339 5.01844788 0.87974548 C3.0030131 0.77571959 3.0030131 0.77571959 2 2 Z " fill="#C6F0FB" transform="translate(349,269)"/>
<path d="M0 0 C17.49 0 34.98 0 53 0 C53 17.49 53 34.98 53 53 C35.51 53 18.02 53 0 53 C0 35.51 0 18.02 0 0 Z M2 1 C2 17.5 2 34 2 51 C18.5 51 35 51 52 51 C52 34.5 52 18 52 1 C35.5 1 19 1 2 1 Z " fill="#EAFEFF" transform="translate(511,350)"/>
<path d="M0 0 C7.67211202 -0.02526605 15.3442134 -0.04283123 23.01635742 -0.05493164 C25.62866619 -0.05997377 28.24097211 -0.06680725 30.85327148 -0.07543945 C34.59880268 -0.08751036 38.34429672 -0.09322935 42.08984375 -0.09765625 C43.26586655 -0.10281754 44.44188934 -0.10797882 45.65354919 -0.11329651 C46.73459427 -0.11337204 47.81563934 -0.11344757 48.92944336 -0.11352539 C49.88652695 -0.115746 50.84361053 -0.11796661 51.82969666 -0.12025452 C54 0 54 0 55 1 C55.09881593 2.71318946 55.12798969 4.43044803 55.12939453 6.14648438 C55.13254669 7.24432251 55.13569885 8.34216064 55.13894653 9.4732666 C55.1369223 10.66802612 55.13489807 11.86278564 55.1328125 13.09375 C55.13376923 14.31074585 55.13472595 15.5277417 55.13571167 16.78161621 C55.13639372 19.36075899 55.13453772 21.93990347 55.13037109 24.51904297 C55.12502322 28.48278636 55.13031529 32.44641642 55.13671875 36.41015625 C55.13605797 38.90885442 55.13477682 41.40755252 55.1328125 43.90625 C55.13483673 45.10100952 55.13686096 46.29576904 55.13894653 47.5267334 C55.13421829 49.1734906 55.13421829 49.1734906 55.12939453 50.85351562 C55.12859894 51.8253479 55.12780334 52.79718018 55.12698364 53.79846191 C55 56 55 56 54 57 C52.28134591 57.0935919 50.55884256 57.11744611 48.83764648 57.11352539 C47.73658066 57.11344986 46.63551483 57.11337433 45.50108337 57.11329651 C44.3031868 57.10813522 43.10529022 57.10297394 41.87109375 57.09765625 C40.65172623 57.0962413 39.4323587 57.09482635 38.17604065 57.09336853 C34.2631693 57.08774967 30.35035419 57.07519396 26.4375 57.0625 C23.79231853 57.05748743 21.14713617 57.0529241 18.50195312 57.04882812 C12.00128274 57.03777411 5.50064539 57.02101764 -1 57 C-1 56.34 -1 55.68 -1 55 C16.82 55 34.64 55 53 55 C53 37.18 53 19.36 53 1 C35.51 1 18.02 1 0 1 C0 0.67 0 0.34 0 0 Z " fill="#3395C4" transform="translate(350,348)"/>
<path d="M0 0 C2.64 0 5.28 0 8 0 C8.495 2.97 8.495 2.97 9 6 C9.66386719 6.03738281 10.32773437 6.07476562 11.01171875 6.11328125 C20.6090571 6.82782761 20.6090571 6.82782761 24 10 C24.8125 13.1875 24.8125 13.1875 25 16 C24.505 14.515 24.505 14.515 24 13 C21.70166926 11.86546099 21.70166926 11.86546099 19 11 C18.20722656 10.67 17.41445313 10.34 16.59765625 10 C-3.51192185 2.0677165 -29.98807315 2.61815101 -50.75 8.1875 C-53.95178578 8.98794645 -54.99136219 8.92221289 -58 8 C-57.21753906 7.79503906 -56.43507813 7.59007812 -55.62890625 7.37890625 C-54.61699219 7.10949219 -53.60507812 6.84007812 -52.5625 6.5625 C-51.55316406 6.29566406 -50.54382813 6.02882813 -49.50390625 5.75390625 C-47.08247999 5.24021923 -47.08247999 5.24021923 -46 4 C-36.56969876 2.62862765 -26.87802953 2.89502426 -17.375 2.875 C-16.12936279 2.87040771 -14.88372559 2.86581543 -13.6003418 2.86108398 C-11.82977417 2.86410522 -11.82977417 2.86410522 -10.0234375 2.8671875 C-8.42894775 2.86887939 -8.42894775 2.86887939 -6.80224609 2.87060547 C-4.36151184 2.98330709 -2.32780158 3.29500867 0 4 C0 2.68 0 1.36 0 0 Z " fill="#3590BE" transform="translate(728,362)"/>
<path d="M0 0 C16.17 0 32.34 0 49 0 C49 0.33 49 0.66 49 1 C43.57271071 1.74758249 38.25547655 2.18615909 32.78125 2.31640625 C31.66623108 2.3475779 31.66623108 2.3475779 30.52868652 2.37937927 C28.18587252 2.44405128 25.84295976 2.50337092 23.5 2.5625 C21.89842784 2.60576384 20.29686518 2.64938044 18.6953125 2.69335938 C14.79697267 2.79964636 10.8985349 2.90113794 7 3 C7 2.34 7 1.68 7 1 C6.401875 1.20625 5.80375 1.4125 5.1875 1.625 C3 2 3 2 0 0 Z " fill="#258DC4" transform="translate(352,645)"/>
<path d="M0 0 C0.66 0.33 1.32 0.66 2 1 C0 4 0 4 -3 5 C-8.46750047 11.66351619 -10.39202569 18.95510988 -9.6875 27.5 C-9.56890625 28.58667969 -9.4503125 29.67335938 -9.328125 30.79296875 C-8.87682726 35.20386686 -8.91003974 39.57195599 -9 44 C-9.33 44 -9.66 44 -10 44 C-14.32726985 16.06592764 -14.32726985 16.06592764 -7 6 C-4.77826667 3.7094113 -2.57228321 1.91660318 0 0 Z " fill="#C9F0FB" transform="translate(173,433)"/>
<path d="M0 0 C0.93423645 3.01031744 1.04449911 3.86650268 0 7 C0.00546411 8.45891822 0.05040851 9.91797964 0.125 11.375 C0.18447824 15.43934656 -0.4955259 17.69409419 -3 21 C-4.14654482 23.29308963 -4.19729117 24.79909656 -4.31640625 27.3515625 C-4.35830078 28.20234375 -4.40019531 29.053125 -4.44335938 29.9296875 C-4.48267578 30.81914062 -4.52199219 31.70859375 -4.5625 32.625 C-4.60568359 33.5221875 -4.64886719 34.419375 -4.69335938 35.34375 C-4.79956861 37.56234283 -4.90161194 39.7810488 -5 42 C-5.33 42 -5.66 42 -6 42 C-6.47869522 29.25750144 -6.14951645 18.13052072 -2 6 C-1.62617187 4.87464844 -1.25234375 3.74929688 -0.8671875 2.58984375 C-0.58101562 1.73519531 -0.29484375 0.88054687 0 0 Z " fill="#D2F4FB" transform="translate(596,328)"/>
<path d="M0 0 C8.7953516 0.19388551 15.95735526 2.53488597 24 6 C20.36433867 7.07862981 19.35335539 6.67667769 16 5 C12.87450983 4.74951364 12.87450983 4.74951364 10 5 C9.67 5.33 9.34 5.66 9 6 C7.00041636 6.04080783 4.99954746 6.04254356 3 6 C3 4.68 3 3.36 3 2 C2.01 2 1.02 2 0 2 C0 1.34 0 0.68 0 0 Z " fill="#D8F9FD" transform="translate(725,367)"/>
<path d="M0 0 C0.66 0 1.32 0 2 0 C2.8427743 2.39287704 3.67437002 4.78871019 4.5 7.1875 C4.73847656 7.86103516 4.97695313 8.53457031 5.22265625 9.22851562 C6.48727592 12.93204467 7.30451221 16.07940536 7 20 C7.66 20 8.32 20 9 20 C9 25.28 9 30.56 9 36 C10.98 36 12.96 36 15 36 C12.38058783 37.74627478 10.96175123 38.38722388 8 39 C7.87044922 37.34677734 7.87044922 37.34677734 7.73828125 35.66015625 C6.75223371 24.57358425 4.40885052 14.57099986 1 4 C0.64992287 2.67096468 0.30577693 1.3399214 0 0 Z " fill="#3897C6" transform="translate(650,337)"/>
<path d="M0 0 C1.98 0 3.96 0 6 0 C6 0.33 6 0.66 6 1 C4.35 1 2.7 1 1 1 C0.95101562 1.67546875 0.90203125 2.3509375 0.8515625 3.046875 C0.77679687 3.93890625 0.70203125 4.8309375 0.625 5.75 C0.55539062 6.63171875 0.48578125 7.5134375 0.4140625 8.421875 C-0.00285423 11.0177716 -0.75833895 12.70844023 -2 15 C-2.268125 16.03125 -2.53625 17.0625 -2.8125 18.125 C-4.14537198 23.02996887 -6.39722475 27.64535679 -9 32 C-9.99 32.495 -9.99 32.495 -11 33 C-7.33333333 22 -3.66666667 11 0 0 Z " fill="#3495C5" transform="translate(658,443)"/>
<path d="M0 0 C0.66 0.33 1.32 0.66 2 1 C-2.77946281 4.55395953 -7.31077534 6.33105115 -13 8 C-14.16015625 8.35449219 -15.3203125 8.70898438 -16.515625 9.07421875 C-27.20635204 12.26130788 -27.20635204 12.26130788 -32 12 C-29.12972241 10.08648161 -26.88479438 9.18401378 -23.6328125 8.125 C-22.58222656 7.77953125 -21.53164063 7.4340625 -20.44921875 7.078125 C-19.35222656 6.72234375 -18.25523437 6.3665625 -17.125 6 C-14.96049684 5.29301435 -12.79641855 4.58472634 -10.6328125 3.875 C-9.19252686 3.40707031 -9.19252686 3.40707031 -7.72314453 2.9296875 C-4.97150667 2.03040831 -4.97150667 2.03040831 -2.27294922 0.8203125 C-1.52287598 0.54960938 -0.77280273 0.27890625 0 0 Z " fill="#3D99C4" transform="translate(496,622)"/>
<path d="M0 0 C-2.81820337 1.87880224 -4.21575367 2.42257767 -7.421875 3.0703125 C-8.28296875 3.24433594 -9.1440625 3.41835938 -10.03125 3.59765625 C-10.9284375 3.77167969 -11.825625 3.94570313 -12.75 4.125 C-13.63171875 4.30675781 -14.5134375 4.48851562 -15.421875 4.67578125 C-20.37813799 5.6567083 -24.94939613 6.20699196 -30 6 C-29.67 5.34 -29.34 4.68 -29 4 C-19.55806094 1.1496033 -9.85411316 -0.32847044 0 0 Z " fill="#DBF9FD" transform="translate(456,635)"/>
<path d="M0 0 C0.33 0 0.66 0 1 0 C1.01458252 0.57331055 1.02916504 1.14662109 1.04418945 1.73730469 C1.34924297 12.48639882 1.70463388 22.67676122 5 33 C5.39895161 34.41579168 5.79526042 35.83233411 6.1875 37.25 C6.455625 38.1575 6.72375 39.065 7 40 C4.36343031 39.01881626 3.229056 38.46300383 1.9597168 35.8972168 C-0.09848377 28.12587188 -0.35592629 20.8235451 -0.1875 12.8125 C-0.17396484 11.57435547 -0.16042969 10.33621094 -0.14648438 9.06054688 C-0.11149611 6.0398929 -0.06240724 3.0201906 0 0 Z " fill="#3593C6" transform="translate(589,349)"/>
<path d="M0 0 C-3.38832897 2.96478785 -6.68487782 3.96393958 -11 5.125 C-12.8253125 5.62386719 -12.8253125 5.62386719 -14.6875 6.1328125 C-15.780625 6.41898437 -16.87375 6.70515625 -18 7 C-19.02867187 7.30357422 -19.02867187 7.30357422 -20.078125 7.61328125 C-22.65934672 8.13267343 -25.12028315 8.09380615 -27.75 8.0625 C-28.73484375 8.05347656 -29.7196875 8.04445313 -30.734375 8.03515625 C-31.48203125 8.02355469 -32.2296875 8.01195312 -33 8 C-29.78050432 6.16028818 -26.90634876 5.53045474 -23.25 5 C-15.38888786 3.77140128 -7.5788092 -0.33683596 0 0 Z " fill="#3292C5" transform="translate(586,421)"/>
<path d="M0 0 C4.36124966 0.52284766 8.72105585 1.05614243 13.07983398 1.59912109 C14.56255466 1.78233316 16.04563048 1.96269465 17.52905273 2.14013672 C19.66229626 2.3958117 21.79404891 2.66173955 23.92578125 2.9296875 C25.85031128 3.16534424 25.85031128 3.16534424 27.8137207 3.40576172 C31 4 31 4 34 6 C31.79194476 6.0544452 29.58349446 6.09299283 27.375 6.125 C26.14523437 6.14820313 24.91546875 6.17140625 23.6484375 6.1953125 C20.00892763 6.00047792 17.41012468 5.21308783 14 4 C10.58376872 3.43390414 7.1656031 2.99722887 3.73046875 2.5625 C2.82941406 2.376875 1.92835938 2.19125 1 2 C0.67 1.34 0.34 0.68 0 0 Z " fill="#3795C4" transform="translate(314,639)"/>
<path d="M0 0 C0 0.66 0 1.32 0 2 C-5.86099454 5.8515107 -12.14641138 5.70511266 -19 6 C-18.67 5.34 -18.34 4.68 -18 4 C-15.35054065 3.1960666 -12.75348682 2.50297445 -10.0625 1.875 C-9.32064453 1.69324219 -8.57878906 1.51148438 -7.81445312 1.32421875 C-2.32342575 0 -2.32342575 0 0 0 Z " fill="#3494C6" transform="translate(688,438)"/>
<path d="M0 0 C0.66 0.33 1.32 0.66 2 1 C2 3.31 2 5.62 2 8 C0.824375 8.3403125 0.824375 8.3403125 -0.375 8.6875 C-3.21875 9.78125 -3.21875 9.78125 -4.3125 12.625 C-4.539375 13.40875 -4.76625 14.1925 -5 15 C-5.33 14.34 -5.66 13.68 -6 13 C-5.10333658 10.75689987 -4.10853317 8.55245679 -3.0625 6.375 C-2.49660156 5.18648438 -1.93070312 3.99796875 -1.34765625 2.7734375 C-0.90292969 1.85820312 -0.45820312 0.94296875 0 0 Z " fill="#2094C7" transform="translate(92,262)"/>
<path d="M0 0 C0.66 0.33 1.32 0.66 2 1 C1.65066406 2.09699219 1.30132813 3.19398438 0.94140625 4.32421875 C0.48163336 5.77860238 0.02200559 7.23303189 -0.4375 8.6875 C-0.66759766 9.40873047 -0.89769531 10.12996094 -1.13476562 10.87304688 C-2.2969767 14.56180375 -3.34442773 18.17959607 -4 22 C-4.33 22 -4.66 22 -5 22 C-5.27560214 15.79895188 -4.22899346 10.06815522 -3 4 C-2.34 4 -1.68 4 -1 4 C-0.67 2.68 -0.34 1.36 0 0 Z " fill="#3895C8" transform="translate(595,327)"/>
<path d="M0 0 C0 0.33 0 0.66 0 1 C-7.47321608 3.15721701 -14.21038876 4.46530864 -22 4 C-15.19018801 0.28271731 -7.62889683 -0.28255173 0 0 Z " fill="#C3EEF9" transform="translate(696,367)"/>
<path d="M0 0 C1.98 0 3.96 0 6 0 C6 0.66 6 1.32 6 2 C7.60875 1.87625 7.60875 1.87625 9.25 1.75 C13 2 13 2 15.4375 4 C16.2109375 4.99 16.2109375 4.99 17 6 C10.81839396 5.46246904 5.673142 3.45417612 0 1 C0 0.67 0 0.34 0 0 Z " fill="#D5F6FC" transform="translate(277,627)"/>
<path d="M0 0 C0.33 1.32 0.66 2.64 1 4 C0.34 4 -0.32 4 -1 4 C-1.12375 4.556875 -1.2475 5.11375 -1.375 5.6875 C-2.06543354 8.2421041 -2.89481684 10.59460135 -4 13 C-4.99 13.495 -4.99 13.495 -6 14 C-6.33 14.99 -6.66 15.98 -7 17 C-7.66 17 -8.32 17 -9 17 C-7.51481201 12.95698825 -5.57122002 9.38853744 -3.375 5.6875 C-2.74335937 4.61886719 -2.11171875 3.55023438 -1.4609375 2.44921875 C-0.97882812 1.64097656 -0.49671875 0.83273437 0 0 Z " fill="#3897C6" transform="translate(638,493)"/>
<path d="M0 0 C0.66 0 1.32 0 2 0 C5 3.46153846 5 3.46153846 5 6 C5.99 6 6.98 6 8 6 C8.99 8.97 9.98 11.94 11 15 C10.01 15.495 10.01 15.495 9 16 C7.87344187 14.08424874 6.74881313 12.16736281 5.625 10.25 C4.99851562 9.18265625 4.37203125 8.1153125 3.7265625 7.015625 C2.40227337 4.70261322 1.15363154 2.40048583 0 0 Z " fill="#3894C6" transform="translate(635,309)"/>
<path d="M0 0 C0.721875 0.309375 1.44375 0.61875 2.1875 0.9375 C4.90084476 2.11476808 4.90084476 2.11476808 7.5625 2.1875 C10.45876523 3.15292174 10.84074519 3.885681 12.375 6.4375 C12.91125 7.613125 13.4475 8.78875 14 10 C13.67 10.66 13.34 11.32 13 12 C11.39490066 10.56354149 9.79095576 9.12579294 8.1875 7.6875 C7.29417969 6.88699219 6.40085937 6.08648437 5.48046875 5.26171875 C3.60073214 3.54775419 1.77407253 1.82122396 0 0 Z " fill="#389CCB" transform="translate(620,296)"/>
<path d="M0 0 C1.80030122 2.70045182 2.93377066 5.06677881 4.125 8.0625 C4.47820312 8.94035156 4.83140625 9.81820312 5.1953125 10.72265625 C6 13 6 13 6 15 C5.01 15 4.02 15 3 15 C2.690625 14.030625 2.38125 13.06125 2.0625 12.0625 C1.30476658 9.15934208 1.30476658 9.15934208 0 8 C-0.14115161 5.32941149 -0.04247107 2.67567762 0 0 Z " fill="#3497C3" transform="translate(173,517)"/>
<path d="M0 0 C0.33 0.99 0.66 1.98 1 3 C0.39671875 3.45890625 -0.2065625 3.9178125 -0.828125 4.390625 C-2.02695312 5.31101562 -2.02695312 5.31101562 -3.25 6.25 C-4.43335938 7.15492188 -4.43335938 7.15492188 -5.640625 8.078125 C-7.91631157 9.93182995 -9.96371558 11.88898954 -12 14 C-12.66 13.67 -13.32 13.34 -14 13 C-9.38 8.71 -4.76 4.42 0 0 Z " fill="#3498C5" transform="translate(732,409)"/>
<path d="M0 0 C1.98 0 3.96 0 6 0 C6 0.33 6 0.66 6 1 C4.35 1 2.7 1 1 1 C0.95101562 1.67546875 0.90203125 2.3509375 0.8515625 3.046875 C0.77679687 3.93890625 0.70203125 4.8309375 0.625 5.75 C0.55539062 6.63171875 0.48578125 7.5134375 0.4140625 8.421875 C0.00149945 10.99066382 -0.71160957 12.75841015 -2 15 C-2.66 15 -3.32 15 -4 15 C-3.52229477 13.06213915 -3.04278429 11.12472326 -2.5625 9.1875 C-2.29566406 8.10855469 -2.02882813 7.02960938 -1.75390625 5.91796875 C-1.23922588 3.9259157 -0.65062825 1.95188476 0 0 Z " fill="#4A9ECA" transform="translate(658,443)"/>
<path d="M0 0 C-2 2 -2 2 -4.2421875 2.046875 C-5.54542969 1.89992188 -5.54542969 1.89992188 -6.875 1.75 C-7.73867188 1.66234375 -8.60234375 1.5746875 -9.4921875 1.484375 C-11.98190102 1.00349575 -13.805286 0.2453726 -16 -1 C-10.15659442 -2.24327778 -5.73303505 -1.57300962 0 0 Z " fill="#D3F3FB" transform="translate(328,639)"/>
<path d="M0 0 C-0.375 2.4375 -0.375 2.4375 -1 5 C-1.99 5.495 -1.99 5.495 -3 6 C-4.2375 6.804375 -4.2375 6.804375 -5.5 7.625 C-6.325 8.07875 -7.15 8.5325 -8 9 C-8.66 8.67 -9.32 8.34 -10 8 C-8.71451591 6.66070495 -7.42141845 5.32871357 -6.125 4 C-5.04605469 2.88625 -5.04605469 2.88625 -3.9453125 1.75 C-2 0 -2 0 0 0 Z " fill="#3297C8" transform="translate(587,563)"/>
<path d="M0 0 C0.66 0.99 1.32 1.98 2 3 C0.75 5.5 0.75 5.5 -1 8 C-2.32 8 -3.64 8 -5 8 C-5 8.66 -5 9.32 -5 10 C-5.66 9.67 -6.32 9.34 -7 9 C-4.69 6.03 -2.38 3.06 0 0 Z " fill="#2F93C6" transform="translate(612,533)"/>
<path d="M0 0 C0.66 0 1.32 0 2 0 C4.4793824 6.24273068 5.31985731 11.28299653 5 18 C2.91648385 14.41272872 2.19858621 10.79305958 1.375 6.75 C1.11460937 5.48671875 0.85421875 4.2234375 0.5859375 2.921875 C0.39257812 1.95765625 0.19921875 0.9934375 0 0 Z " fill="#D4F8FD" transform="translate(165,486)"/>
<path d="M0 0 C0.66 0.33 1.32 0.66 2 1 C1.59007812 1.51949219 1.18015625 2.03898437 0.7578125 2.57421875 C-2.07636576 6.2423777 -4.59828033 9.51449706 -6 14 C-6.33 14 -6.66 14 -7 14 C-7 11.69 -7 9.38 -7 7 C-6.34 6.67 -5.68 6.34 -5 6 C-4.87625 5.360625 -4.7525 4.72125 -4.625 4.0625 C-4 2 -4 2 -2.0625 0.6875 C-1.381875 0.460625 -0.70125 0.23375 0 0 Z " fill="#2F92C4" transform="translate(168,435)"/>
<path d="M0 0 C1.25541557 3.76624671 0.37061958 5.37188934 -1 9 C-1.66 9 -2.32 9 -3 9 C-3.66 10.98 -4.32 12.96 -5 15 C-5.99 15 -6.98 15 -8 15 C-5.36 10.05 -2.72 5.1 0 0 Z " fill="#3B98C4" transform="translate(751,379)"/>
<path d="M0 0 C0.66 0.33 1.32 0.66 2 1 C1.53118987 5.21929116 1.08710577 7.1503639 -2 10 C-3.04622875 11.97620986 -4.05439935 13.9737129 -5 16 C-5.66 15.67 -6.32 15.34 -7 15 C-3.535 7.575 -3.535 7.575 0 0 Z " fill="#3694C2" transform="translate(646,476)"/>
<path d="M0 0 C2.90298181 4.35447271 4.27996489 8.76028084 3.625 14 C3.41875 14.66 3.2125 15.32 3 16 C0.14206684 13.14206684 0.59200059 10.85334416 0.375 6.875 C0.30023437 5.59367187 0.22546875 4.31234375 0.1484375 2.9921875 C0.09945312 2.00476563 0.05046875 1.01734375 0 0 Z " fill="#C8F2FB" transform="translate(653,347)"/>
<path d="M0 0 C5.28 1.65 10.56 3.3 16 5 C16 5.33 16 5.66 16 6 C9.375 6.25 9.375 6.25 6 4 C4.01200182 3.29835358 2.01301483 2.62627128 0 2 C0 1.34 0 0.68 0 0 Z " fill="#2A8FC2" transform="translate(539,69)"/>
<path d="M0 0 C1 2 1 2 0.25 5.0625 C-0.1625 6.031875 -0.575 7.00125 -1 8 C-1.99 8.33 -2.98 8.66 -4 9 C-4 9.66 -4 10.32 -4 11 C-4.99 10.67 -5.98 10.34 -7 10 C-3.535 5.05 -3.535 5.05 0 0 Z " fill="#3699C8" transform="translate(628,510)"/>
<path d="M0 0 C0.99 0 1.98 0 3 0 C1.63408831 3.54243452 0.09068516 6.92627929 -1.625 10.3125 C-2.07101562 11.19550781 -2.51703125 12.07851563 -2.9765625 12.98828125 C-3.31429687 13.65214844 -3.65203125 14.31601562 -4 15 C-5 12 -5 12 -4.2578125 10.09765625 C-3.69707031 9.09025391 -3.69707031 9.09025391 -3.125 8.0625 C-1.64629663 5.37911872 -0.63192936 3.00502577 0 0 Z " fill="#3596C5" transform="translate(602,311)"/>
<path d="M0 0 C9.59453303 2.89066059 9.59453303 2.89066059 13 6 C10.1875 6.1875 10.1875 6.1875 7 6 C5.375 4.5625 5.375 4.5625 4 3 C1.89667109 2.28552357 1.89667109 2.28552357 0 2 C0 1.34 0 0.68 0 0 Z " fill="#3592C3" transform="translate(261,621)"/>
<path d="M0 0 C-1.5747294 0.72726052 -3.16024279 1.43120422 -4.75 2.125 C-5.63171875 2.51945313 -6.5134375 2.91390625 -7.421875 3.3203125 C-10 4 -10 4 -12.328125 3.1171875 C-12.87984375 2.74851562 -13.4315625 2.37984375 -14 2 C-12.42085985 1.46658816 -10.83645613 0.94874237 -9.25 0.4375 C-8.36828125 0.14746094 -7.4865625 -0.14257812 -6.578125 -0.44140625 C-3.92165684 -1.01697435 -2.52968894 -0.89248371 0 0 Z " fill="#3395C3" transform="translate(464,635)"/>
<path d="M0 0 C0.66 0.33 1.32 0.66 2 1 C0.68 5.29 -0.64 9.58 -2 14 C-2.9363638 10.25454482 -3.08218386 9.32348433 -2.125 5.875 C-1.94195313 5.19179688 -1.75890625 4.50859375 -1.5703125 3.8046875 C-1 2 -1 2 0 0 Z " fill="#D9F8FE" transform="translate(656,445)"/>
<path d="M0 0 C0.33 0 0.66 0 1 0 C1.125 2.375 1.125 2.375 1 5 C0.34 5.66 -0.32 6.32 -1 7 C-1.99 7 -2.98 7 -4 7 C-4 7.66 -4 8.32 -4 9 C-4.66 8.67 -5.32 8.34 -6 8 C-5.02471263 6.66382648 -4.04466681 5.3311249 -3.0625 4 C-2.24458984 2.88625 -2.24458984 2.88625 -1.41015625 1.75 C-0.94480469 1.1725 -0.47945312 0.595 0 0 Z " fill="#3897C7" transform="translate(739,400)"/>
<path d="M0 0 C2.375 0.3125 2.375 0.3125 5 1 C5.66 1.99 6.32 2.98 7 4 C4.69 4.33 2.38 4.66 0 5 C0 3.35 0 1.7 0 0 Z " fill="#1B93C3" transform="translate(646,123)"/>
<path d="M0 0 C0 0.66 0 1.32 0 2 C-1.24176695 2.70226141 -2.49385599 3.38629109 -3.75 4.0625 C-4.79414062 4.63677734 -4.79414062 4.63677734 -5.859375 5.22265625 C-8.36140628 6.1312406 -9.5332355 5.88336837 -12 5 C-10.37750059 4.16180842 -8.75191503 3.3295884 -7.125 2.5 C-6.22007812 2.0359375 -5.31515625 1.571875 -4.3828125 1.09375 C-2 0 -2 0 0 0 Z " fill="#4399C5" transform="translate(518,613)"/>
<path d="M0 0 C0.33 1.32 0.66 2.64 1 4 C-0.1875 5.8125 -0.1875 5.8125 -2 7 C-3.32 6.67 -4.64 6.34 -6 6 C-4.02 4.02 -2.04 2.04 0 0 Z " fill="#339CCA" transform="translate(595,553)"/>
<path d="M0 0 C-0.99 1.98 -1.98 3.96 -3 6 C-3.33 5.01 -3.66 4.02 -4 3 C-4.99 3 -5.98 3 -7 3 C-6.67 2.01 -6.34 1.02 -6 0 C-3.42525708 -0.99667468 -2.51072708 -1.25536354 0 0 Z " fill="#D6F6FC" transform="translate(642,487)"/>
<path d="M0 0 C0.66 0.33 1.32 0.66 2 1 C-2.18461538 5.92307692 -2.18461538 5.92307692 -6.3125 6.3125 C-7.199375 6.209375 -8.08625 6.10625 -9 6 C-6.12050853 3.76039553 -3.23257974 1.70135776 0 0 Z " fill="#3599C7" transform="translate(708,428)"/>
<path d="M0 0 C0 0.66 0 1.32 0 2 C-3.97193147 5.12940055 -7.04230204 5.29162929 -12 5 C-8.45976076 2.63984051 -4.36489861 0 0 0 Z " fill="#D1F3FC" transform="translate(588,421)"/>
<path d="M0 0 C2.64 0 5.28 0 8 0 C8.33 1.65 8.66 3.3 9 5 C8.34 4.34 7.68 3.68 7 3 C3.41656024 2.83322718 3.41656024 2.83322718 0 3 C0 2.01 0 1.02 0 0 Z " fill="#248FC4" transform="translate(728,362)"/>
<path d="M0 0 C0.99 0.99 1.98 1.98 3 3 C2.8125 6.125 2.8125 6.125 2 9 C1.01 9.495 1.01 9.495 0 10 C0 6.7 0 3.4 0 0 Z " fill="#3697C7" transform="translate(601,398)"/>
<path d="M0 0 C0.66 0.99 1.32 1.98 2 3 C1.195625 3.45375 0.39125 3.9075 -0.4375 4.375 C-3.08856572 5.74725665 -3.08856572 5.74725665 -4 8 C-4.66 7.67 -5.32 7.34 -6 7 C-4.02 4.69 -2.04 2.38 0 0 Z " fill="#3B9AD2" transform="translate(604,543)"/>
<path d="M0 0 C0.598125 0.309375 1.19625 0.61875 1.8125 0.9375 C4.08956772 2.10209704 4.08956772 2.10209704 7 3 C7.33 4.98 7.66 6.96 8 9 C7.67 8.01 7.34 7.02 7 6 C6.195625 5.690625 5.39125 5.38125 4.5625 5.0625 C2 4 2 4 0.6875 1.875 C0.460625 1.25625 0.23375 0.6375 0 0 Z " fill="#3496CD" transform="translate(745,369)"/>
<path d="M0 0 C0.66 1.32 1.32 2.64 2 4 C1.34 4 0.68 4 0 4 C-0.66 5.98 -1.32 7.96 -2 10 C-2.66 10 -3.32 10 -4 10 C-2.8905928 6.51329166 -1.73662334 3.22515763 0 0 Z " fill="#D2F6FC" transform="translate(603,314)"/>
<path d="M0 0 C1.32 0.33 2.64 0.66 4 1 C3.67 1.66 3.34 2.32 3 3 C2.0409375 3.2165625 2.0409375 3.2165625 1.0625 3.4375 C-1.38210855 3.86165035 -1.38210855 3.86165035 -3 7 C-3.66 6.67 -4.32 6.34 -5 6 C-3.35 4.02 -1.7 2.04 0 0 Z " fill="#CAF5FC" transform="translate(617,296)"/>
<path d="M0 0 C0 0.33 0 0.66 0 1 C-1.3921875 1.433125 -1.3921875 1.433125 -2.8125 1.875 C-6.09791667 2.8875 -6.09791667 2.8875 -9 5 C-9.33 4.01 -9.66 3.02 -10 2 C-6.27511755 -0.66063032 -4.42132508 -1.38955931 0 0 Z " fill="#228FC2" transform="translate(622,295)"/>
<path d="M0 0 C0.33 0.99 0.66 1.98 1 3 C1.99 3.33 2.98 3.66 4 4 C4 4.66 4 5.32 4 6 C2.02 6 0.04 6 -2 6 C-1.34 4.02 -0.68 2.04 0 0 Z " fill="#1F92C0" transform="translate(83,282)"/>
<path d="M0 0 C0.33 0.66 0.66 1.32 1 2 C1.66 2.33 2.32 2.66 3 3 C2.67 3.99 2.34 4.98 2 6 C0.35 6 -1.3 6 -3 6 C-2.01 4.02 -1.02 2.04 0 0 Z " fill="#308AC0" transform="translate(98,251)"/>
<path d="M0 0 C0.33 0 0.66 0 1 0 C1 2.64 1 5.28 1 8 C-0.98 8.99 -0.98 8.99 -3 10 C-2.01 6.7 -1.02 3.4 0 0 Z " fill="#2A8DBF" transform="translate(74,305)"/>
<path d="M0 0 C0.33 0.66 0.66 1.32 1 2 C-0.8125 4 -0.8125 4 -3 6 C-3.99 6 -4.98 6 -6 6 C-6 5.34 -6 4.68 -6 4 C-4.03852126 2.61061923 -2.03833424 1.2739589 0 0 Z " fill="#3298C6" transform="translate(555,589)"/>
<path d="M0 0 C0.99 0.33 1.98 0.66 3 1 C-2.75 6 -2.75 6 -5 6 C-5 5.34 -5 4.68 -5 4 C-4.34 4 -3.68 4 -3 4 C-2.67 3.01 -2.34 2.02 -2 1 C-1.34 0.67 -0.68 0.34 0 0 Z " fill="#DCFAFD" transform="translate(554,587)"/>
<path d="M0 0 C0 3 0 3 -1.25 4.75 C-1.8275 5.1625 -2.405 5.575 -3 6 C-4.32 5.67 -5.64 5.34 -7 5 C-4.69 3.35 -2.38 1.7 0 0 Z " fill="#3598D1" transform="translate(563,583)"/>
<path d="M0 0 C0.75 1.75 0.75 1.75 1 4 C-0.8125 6.25 -0.8125 6.25 -3 8 C-3.66 8 -4.32 8 -5 8 C-3.62845496 5.04590299 -2.01136276 2.55991624 0 0 Z " fill="#389AC4" transform="translate(618,525)"/>
<path d="M0 0 C0.99 0 1.98 0 3 0 C1.8141763 3.37503669 0.72426311 5.64722731 -2 8 C-2 6.68 -2 5.36 -2 4 C-1.34 4 -0.68 4 0 4 C0 2.68 0 1.36 0 0 Z " fill="#D8FAFE" transform="translate(741,392)"/>
<path d="M0 0 C0.99 0.33 1.98 0.66 3 1 C3.6875 3.0625 3.6875 3.0625 4 5 C2.02 4.34 0.04 3.68 -2 3 C-1.34 2.01 -0.68 1.02 0 0 Z " fill="#2C8ACB" transform="translate(260,763)"/>
<path d="M0 0 C0.99 0 1.98 0 3 0 C1.8141763 3.37503669 0.72426311 5.64722731 -2 8 C-1.47731534 5.23723823 -0.89130413 2.6739124 0 0 Z " fill="#D6F6FC" transform="translate(626,508)"/>
<path d="M0 0 C-0.33 0.99 -0.66 1.98 -1 3 C-3.31 3 -5.62 3 -8 3 C-7 1 -7 1 -5.125 0.375 C-3 0 -3 0 0 0 Z " fill="#3F9BCB" transform="translate(677,441)"/>
<path d="M0 0 C0.66 0 1.32 0 2 0 C3.6875 2.3125 3.6875 2.3125 5 5 C4.67 5.99 4.34 6.98 4 8 C3.34 6.68 2.68 5.36 2 4 C1.34 4 0.68 4 0 4 C0 2.68 0 1.36 0 0 Z " fill="#EBFEFE" transform="translate(591,370)"/>
<path d="M0 0 C0.33 0.66 0.66 1.32 1 2 C-1.3125 4.0625 -1.3125 4.0625 -4 6 C-4.99 5.67 -5.98 5.34 -7 5 C-4.87219421 2.65941363 -2.88437779 1.29299694 0 0 Z " fill="#248CC4" transform="translate(260,93)"/>
<path d="M0 0 C-0.33 0.99 -0.66 1.98 -1 3 C-3.64 3 -6.28 3 -9 3 C-5.73209435 0.82139623 -3.91954654 0 0 0 Z " fill="#2A8DBF" transform="translate(314,72)"/>
</svg>
