<?xml version="1.0" encoding="UTF-8"?>
<svg version="1.1" xmlns="http://www.w3.org/2000/svg" width="750" height="750">
<path d="M0 0 C11.88 0 23.76 0 36 0 C38.2173339 6.09766823 40.30675777 11.90335952 42.11083984 18.07470703 C43.94487325 24.1085863 46.00195894 30.07223256 48.01049805 36.04980469 C55.03194636 56.9538426 55.03194636 56.9538426 58 66.5 C59.93336334 72.68704109 61.92847147 78.85004882 63.98828125 84.99609375 C64.25730759 85.801642 64.52633392 86.60719025 64.80351257 87.43714905 C66.18223677 91.56485779 67.56535109 95.69107525 68.95117188 99.81640625 C69.20988571 100.58831802 69.46859955 101.3602298 69.7351532 102.15553284 C70.22553539 103.61849262 70.71718032 105.08102995 71.21028137 106.54307556 C72.25848958 109.67222742 73.2754247 112.77834741 74 116 C76.47333034 109.60250308 78.59695649 103.1479839 80.5 96.5625 C83.20486696 87.21300162 86.26056475 78.03170999 89.5625 68.875 C91.28753005 64.08383421 92.84548303 59.28801109 94.26171875 54.3984375 C95.04016401 51.86952011 95.94190825 49.41335301 96.875 46.9375 C98.53801692 42.44860472 99.93449301 37.91270587 101.25 33.3125 C104.46455429 22.08698953 108.27006871 11.06335552 112 0 C123.55 0 135.1 0 147 0 C151.1421938 35.20864731 151.1421938 35.20864731 152.35107422 51.63427734 C152.77075229 57.29946391 153.30701793 62.92478129 154 68.5625 C155.51030168 81.05627387 156.03568434 93.65811227 156.7644043 106.21630859 C156.98181488 109.70794508 157.24725259 113.19230705 157.5234375 116.6796875 C158.20786236 126.06608564 158.35632916 135.46856065 158.5625 144.875 C158.60581343 146.7382884 158.64943118 148.60156975 158.69335938 150.46484375 C158.79963363 154.97648658 158.89969046 159.48820509 159 164 C149.43 164 139.86 164 130 164 C128.86072247 150.32866962 128.86072247 150.32866962 128.7890625 143.6328125 C128.76314335 142.09137818 128.73650071 140.5499559 128.70922852 139.00854492 C128.69594513 138.21354584 128.68266174 137.41854675 128.66897583 136.59945679 C128.34139836 118.1671432 127.17208243 99.88462383 125.56326294 81.5242157 C124.84574665 73.33016162 124.24351109 65.1282465 123.64672852 56.92456055 C123.27009645 51.91056678 122.78749187 46.96672502 122 42 C117.23672386 56.09227319 112.75508706 70.27197008 108.27734375 84.45703125 C105.22610708 94.10478414 102.10165481 103.72187046 98.875 113.3125 C96.39209077 120.70135611 94.02042207 128.09951197 91.8737793 135.59277344 C89.13007476 145.12781435 86.03014799 154.55306805 83 164 C75.41 164 67.82 164 60 164 C57.49279579 157.28427444 55.20317471 150.55881886 53.125 143.69921875 C51.81623187 139.39573466 50.47645825 135.10274041 49.125 130.8125 C48.87065186 130.00433838 48.61630371 129.19617676 48.35424805 128.36352539 C46.61431864 122.86491281 44.79134127 117.39855756 42.9375 111.9375 C40.8782362 105.86120279 39.05003952 99.75548254 37.375 93.5625 C35.84817772 87.91851833 34.17357521 82.4283804 32.09765625 76.95703125 C27.8400517 65.4872567 24.22455209 53.79806707 21 42 C19.82598402 45.80383612 19.71393962 49.63896367 19.53515625 53.5859375 C19.49760223 54.34193237 19.46004822 55.09792725 19.4213562 55.87683105 C19.2979789 58.37605291 19.18016335 60.87550312 19.0625 63.375 C18.93341269 66.03821969 18.80312776 68.70137891 18.67268372 71.36453247 C18.58302626 73.19578875 18.49382919 75.02706763 18.40507507 76.85836792 C18.11663463 82.77180585 17.80021877 88.68302555 17.4609375 94.59375 C16.14472061 117.72335439 15.45044018 140.83789189 15 164 C6.42 164 -2.16 164 -11 164 C-11.17374769 139.15408011 -10.6552129 114.38945479 -8.46484375 89.6328125 C-8.01330073 84.44490891 -7.76459813 79.26508341 -7.5625 74.0625 C-7.19619578 65.25059963 -6.22025862 56.54812832 -5.15869141 47.7956543 C-4.19589669 39.84292303 -3.39085685 31.89056894 -2.73461914 23.90673828 C-2.05514351 15.88908585 -1.00165351 8.01322807 0 0 Z " fill="#01748D" transform="translate(35,408)"/>
<path d="M0 0 C6.38223904 7.24045679 9.90322748 14.94974233 13 24 C13.3403125 24.79277344 13.680625 25.58554687 14.03125 26.40234375 C23.31439063 51.29463616 20.94161256 90.86836617 10.20117188 114.77832031 C4.5244425 127.03980176 4.5244425 127.03980176 0 132 C-0.66 132 -1.32 132 -2 132 C-2.28875 132.598125 -2.5775 133.19625 -2.875 133.8125 C-4 136 -4 136 -6 139 C-5.37222656 139.23976563 -4.74445313 139.47953125 -4.09765625 139.7265625 C0.18162466 141.48576247 4.36943345 143.42057751 8.5625 145.375 C9.41263672 145.76171875 10.26277344 146.1484375 11.13867188 146.546875 C15.42356872 148.54985423 18.9272434 150.27183548 22 154 C20.73252511 156.25195063 19.46117132 158.50155747 18.1875 160.75 C17.83107422 161.38421875 17.47464844 162.0184375 17.10742188 162.671875 C15.24751265 165.94804537 13.36160916 169.04985101 11 172 C7.27335657 171.44814514 4.91647356 170.51554454 1.875 168.3125 C-2.26711838 165.43963041 -6.51090739 163.00803684 -10.96875 160.66015625 C-13.2140831 159.43043129 -15.36659448 158.16677453 -17.53125 156.80859375 C-18.13815674 156.43653809 -18.74506348 156.06448242 -19.37036133 155.68115234 C-21.10286363 154.61460317 -22.8232704 153.52847983 -24.54296875 152.44140625 C-29.05144467 150.56160103 -31.25689704 151.04646428 -36 152 C-46.70471189 153.92684814 -56.78312721 153.30341655 -67.375 151.25 C-68.62253052 151.01470581 -68.62253052 151.01470581 -69.89526367 150.7746582 C-82.19259021 148.20989619 -92.61550739 141.19331803 -100 131 C-101.44528036 128.70918146 -102.71590562 126.3910723 -104 124 C-104.49113281 123.21882812 -104.98226563 122.43765625 -105.48828125 121.6328125 C-118.97832934 98.13851687 -116.89328158 60.01113813 -110.43164062 34.78076172 C-105.6298703 17.84636297 -96.48522397 1.33012595 -81 -8 C-77.39979849 -9.84638906 -73.74525622 -11.47179653 -70 -13 C-68.989375 -13.4125 -67.97875 -13.825 -66.9375 -14.25 C-43.44047929 -20.24923933 -18.41689437 -15.69917369 0 0 Z M-71 14 C-86.27245298 32.37764052 -86.4679316 58.57020275 -84.83447266 81.30371094 C-84.4592511 85.25655908 -83.80612676 89.11456917 -83 93 C-82.78214844 94.1240625 -82.56429688 95.248125 -82.33984375 96.40625 C-79.83817485 108.32677064 -75.70007986 118.34215479 -66.1875 126.375 C-55.96697926 131.58546155 -45.75336727 132.55253857 -34.7421875 129.23046875 C-26.28279863 125.43458913 -20.67816131 118.30015268 -17 110 C-16.49726562 108.90816406 -15.99453125 107.81632813 -15.4765625 106.69140625 C-6.23486943 83.58717358 -8.32826763 48.85530275 -17.125 25.9375 C-17.7222707 24.61215138 -18.34437621 23.29747397 -19 22 C-19.31710937 21.31550781 -19.63421875 20.63101563 -19.9609375 19.92578125 C-21.49484547 17.0828616 -23.61500252 15.14649773 -26 13 C-26.66 13 -27.32 13 -28 13 C-28 12.34 -28 11.68 -28 11 C-29.22506898 10.34642722 -30.45529516 9.70251767 -31.6875 9.0625 C-32.71423828 8.52302734 -32.71423828 8.52302734 -33.76171875 7.97265625 C-45.5226151 2.86190024 -61.69745029 4.99753254 -71 14 Z " fill="#F19111" transform="translate(553,422)"/>
<path d="M0 0 C4.22983181 2.19625883 7.62870602 4.20369516 10.84375 7.7265625 C14.9752975 11.55096858 20.31968926 11.36394395 25.65771484 11.79223633 C37.68768473 12.7777562 49.36725942 15.97876464 59.71875 22.3515625 C60.56050781 22.86976563 61.40226563 23.38796875 62.26953125 23.921875 C63.09839844 24.43492187 63.92726563 24.94796875 64.78125 25.4765625 C65.57917969 25.94835937 66.37710938 26.42015625 67.19921875 26.90625 C67.92753906 27.34195313 68.65585937 27.77765625 69.40625 28.2265625 C70.38464844 28.80664062 70.38464844 28.80664062 71.3828125 29.3984375 C72.07503906 29.93210937 72.07503906 29.93210937 72.78125 30.4765625 C72.78125 31.1365625 72.78125 31.7965625 72.78125 32.4765625 C73.33296875 32.57066406 73.8846875 32.66476563 74.453125 32.76171875 C77.40530565 33.6681769 79.50846344 35.13999768 82.03125 36.9140625 C82.92328125 37.53152344 83.8153125 38.14898437 84.734375 38.78515625 C85.74757813 39.62240234 85.74757813 39.62240234 86.78125 40.4765625 C86.78125 41.1365625 86.78125 41.7965625 86.78125 42.4765625 C87.34328125 42.72148437 87.9053125 42.96640625 88.484375 43.21875 C96.2541268 47.47361408 102.61925878 55.18649294 108.78125 61.4765625 C109.63396484 62.23839844 109.63396484 62.23839844 110.50390625 63.015625 C111.78125 64.4765625 111.78125 64.4765625 111.78125 67.4765625 C112.37437988 67.72027588 112.96750977 67.96398926 113.57861328 68.21508789 C116.18665541 69.7087427 117.31073916 71.20047445 119.0234375 73.66015625 C119.61181396 74.49957764 120.20019043 75.33899902 120.80639648 76.20385742 C121.41684814 77.0982251 122.0272998 77.99259277 122.65625 78.9140625 C123.5999646 80.28558472 123.5999646 80.28558472 124.56274414 81.68481445 C130.82413272 90.87139828 135.68464384 99.97264961 139.81933594 110.28564453 C142.51089901 116.95902593 145.46459832 123.50120192 148.46875 130.0390625 C148.93240967 131.0499292 149.39606934 132.0607959 149.8737793 133.10229492 C152.41516867 138.610849 155.0296 144.07017685 157.78125 149.4765625 C158.71264526 151.32043293 159.64281408 153.16491473 160.57226562 155.00976562 C161.18014325 156.2162504 161.78956866 157.42195634 162.40039062 158.62695312 C163.70570813 161.22330676 164.86058316 163.71456199 165.78125 166.4765625 C167.77985835 167.17782859 169.78495368 167.86290912 171.80859375 168.48828125 C183.6773172 172.43412492 193.9897273 178.08999009 204.13769531 185.32958984 C205.79932454 186.48917601 207.49896324 187.56896156 209.2109375 188.65234375 C210.48324219 189.55533203 210.48324219 189.55533203 211.78125 190.4765625 C211.78125 191.1365625 211.78125 191.7965625 211.78125 192.4765625 C212.34328125 192.73308594 212.9053125 192.98960937 213.484375 193.25390625 C222.4968991 198.05138932 230.16031272 206.04515659 235.78125 214.4765625 C235.78125 215.7965625 235.78125 217.1165625 235.78125 218.4765625 C228.11324624 220.91535068 221.0209962 222.70333841 212.95703125 223.12890625 C206.74157808 223.80931871 200.76588387 225.7187807 194.78125 227.4765625 C195.27625 227.9303125 195.77125 228.3840625 196.28125 228.8515625 C197.78125 230.4765625 197.78125 230.4765625 197.78125 232.4765625 C198.33039063 232.74726563 198.87953125 233.01796875 199.4453125 233.296875 C213.16150135 240.22377974 213.16150135 240.22377974 218.78125 244.4765625 C218.78125 245.1365625 218.78125 245.7965625 218.78125 246.4765625 C220.10125 246.8065625 221.42125 247.1365625 222.78125 247.4765625 C222.78125 248.1365625 222.78125 248.7965625 222.78125 249.4765625 C223.6475 249.816875 223.6475 249.816875 224.53125 250.1640625 C227.37716381 251.82417889 228.77966921 253.86844207 230.78125 256.4765625 C232.1115625 257.7759375 232.1115625 257.7759375 233.46875 259.1015625 C235.78125 261.4765625 235.78125 261.4765625 236.78125 264.4765625 C237.4 264.7859375 238.01875 265.0953125 238.65625 265.4140625 C241.32524051 266.74855776 242.25587293 267.91115562 243.78125 270.4765625 C244.51385159 272.79004122 245.192688 275.1223145 245.78125 277.4765625 C241.59598525 276.40591338 239.27653699 275.14443836 236.33984375 272.015625 C229.89383904 265.65039729 222.41751071 261.65189326 214.28125 257.9140625 C199.31897194 251.03121104 182.36127082 241.58917759 175.78125 225.4765625 C175.40625 221.8515625 175.40625 221.8515625 175.78125 219.4765625 C180.76171875 217.328125 180.76171875 217.328125 182.78125 216.4765625 C183.544375 216.14527344 184.3075 215.81398438 185.09375 215.47265625 C195.81962545 211.49722276 207.46383912 210.9078436 218.78125 210.4765625 C217.53468112 207.98342473 216.62834343 207.76585044 214.15625 206.5390625 C209.53285813 204.06092446 205.41286003 201.1044878 201.21875 197.9765625 C193.27021237 192.0758202 186.34321244 187.32063338 176.78125 184.4765625 C174.53267982 183.73613211 172.28996405 182.97950273 170.046875 182.22265625 C168.50180939 181.71385016 166.9491287 181.22774192 165.390625 180.76171875 C164.61203125 180.52324219 163.8334375 180.28476562 163.03125 180.0390625 C162.33515625 179.83410156 161.6390625 179.62914062 160.921875 179.41796875 C151.13853628 175.11544205 146.76671844 164.01286093 143.078125 154.68359375 C141.67182134 151.20595728 140.12751537 147.80713813 138.53125 144.4140625 C138.24137207 143.7957959 137.95149414 143.1775293 137.65283203 142.54052734 C135.95648715 138.93590817 134.23716913 135.34279396 132.5078125 131.75390625 C125.78148206 117.74981504 125.78148206 117.74981504 123.15625 110.5390625 C119.24141398 100.05100519 113.07813917 91.21819879 106.33740234 82.37548828 C102.78125 77.67748639 102.78125 77.67748639 102.78125 75.4765625 C102.12125 75.4765625 101.46125 75.4765625 100.78125 75.4765625 C96.78125 71.00597426 96.78125 71.00597426 96.78125 68.4765625 C95.79125 68.1465625 94.80125 67.8165625 93.78125 67.4765625 C92.56661127 66.03212725 91.35600397 64.58356753 90.1875 63.1015625 C88.73363728 61.42154335 87.2078012 60.10467855 85.46875 58.7265625 C84.581875 57.9840625 83.695 57.2415625 82.78125 56.4765625 C82.78125 55.8165625 82.78125 55.1565625 82.78125 54.4765625 C82.22953125 54.21875 81.6778125 53.9609375 81.109375 53.6953125 C78.43810825 52.29693125 76.01273091 50.68892945 73.53125 48.9765625 C72.63921875 48.368125 71.7471875 47.7596875 70.828125 47.1328125 C70.15265625 46.58625 69.4771875 46.0396875 68.78125 45.4765625 C68.78125 44.8165625 68.78125 44.1565625 68.78125 43.4765625 C68.18054688 43.35539062 67.57984375 43.23421875 66.9609375 43.109375 C64.2073075 42.30993403 62.36717109 40.69353621 60.08984375 39.00390625 C54.98179909 35.6244723 49.34654656 33.01469589 43.78125 30.4765625 C43.05292969 30.13004639 42.32460938 29.78353027 41.57421875 29.42651367 C34.62569256 26.34493819 27.93387644 25.54917934 20.40625 24.9140625 C18.10572946 24.71618199 15.80614421 24.50701833 13.5078125 24.28515625 C12.50314941 24.20064209 11.49848633 24.11612793 10.46337891 24.02905273 C7.48902567 23.41636737 5.96266041 22.56813487 3.78125 20.4765625 C3.78125 19.8165625 3.78125 19.1565625 3.78125 18.4765625 C3.141875 18.2496875 2.5025 18.0228125 1.84375 17.7890625 C-0.64715232 16.72153293 -2.82331873 15.58018494 -5.15625 14.2265625 C-9.12749426 11.99814235 -13.18625233 10.01773092 -17.34375 8.1640625 C-18.48070312 7.65230469 -19.61765625 7.14054688 -20.7890625 6.61328125 C-24.466013 5.39461087 -27.37171399 5.26610124 -31.21875 5.4765625 C-32.52570324 9.39742222 -32.00140651 11.72596569 -30.32202148 15.44067383 C-28.11321563 19.51662692 -25.22155054 23.11885394 -22.40625 26.7890625 C-15.15030427 36.29071182 -9.17803886 45.22462992 -5.65625 56.7265625 C-5.06330625 58.57187385 -4.46955435 60.4169257 -3.875 62.26171875 C-3.59269531 63.15133301 -3.31039062 64.04094727 -3.01953125 64.95751953 C1.50747898 80.22824121 1.50747898 80.22824121 10.4609375 93.12109375 C11.78125 94.4765625 11.78125 94.4765625 11.78125 96.4765625 C12.77125 96.8065625 13.76125 97.1365625 14.78125 97.4765625 C17.02278461 101.95963173 16.60787724 107.70155666 15.20410156 112.4140625 C14.2189796 115.16447013 13.15877424 117.8697102 12.00366211 120.55322266 C5.80716118 135.28551071 6.96669608 157.19293027 12.28125 171.9765625 C13.1221015 173.93854934 13.99366473 175.89021224 14.96875 177.7890625 C15.78125 179.4765625 15.78125 179.4765625 15.78125 182.4765625 C16.44125 182.4765625 17.10125 182.4765625 17.78125 182.4765625 C19.40625 183.9765625 19.40625 183.9765625 20.78125 185.4765625 C21.1525 183.5584375 21.1525 183.5584375 21.53125 181.6015625 C21.716875 180.69792969 21.9025 179.79429687 22.09375 178.86328125 C22.46424113 177.03819141 22.8305524 175.21211675 23.171875 173.38134766 C26.4263957 155.94480097 26.4263957 155.94480097 32.78125 148.4765625 C33.503125 147.4659375 34.225 146.4553125 34.96875 145.4140625 C35.566875 144.7746875 36.165 144.1353125 36.78125 143.4765625 C37.77125 143.4765625 38.76125 143.4765625 39.78125 143.4765625 C40.19375 144.6109375 40.60625 145.7453125 41.03125 146.9140625 C42.46842725 150.74653516 44.06870616 154.47956726 45.7578125 158.20703125 C46.41358056 159.66123447 47.05555829 161.1217833 47.6796875 162.58984375 C53.26618425 175.64887676 60.57151338 188.02155607 68.6796875 199.6640625 C69.78125 201.4765625 69.78125 201.4765625 69.78125 203.4765625 C70.44125 203.4765625 71.10125 203.4765625 71.78125 203.4765625 C72.11125 204.7965625 72.44125 206.1165625 72.78125 207.4765625 C73.44125 207.4765625 74.10125 207.4765625 74.78125 207.4765625 C76.33203125 209.0859375 76.33203125 209.0859375 78.09375 211.2265625 C80.22853299 213.75882601 82.0975328 215.72555108 84.71875 217.7890625 C85.399375 218.3459375 86.08 218.9028125 86.78125 219.4765625 C86.78125 220.4665625 86.78125 221.4565625 86.78125 222.4765625 C82.03125 221.6015625 82.03125 221.6015625 79.78125 220.4765625 C79.78125 219.8165625 79.78125 219.1565625 79.78125 218.4765625 C77.80125 217.4865625 77.80125 217.4865625 75.78125 216.4765625 C75.78125 215.8165625 75.78125 215.1565625 75.78125 214.4765625 C75.20117188 214.21488281 74.62109375 213.95320312 74.0234375 213.68359375 C71.65026245 212.4060483 69.9011657 210.97070303 67.90625 209.1640625 C65.54858957 207.04609029 63.20105833 205.01477729 60.71875 203.0390625 C57.02283012 199.81496218 53.90784547 196.24560909 50.78125 192.4765625 C50.13929688 191.73019531 49.49734375 190.98382813 48.8359375 190.21484375 C46.3276029 186.87198718 44.44576427 183.36900214 42.53125 179.6640625 C42.16773438 178.97119141 41.80421875 178.27832031 41.4296875 177.56445312 C40.54208113 175.8709936 39.66099115 174.17412126 38.78125 172.4765625 C38.59949219 173.70632813 38.41773438 174.93609375 38.23046875 176.203125 C37.97708861 177.83601922 37.72315292 179.46882731 37.46875 181.1015625 C37.35080078 181.90980469 37.23285156 182.71804688 37.11132812 183.55078125 C36.35215787 188.33939361 35.37452339 192.28593618 32.78125 196.4765625 C28.44804269 199.43102203 24.96627419 200.19173825 19.78125 199.4765625 C11.90847043 196.25587995 6.73306929 189.86154405 3.33984375 182.23828125 C2.01456253 178.6817803 0.86734707 175.11279956 -0.21875 171.4765625 C-0.53972656 170.50460937 -0.86070312 169.53265625 -1.19140625 168.53125 C-6.9401011 148.47766331 -2.55582486 128.56484229 3.25219727 109.12011719 C3.79366709 106.41451715 3.75988908 105.02441699 2.78125 102.4765625 C1.38626583 100.58088058 1.38626583 100.58088058 -0.34375 98.6640625 C-9.7953963 86.83500824 -15.15972932 70.28110613 -19.03125 55.7890625 C-21.25941319 48.3311609 -25.54413712 42.59635892 -30.21875 36.4765625 C-31.04656109 35.37443945 -31.87338776 34.27157629 -32.69921875 33.16796875 C-34.21416474 31.14886455 -35.73783467 29.13625131 -37.2734375 27.1328125 C-41.53530674 21.31339265 -43.35632108 17.2388127 -43.40625 10.0390625 C-43.42042969 9.11222656 -43.43460937 8.18539062 -43.44921875 7.23046875 C-43.12472676 3.35306444 -42.25010565 0.59987034 -39.59765625 -2.2890625 C-38.99824219 -2.77890625 -38.39882813 -3.26875 -37.78125 -3.7734375 C-37.18441406 -4.27359375 -36.58757812 -4.77375 -35.97265625 -5.2890625 C-25.35486616 -12.76171655 -10.12730286 -4.79326228 0 0 Z " fill="#02748C" transform="translate(481.21875,142.5234375)"/>
<path d="M0 0 C-1.73982995 5.81261371 -3.8110489 10.83169994 -7 16 C-7.54785156 15.81824219 -8.09570312 15.63648438 -8.66015625 15.44921875 C-22.81844118 10.96000646 -38.85076117 6.43071054 -53 13 C-58.02354444 15.79085802 -60.64967287 18.44004665 -62.6875 23.8125 C-63.7070794 30.94955578 -63.28126594 36.1021102 -59 42 C-52.19926663 49.55784626 -43.85081321 54.28762164 -35 59 C-33.20772927 59.97806054 -31.41602051 60.95715193 -29.625 61.9375 C-28.75875 62.40800781 -27.8925 62.87851562 -27 63.36328125 C-23.2002933 65.43629832 -19.40836834 67.52231864 -15.625 69.625 C-14.94646973 69.9974585 -14.26793945 70.36991699 -13.56884766 70.75366211 C-4.654128 75.72877929 3.40756973 82.56863368 7.28125 92.26953125 C10.57238773 104.7722773 10.14528454 119.91955901 3.9375 131.3125 C-1.75174097 140.1467251 -8.48122937 146.54852316 -18 151 C-19.134375 151.556875 -20.26875 152.11375 -21.4375 152.6875 C-39.2079952 159.23452455 -61.74395727 158.06428429 -78.91015625 150.28125 C-84.10307469 147.8006865 -89.08901795 144.99761242 -94 142 C-93.57664615 135.50857435 -91.08900201 130.66507011 -88 125 C-84.6162676 125.71824509 -81.65714312 126.97465426 -78.5 128.375 C-65.33822077 133.85245939 -50.54750041 137.07235309 -36.6875 132.125 C-35.10797168 131.4554982 -33.54257422 130.75073772 -32 130 C-31.26394531 129.66097656 -30.52789062 129.32195312 -29.76953125 128.97265625 C-27.40044018 127.67044063 -27.0707068 126.47600947 -26 124 C-24.948125 122.453125 -24.948125 122.453125 -23.875 120.875 C-21.30832916 116.34216245 -21.12079577 112.08071116 -22 107 C-25.73241078 96.45636954 -34.96024622 90.63498544 -44.3125 85.4375 C-45.14483154 84.96570313 -45.97716309 84.49390625 -46.8347168 84.0078125 C-49.21739254 82.66125409 -51.60695135 81.32801627 -54 80 C-55.1446875 79.36191406 -56.289375 78.72382813 -57.46875 78.06640625 C-61.93040131 75.60882084 -66.4194684 73.22836672 -71 71 C-71 70.34 -71 69.68 -71 69 C-71.99 68.7215625 -71.99 68.7215625 -73 68.4375 C-80.79084008 64.70438913 -86.87278982 58.07043213 -90.19140625 50.16015625 C-94.67571259 37.26972862 -94.01842152 25.62158189 -89 13 C-88.02429138 10.9880376 -87.03059318 8.98440865 -86 7 C-85.34 7 -84.68 7 -84 7 C-83.7421875 6.41089844 -83.484375 5.82179688 -83.21875 5.21484375 C-79.25466209 -1.9891237 -71.25517304 -5.85362394 -64 -9 C-63.05125 -9.4125 -62.1025 -9.825 -61.125 -10.25 C-39.38757912 -15.46698101 -18.90710055 -10.85633515 0 0 Z " fill="#F19111" transform="translate(421,418)"/>
<path d="M0 0 C9.24 0 18.48 0 28 0 C29.485 4.455 29.485 4.455 31 9 C31.47179687 10.38058594 31.94359375 11.76117188 32.4296875 13.18359375 C35.20180571 21.31659716 37.73657525 29.45946962 39.96435547 37.7578125 C41.7705073 44.38651743 43.87158838 50.90612507 46 57.4375 C49.90884801 69.46423184 53.56912756 81.57643376 56 94 C64.5679444 66.22753004 72.1105352 38.7791811 75.99804688 9.91796875 C76.11470703 9.06203125 76.23136719 8.20609375 76.3515625 7.32421875 C76.50359131 6.1808606 76.50359131 6.1808606 76.65869141 5.0144043 C77 3 77 3 78 0 C86.91 0 95.82 0 105 0 C104.36507574 6.98416681 103.68940732 13.42202759 102.1875 20.1875 C102.01226807 20.99775635 101.83703613 21.8080127 101.65649414 22.64282227 C100.20782535 29.25653507 98.61169576 35.82983603 96.92578125 42.38671875 C96.36566556 44.57282429 95.81776185 46.76217836 95.29296875 48.95703125 C90.05066281 70.87661456 83.20174021 92.86241601 73 113 C72.68417969 113.63276855 72.36835938 114.26553711 72.04296875 114.91748047 C65.64861244 127.65842649 57.94490486 138.71275762 48 149 C47.30261719 149.72316406 46.60523438 150.44632813 45.88671875 151.19140625 C36.45551624 160.27777503 25.22197822 164.34896389 12.29296875 164.30078125 C6.82229159 163.80108713 2.1182543 161.94981116 -3 160 C-3 154.39 -3 148.78 -3 143 C-1.73285156 143.04640625 -0.46570313 143.0928125 0.83984375 143.140625 C15.44635591 143.54615499 15.44635591 143.54615499 27.875 136.5625 C29.89652498 134.12477871 31.500577 131.78464272 33 129 C33.34933594 128.36835937 33.69867188 127.73671875 34.05859375 127.0859375 C38.87715 116.40913651 30.84354772 100.16898274 27.24609375 89.73046875 C26.30694019 86.91889619 25.4291079 84.11469633 24.58984375 81.2734375 C22.90865397 75.61287846 21.01925013 70.02963808 19.125 64.4375 C16.49715427 56.62594214 13.99317654 48.80315858 11.72314453 40.88061523 C10.42699541 36.37909481 9.00409858 31.93778931 7.5 27.5 C5.62276686 21.9457737 3.85862394 16.36975107 2.1875 10.75 C1.96835938 10.02232422 1.74921875 9.29464844 1.5234375 8.54492188 C0.65660664 5.59490073 0 3.09212198 0 0 Z " fill="#01748E" transform="translate(206,451)"/>
<path d="M0 0 C9.24 0 18.48 0 28 0 C28 46.86 28 93.72 28 142 C44.83 142 61.66 142 79 142 C79 149.26 79 156.52 79 164 C52.93 164 26.86 164 0 164 C0 109.88 0 55.76 0 0 Z " fill="#F19111" transform="translate(593,408)"/>
<path d="M0 0 C2.31 0 4.62 0 7 0 C8.65 3.3 10.3 6.6 12 10 C13.32 6.7 14.64 3.4 16 0 C18.64 0 21.28 0 24 0 C24 7.26 24 14.52 24 22 C22.02 22 20.04 22 18 22 C17.67 19.69 17.34 17.38 17 15 C16.01 17.31 15.02 19.62 14 22 C12.35 22 10.7 22 9 22 C8.01 19.36 7.02 16.72 6 14 C5.67 16.64 5.34 19.28 5 22 C3.35 22 1.7 22 0 22 C0 14.74 0 7.48 0 0 Z " fill="#EF9113" transform="translate(703,550)"/>
<path d="M0 0 C3.33048034 0.05842948 5.57118839 0.37157134 8.3125 2.3125 C11.56028616 6.29103804 12.05969966 9.32114027 11.8125 14.375 C11.125 17.375 11.125 17.375 9.8125 19.375 C7.73046875 20 7.73046875 20 5.8125 20.375 C5.42578125 19.62734375 5.0390625 18.8796875 4.640625 18.109375 C4.11984375 17.12453125 3.5990625 16.1396875 3.0625 15.125 C2.55203125 14.15046875 2.0415625 13.1759375 1.515625 12.171875 C-0.13954062 9.45375898 -1.90798514 7.567768 -4.1875 5.375 C-5 3.1875 -5 3.1875 -5.1875 1.375 C-3.63766739 -0.17483261 -2.15081622 0.09367039 0 0 Z " fill="#06748D" transform="translate(500.1875,183.625)"/>
<path d="M0 0 C5.94 0 11.88 0 18 0 C18 1.98 18 3.96 18 6 C16.02 6 14.04 6 12 6 C12 11.28 12 16.56 12 22 C10.35 22 8.7 22 7 22 C7 16.72 7 11.44 7 6 C4.69 6 2.38 6 0 6 C0 4.02 0 2.04 0 0 Z " fill="#EF9211" transform="translate(682,550)"/>
<path d="M0 0 C5.94 0 11.88 0 18 0 C18 1.98 18 3.96 18 6 C16.02 6 14.04 6 12 6 C12 11.28 12 16.56 12 22 C10.35 22 8.7 22 7 22 C8.32 21.67 9.64 21.34 11 21 C10.67 14.4 10.34 7.8 10 1 C7.03 1 4.06 1 1 1 C1 2.32 1 3.64 1 5 C2.65 5 4.3 5 6 5 C6 5.33 6 5.66 6 6 C4.02 6 2.04 6 0 6 C0 4.02 0 2.04 0 0 Z " fill="#DF9528" transform="translate(682,550)"/>
<path d="M0 0 C0.48210938 0.42152344 0.96421875 0.84304688 1.4609375 1.27734375 C2.09257813 1.82519531 2.72421875 2.37304688 3.375 2.9375 C4.00148438 3.48277344 4.62796875 4.02804687 5.2734375 4.58984375 C6.95632334 6.06958624 6.95632334 6.06958624 9 7 C9 7.99 9 8.98 9 10 C4.25 9.125 4.25 9.125 2 8 C2 7.34 2 6.68 2 6 C1.01 5.67 0.02 5.34 -1 5 C-0.67 3.35 -0.34 1.7 0 0 Z " fill="#047484" transform="translate(559,355)"/>
<path d="M0 0 C0.99 0 1.98 0 3 0 C5.21545056 2.21545056 5.57084658 2.96943507 6 6 C5.66015625 8.796875 5.66015625 8.796875 5.0625 11.75 C4.86785156 12.73484375 4.67320312 13.7196875 4.47265625 14.734375 C4.31667969 15.48203125 4.16070312 16.2296875 4 17 C3.67 17 3.34 17 3 17 C2.86722656 16.10796875 2.73445313 15.2159375 2.59765625 14.296875 C2.42105469 13.12640625 2.24445313 11.9559375 2.0625 10.75 C1.88847656 9.58984375 1.71445312 8.4296875 1.53515625 7.234375 C1.1272264 4.76893039 0.66098697 2.40575438 0 0 Z " fill="#077384" transform="translate(304,456)"/>
<path d="M0 0 C0 2.97 0 5.94 0 9 C-1.65 9 -3.3 9 -5 9 C-5.1875 5.625 -5.1875 5.625 -5 2 C-2 0 -2 0 0 0 Z " fill="#E7931F" transform="translate(708,563)"/>
<path d="M0 0 C2.97 0.99 5.94 1.98 9 3 C7.25 4.5625 7.25 4.5625 5 6 C2.75 5.6875 2.75 5.6875 1 5 C0.67 3.35 0.34 1.7 0 0 Z " fill="#E89418" transform="translate(401,409)"/>
<path d="M0 0 C0.99 0.33 1.98 0.66 3 1 C2.01 3.97 1.02 6.94 0 10 C-0.66 9.67 -1.32 9.34 -2 9 C-2.20140476 5.37471432 -1.85776765 3.13498292 0 0 Z " fill="#E49521" transform="translate(418,417)"/>
<path d="M0 0 C5 2 5 2 10 4 C10 4.33 10 4.66 10 5 C7.03 4.67 4.06 4.34 1 4 C0.67 2.68 0.34 1.36 0 0 Z " fill="#EA921E" transform="translate(484,546)"/>
<path d="M0 0 C2.5 1.3125 2.5 1.3125 5 3 C5 3.99 5 4.98 5 6 C3.35 5.67 1.7 5.34 0 5 C0 3.35 0 1.7 0 0 Z " fill="#0F707D" transform="translate(563,359)"/>
</svg>
