<?xml version="1.0" encoding="UTF-8"?>
<svg version="1.1" xmlns="http://www.w3.org/2000/svg" width="256" height="256">
<path d="M0 0 C3.46649453 1.81818786 6.78979712 3.80070798 10.09912109 5.88476562 C11.32229379 6.6232068 12.54726422 7.35867757 13.77392578 8.09130859 C16.23923485 9.56952297 18.69388794 11.06321184 21.14013672 12.57275391 C25.12184216 15.02702083 29.15160035 17.39628437 33.18701172 19.76098633 C35.85625566 21.32644992 38.51747326 22.90483499 41.17724609 24.48632812 C46.96598225 27.92193669 52.78154377 31.31079623 58.59912109 34.69726562 C61.59247331 36.44243311 64.5854186 38.18829559 67.578125 39.93457031 C69.62434184 41.12849997 71.67090178 42.32184175 73.71777344 43.51464844 C76.74319153 45.27967346 79.76529874 47.05024089 82.78662109 48.82226562 C83.70121094 49.35464844 84.61580078 49.88703125 85.55810547 50.43554688 C93.2023653 54.93081078 99.42606423 58.74476174 102.19971848 67.61882401 C102.64583077 69.94033696 102.7310543 72.08794322 102.73956299 74.45233154 C102.74527313 75.40548248 102.75098328 76.35863342 102.75686646 77.34066772 C102.75854324 78.89921982 102.75854324 78.89921982 102.76025391 80.48925781 C102.76521881 81.58889862 102.77018372 82.68853943 102.77529907 83.82150269 C102.78991372 87.46238835 102.79672178 91.10323044 102.80224609 94.74414062 C102.80799837 97.27516684 102.81375609 99.80619305 102.81951904 102.33721924 C102.8286843 106.9681547 102.83498524 111.59907709 102.83801579 116.23001933 C102.84249232 123.03200772 102.86002429 129.83379474 102.88901639 136.63572192 C102.91329851 142.53889819 102.92096309 148.44202469 102.92269135 154.34525299 C102.92571511 156.85063014 102.93373429 159.35600651 102.94687653 161.86135101 C102.96396846 165.37028672 102.96204869 168.87873464 102.95556641 172.38769531 C102.96478119 173.41863312 102.97399597 174.44957092 102.98348999 175.51174927 C102.94185065 182.72258357 101.78295846 188.05933854 98.02099609 194.32617188 C94.4060651 197.86530593 90.2307855 200.14712086 85.84912109 202.63476562 C84.87467041 203.19905273 83.90021973 203.76333984 82.89624023 204.34472656 C80.83415298 205.53829802 78.76972379 206.72783137 76.703125 207.91357422 C72.77389514 210.17147522 68.86136329 212.45729436 64.94921875 214.74462891 C61.97093145 216.48566626 58.99030103 218.22263703 56.00927734 219.95898438 C49.61264258 223.68728015 43.22219441 227.42606783 36.83444214 231.16955566 C35.59927224 231.89340628 34.36402304 232.6171216 33.12869263 233.34069824 C26.73352933 237.08689736 20.3446478 240.84284914 13.97412109 244.63085938 C12.44779053 245.53759399 12.44779053 245.53759399 10.890625 246.46264648 C8.99552646 247.58977482 7.10188558 248.7193589 5.20996094 249.85180664 C4.37674316 250.34737061 3.54352539 250.84293457 2.68505859 251.35351562 C1.96366699 251.78470703 1.24227539 252.21589844 0.49902344 252.66015625 C-5.11320373 255.7237313 -11.21522455 255.59590397 -17.40087891 254.69726562 C-22.69311286 252.52148294 -27.39090395 249.62660408 -32.21337891 246.57226562 C-33.4820241 245.80150076 -34.75220342 245.03325518 -36.02392578 244.26757812 C-42.39920728 240.39488038 -48.52962876 236.30881217 -54.40087891 231.69726562 C-53.40087891 228.69726562 -53.40087891 228.69726562 -50.92431641 227.34570312 C-49.88533203 226.92546875 -48.84634766 226.50523437 -47.77587891 226.07226562 C-46.75236328 225.646875 -45.72884766 225.22148437 -44.67431641 224.78320312 C-36.06828099 221.92821763 -36.06828099 221.92821763 -31.88232422 223.85888672 C-28.97629003 225.56014253 -26.15287056 227.34854937 -23.33837891 229.19726562 C-21.42002211 230.45231318 -19.49188844 231.69257288 -17.55322266 232.91601562 C-16.70751709 233.47224609 -15.86181152 234.02847656 -14.99047852 234.6015625 C-11.62654357 236.02489992 -9.88996398 235.68214279 -6.40087891 234.69726562 C-3.71000411 233.48679096 -3.71000411 233.48679096 -1.07666016 231.88085938 C-0.06216797 231.28982422 0.95232422 230.69878906 1.99755859 230.08984375 C3.08294922 229.44466797 4.16833984 228.79949219 5.28662109 228.13476562 C6.44111415 227.4575573 7.59607161 226.78114013 8.75146484 226.10546875 C12.37494102 223.98214717 15.98746112 221.84060354 19.59912109 219.69726562 C20.7330127 219.0258252 21.8669043 218.35438477 23.03515625 217.66259766 C27.51007863 215.01245135 31.98408469 212.36081738 36.45336914 209.70117188 C42.17927589 206.29745458 47.91855905 202.92038467 53.69287109 199.59960938 C54.27524536 199.26466461 54.85761963 198.92971985 55.4576416 198.58462524 C58.22290393 196.9958326 60.99065863 195.41154812 63.76123047 193.83203125 C64.75960937 193.26033203 65.75798828 192.68863281 66.78662109 192.09960938 C68.07632813 191.3647229 68.07632813 191.3647229 69.39208984 190.61499023 C70.45041016 189.98214111 71.50873047 189.34929199 72.59912109 188.69726562 C73.51062927 188.3975737 74.42213745 188.09788177 75.36126709 187.78910828 C79.13114196 186.19942109 81.03854462 184.92735109 83.59912109 181.69726562 C85.82616369 173.85702468 85.09592347 165.22582051 84.98974609 157.16210938 C84.99207779 154.72025475 84.99796894 152.27840116 85.00726318 149.83656311 C85.01444863 144.72411974 84.98295395 139.61379858 84.92333984 134.50170898 C84.84942903 127.95123558 84.86480618 121.40465137 84.90823746 114.85402584 C84.9329968 109.81368417 84.91396317 104.77424864 84.88134003 99.73398018 C84.87031405 97.31909146 84.87208505 94.90410904 84.88690948 92.48924065 C84.90036735 89.11240874 84.85573083 85.74120404 84.79541016 82.36499023 C84.81048615 81.36897797 84.82556213 80.3729657 84.84109497 79.34677124 C84.68012521 73.9856553 84.68012521 73.9856553 81.63005352 69.7749052 C79.34393713 68.23095848 77.06211401 66.93488355 74.59912109 65.69726562 C73.52895752 65.05587646 72.45879395 64.4144873 71.35620117 63.75366211 C70.37031006 63.19751221 69.38441895 62.6413623 68.36865234 62.06835938 C66.68690918 61.11485596 66.68690918 61.11485596 64.97119141 60.14208984 C64.10089294 59.65141022 64.10089294 59.65141022 63.2130127 59.15081787 C60.09889669 57.39433996 56.99161503 55.62585559 53.88427734 53.85742188 C53.26120697 53.50301025 52.6381366 53.14859863 51.9961853 52.78344727 C45.52746994 49.09778757 39.11934027 45.31241906 32.71899414 41.50952148 C24.74661355 36.77410266 16.73703652 32.10397559 8.71533203 27.45263672 C7.77206055 26.90430176 6.82878906 26.3559668 5.85693359 25.79101562 C4.95749023 25.27023438 4.05804688 24.74945312 3.13134766 24.21289062 C0.78910035 22.81097477 -1.45896757 21.31702545 -3.72119141 19.79101562 C-7.18804879 17.65844217 -9.27059217 16.81737998 -13.40087891 17.69726562 C-16.84812018 19.32884445 -20.0435346 21.30388128 -23.27587891 23.32226562 C-25.26098507 24.52893452 -27.24668222 25.73463161 -29.23291016 26.93945312 C-30.25465332 27.56432617 -31.27639648 28.18919922 -32.32910156 28.83300781 C-37.16898999 31.77033002 -42.06604651 34.60713273 -46.96337891 37.44726562 C-48.96366753 38.61213473 -50.96366001 39.7775125 -52.96337891 40.94335938 C-53.99591797 41.54519043 -55.02845703 42.14702148 -56.09228516 42.76708984 C-81.66249515 55.52723324 -81.66249515 55.52723324 -104.40087891 71.69726562 C-104.52447246 73.10770411 -104.58036182 74.52415115 -104.60861206 75.93971252 C-104.6287738 76.85508286 -104.64893555 77.77045319 -104.66970825 78.71356201 C-104.68653656 79.72597961 -104.70336487 80.73839722 -104.72070312 81.78149414 C-104.74173096 82.84168259 -104.76275879 83.90187103 -104.78442383 84.9941864 C-104.967509 94.79247005 -105.07346837 104.59196354 -105.15656853 114.39155674 C-105.21320409 120.97946439 -105.2947977 127.56493825 -105.43652344 134.15161133 C-105.57287011 140.51374226 -105.64538768 146.87366504 -105.67322159 153.23716545 C-105.69469972 155.66189838 -105.73876246 158.08654145 -105.80593491 160.51043892 C-106.7289762 172.49204377 -106.7289762 172.49204377 -103.12942123 183.48261833 C-99.68349619 186.64883044 -95.80015841 188.16044909 -91.40087891 189.69726562 C-89.97096941 190.49256738 -88.55722046 191.31887528 -87.17431641 192.19335938 C-86.05283203 192.83402344 -84.93134766 193.4746875 -83.77587891 194.13476562 C-83.19193359 194.47185547 -82.60798828 194.80894531 -82.00634766 195.15625 C-76.07113653 198.54488885 -71.18263115 199.49766382 -64.40087891 198.69726562 C-60.84407719 196.59221971 -59.70618955 195.61319755 -58.40087891 191.69726562 C-58.30241891 190.1642649 -58.2590224 188.62740724 -58.24938965 187.09127808 C-58.24104599 186.14621399 -58.23270233 185.2011499 -58.22410583 184.22744751 C-58.21992142 183.19252167 -58.215737 182.15759583 -58.21142578 181.09130859 C-58.20313248 180.0000769 -58.19483917 178.90884521 -58.18629456 177.7845459 C-58.1688834 175.41261121 -58.15371951 173.04065921 -58.14051819 170.66869736 C-58.11952658 166.92118536 -58.09250254 163.17376073 -58.06384277 159.42630005 C-57.99902241 150.79778817 -57.94316775 142.16922593 -57.88785553 133.54064941 C-57.83301836 125.00029831 -57.77437939 116.45999059 -57.70899963 107.91971207 C-57.68232314 104.21641681 -57.66157237 100.51311738 -57.64099121 96.80978394 C-57.62439706 94.55466499 -57.60752601 92.29954805 -57.59033203 90.04443359 C-57.58614761 89.00545929 -57.5819632 87.96648499 -57.57765198 86.89602661 C-57.56930832 85.95660217 -57.56096466 85.01717773 -57.55236816 84.04928589 C-57.54721443 83.22817762 -57.5420607 82.40706936 -57.53675079 81.56107903 C-57.40087891 79.69726562 -57.40087891 79.69726562 -56.40087891 78.69726562 C-53.72356511 78.59745349 -51.07783716 78.55846687 -48.40087891 78.57226562 C-47.65064453 78.56839844 -46.90041016 78.56453125 -46.12744141 78.56054688 C-40.52748944 78.57065509 -40.52748944 78.57065509 -39.40087891 79.69726562 C-39.29643087 81.20534904 -39.26125245 82.71828798 -39.25370789 84.22996521 C-39.24655258 85.20975845 -39.23939728 86.1895517 -39.23202515 87.19903564 C-39.22933624 88.28311707 -39.22664734 89.36719849 -39.22387695 90.48413086 C-39.21730576 91.61913528 -39.21073456 92.75413971 -39.20396423 93.92353821 C-39.18416489 97.70097919 -39.17255076 101.4783802 -39.16259766 105.25585938 C-39.15852213 106.54430315 -39.1544466 107.83274693 -39.15024757 109.16023445 C-39.13151145 115.28129278 -39.11695651 121.40233102 -39.1086356 127.52341217 C-39.09888945 134.57619774 -39.07264699 141.62866725 -39.03213471 148.68134159 C-38.99821618 154.7975603 -38.98648027 160.91364739 -38.98243141 167.02995491 C-38.97756678 169.62579546 -38.96595643 172.22163268 -38.94739342 174.81741142 C-38.92297136 178.46047691 -38.92397384 182.10272682 -38.9309082 185.74584961 C-38.91809814 186.81171295 -38.90528809 187.87757629 -38.89208984 188.97573853 C-38.95155222 197.58338033 -40.76341379 204.93417078 -46.46337891 211.57226562 C-53.30064989 217.71274466 -61.9098741 219.52744035 -70.91113281 219.11669922 C-81.80222266 217.80769598 -91.62630532 211.61862687 -100.90087891 206.13476562 C-102.04041016 205.47541016 -103.17994141 204.81605469 -104.35400391 204.13671875 C-120.14764713 194.91449163 -120.14764713 194.91449163 -123.00105572 185.7748661 C-123.44674184 183.45894814 -123.53581669 181.31443357 -123.54804993 178.95565796 C-123.55520523 178.00539734 -123.56236053 177.05513672 -123.56973267 176.07608032 C-123.57376602 174.52224136 -123.57376602 174.52224136 -123.57788086 172.93701172 C-123.58445206 171.8405835 -123.59102325 170.74415527 -123.59779358 169.61450195 C-123.61751546 165.98323497 -123.62918763 162.35200935 -123.63916016 158.72070312 C-123.64323568 157.47914082 -123.64731121 156.23757851 -123.65151024 154.9583931 C-123.67021789 149.06266823 -123.68478346 143.16695646 -123.69312221 137.27120912 C-123.70287933 130.48616084 -123.72916237 123.70144011 -123.7696231 116.91650712 C-123.80354452 111.024009 -123.81527734 105.13161968 -123.8193264 99.23903275 C-123.8241882 96.74087938 -123.83579046 94.2427294 -123.8543644 91.74464035 C-123.87879421 88.24079318 -123.87778308 84.73779355 -123.87084961 81.23388672 C-123.88365967 80.21013947 -123.89646973 79.18639221 -123.90966797 78.13162231 C-123.85305371 70.24602343 -122.44465097 62.99997817 -116.96728516 57.05664062 C-115.80760885 56.22783548 -114.61234932 55.44833589 -113.40087891 54.69726562 C-112.49966309 54.13845703 -111.59844727 53.57964844 -110.66992188 53.00390625 C-107.24986831 50.94273436 -103.79840831 48.94012047 -100.33837891 46.94726562 C-99.04742673 46.19810128 -97.75682428 45.44833401 -96.46655273 44.69799805 C-93.78518615 43.13929154 -91.10233598 41.58318479 -88.41845703 40.02880859 C-82.73265164 36.73288577 -77.06709679 33.40253593 -71.40045166 30.07382202 C-63.85073645 25.64059894 -56.29447195 21.2184966 -48.73681641 16.79882812 C-47.68518311 16.18370361 -46.6335498 15.5685791 -45.55004883 14.93481445 C-43.5240424 13.75331122 -41.49562886 12.57592405 -39.46459961 11.40307617 C-35.35410686 9.02814816 -31.27165798 6.64741301 -27.29541016 4.05273438 C-26.68753662 3.66867432 -26.07966309 3.28461426 -25.45336914 2.88891602 C-23.95020664 1.93311381 -22.46703714 0.94603822 -20.98681641 -0.04492188 C-14.01912002 -2.48892867 -6.93714938 -2.65733159 0 0 Z " fill="#82B239" transform="translate(138.40087890625,1.302734375)"/>
<path d="M0 0 C1.01416992 0.00563965 2.02833984 0.0112793 3.07324219 0.01708984 C15.7989858 0.22273786 28.12602938 2.28481759 37.84765625 11.24609375 C42.82674119 17.0074553 45.43492629 23.84752276 46.75 31.3125 C46.46875 34.140625 46.46875 34.140625 45.75 36.3125 C42.79969611 37.78765195 40.09504661 37.59942341 36.8125 37.6875 C35.56597656 37.73648438 34.31945312 37.78546875 33.03515625 37.8359375 C29.75 37.3125 29.75 37.3125 27.9296875 35.046875 C27.54039062 34.14453125 27.15109375 33.2421875 26.75 32.3125 C26.24146484 31.25675781 26.24146484 31.25675781 25.72265625 30.1796875 C25.27212891 29.19355469 25.27212891 29.19355469 24.8125 28.1875 C22.56383519 23.69017038 20.6056788 21.97984973 15.828125 20.26171875 C10.72217682 18.84696907 5.57461131 18.98308003 0.3125 19 C-0.68587891 18.98388672 -1.68425781 18.96777344 -2.71289062 18.95117188 C-9.53862303 18.94668421 -15.8113446 19.4111345 -21.25 24 C-22.8591538 27.72116817 -22.76471448 30.25912351 -22.25 34.3125 C-18.12487201 37.72271537 -13.24494029 38.37130917 -8.125 39.3125 C-6.8090686 39.56676758 -6.8090686 39.56676758 -5.46655273 39.82617188 C-0.23196149 40.81922185 5.01333869 41.67660259 10.28344727 42.45654297 C36.81785443 46.3853706 36.81785443 46.3853706 45.625 56.3125 C50.73942459 63.53286412 50.83861938 71.7584473 49.75 80.3125 C47.8826614 86.42378996 44.70791137 91.25602706 39.75 95.3125 C39.17121094 95.80363281 38.59242188 96.29476562 37.99609375 96.80078125 C24.45437846 107.15621059 4.45109381 107.124814 -11.74169922 104.98291016 C-24.36168862 102.76949181 -34.06241231 98.16370083 -41.9375 87.9375 C-45.7413523 82.38722494 -46.46606739 76.80979598 -46.61328125 70.23046875 C-46.49339844 69.59753906 -46.37351562 68.96460938 -46.25 68.3125 C-42.69223788 65.94065858 -40.96979393 66.01425606 -36.75 66 C-35.6053125 65.98324219 -34.460625 65.96648437 -33.28125 65.94921875 C-30.25 66.3125 -30.25 66.3125 -28.4296875 67.5234375 C-26.97936278 69.72293658 -26.4686489 71.68651613 -25.875 74.25 C-24.95176852 77.4742805 -24.38206325 79.15642525 -22.1875 81.75 C-14.03141731 86.08834186 -5.92387338 86.81100128 3.1875 86.75 C4.24259766 86.76998047 5.29769531 86.78996094 6.38476562 86.81054688 C13.71756145 86.80603439 20.17639923 85.70767259 26.75 82.3125 C29.43903796 79.02589805 30 76.33908211 30 72.1875 C29.53740807 69.8065121 29.13383236 68.66346273 27.3359375 67.01953125 C18.71667938 62.53820382 7.59325486 62.22931178 -1.89599609 60.95800781 C-31.36578497 56.98956179 -31.36578497 56.98956179 -38.75 47.35546875 C-43.42236371 40.20091182 -43.97303445 33.80029573 -43.25 25.3125 C-41.51759872 17.61048665 -37.53168679 12.02901734 -31.25 7.3125 C-21.27769825 1.532095 -11.37739532 -0.06612568 0 0 Z " fill="#84B43A" transform="translate(153.25,76.6875)"/>
<path d="M0 0 C1.1446875 -0.01675781 2.289375 -0.03351563 3.46875 -0.05078125 C6.5 0.3125 6.5 0.3125 8.3203125 1.5234375 C9.77063722 3.72293658 10.2813511 5.68651613 10.875 8.25 C11.79823148 11.4742805 12.36793675 13.15642525 14.5625 15.75 C22.20211533 19.81362518 29.95636481 20.76483108 38.5 21.3125 C38.5 27.2525 38.5 33.1925 38.5 39.3125 C24.70056512 40.07913527 10.42509357 37.15689899 -0.25 27.9375 C-6.69037321 20.42373125 -9.63739698 14.32575787 -9.86328125 4.23046875 C-9.74339844 3.59753906 -9.62351562 2.96460938 -9.5 2.3125 C-5.94223788 -0.05934142 -4.21979393 0.01425606 0 0 Z " fill="#7BA837" transform="translate(116.5,142.6875)"/>
<path d="M0 0 C6.40007827 5.89951349 9.50345239 13.50489149 11 22 C10.71875 24.828125 10.71875 24.828125 10 27 C7.04969611 28.47515195 4.34504661 28.28692341 1.0625 28.375 C-0.18402344 28.42398438 -1.43054688 28.47296875 -2.71484375 28.5234375 C-6 28 -6 28 -7.8203125 25.734375 C-8.20960938 24.83203125 -8.59890625 23.9296875 -9 23 C-9.33902344 22.29617187 -9.67804688 21.59234375 -10.02734375 20.8671875 C-10.32769531 20.20976563 -10.62804687 19.55234375 -10.9375 18.875 C-13.25147293 14.24705413 -15.26295269 12.61307552 -20.1875 10.875 C-23.88563895 10.0262468 -27.40390643 9.59973516 -31.1796875 9.34375 C-31.78039062 9.2303125 -32.38109375 9.116875 -33 9 C-34.50156874 5.99686252 -34.09281204 3.20932478 -34.0625 -0.125 C-34.05347656 -1.40632813 -34.04445312 -2.68765625 -34.03515625 -4.0078125 C-34.02355469 -4.99523437 -34.01195312 -5.98265625 -34 -7 C-36.31 -7 -38.62 -7 -41 -7 C-41 -7.33 -41 -7.66 -41 -8 C-26.64123663 -10.49717624 -12.05129887 -8.77334557 0 0 Z " fill="#8DBF3E" transform="translate(189,86)"/>
<path d="M0 0 C0.33 0 0.66 0 1 0 C1 36.63 1 73.26 1 111 C0.67 111 0.34 111 0 111 C0 74.37 0 37.74 0 0 Z " fill="#7CA63D" transform="translate(79,81)"/>
<path d="M0 0 C0.33 0 0.66 0 1 0 C1 36.3 1 72.6 1 110 C0.67 110 0.34 110 0 110 C0 73.7 0 37.4 0 0 Z " fill="#7CA433" transform="translate(34,73)"/>
<path d="M0 0 C0.33 0 0.66 0 1 0 C1 36.3 1 72.6 1 110 C0.67 110 0.34 110 0 110 C0 73.7 0 37.4 0 0 Z " fill="#88BF41" transform="translate(221,73)"/>
<path d="M0 0 C0.99 0.33 1.98 0.66 3 1 C3.33 4.63 3.66 8.26 4 12 C1.11376003 8.74134196 -0.64299639 6.4030445 -1 2 C-0.67 1.34 -0.34 0.68 0 0 Z " fill="#7FA83E" transform="translate(17,184)"/>
<path d="M0 0 C6.6 0 13.2 0 20 0 C20 0.33 20 0.66 20 1 C13.4 1 6.8 1 0 1 C0 0.67 0 0.34 0 0 Z " fill="#8CA66F" transform="translate(146,183)"/>
<path d="M0 0 C6.27 0 12.54 0 19 0 C19 0.33 19 0.66 19 1 C12.73 1 6.46 1 0 1 C0 0.67 0 0.34 0 0 Z " fill="#84AE3E" transform="translate(144,75)"/>
<path d="M0 0 C0.33 0 0.66 0 1 0 C1 4.62 1 9.24 1 14 C0.67 14 0.34 14 0 14 C0 9.38 0 4.76 0 0 Z " fill="#90BE42" transform="translate(204,142)"/>
<path d="M0 0 C4.62 0 9.24 0 14 0 C14 0.33 14 0.66 14 1 C9.38 1 4.76 1 0 1 C0 0.67 0 0.34 0 0 Z " fill="#94B562" transform="translate(183,115)"/>
<path d="M0 0 C4.29 0 8.58 0 13 0 C13 0.33 13 0.66 13 1 C8.71 1 4.42 1 0 1 C0 0.67 0 0.34 0 0 Z " fill="#718C46" transform="translate(82,78)"/>
<path d="M0 0 C3.3 0 6.6 0 10 0 C10 0.33 10 0.66 10 1 C6.7 1 3.4 1 0 1 C0 0.67 0 0.34 0 0 Z " fill="#869D5D" transform="translate(66,221)"/>
<path d="M0 0 C3.3 0 6.6 0 10 0 C10 0.33 10 0.66 10 1 C6.7 1 3.4 1 0 1 C0 0.67 0 0.34 0 0 Z " fill="#93B360" transform="translate(158,162)"/>
<path d="M0 0 C3.3 0 6.6 0 10 0 C10 0.33 10 0.66 10 1 C6.7 1 3.4 1 0 1 C0 0.67 0 0.34 0 0 Z " fill="#859F5B" transform="translate(145,162)"/>
<path d="M0 0 C0.33 0 0.66 0 1 0 C1 3.3 1 6.6 1 10 C0.67 10 0.34 10 0 10 C0 6.7 0 3.4 0 0 Z " fill="#849C5B" transform="translate(108,103)"/>
<path d="M0 0 C3.3 0 6.6 0 10 0 C10 0.33 10 0.66 10 1 C6.7 1 3.4 1 0 1 C0 0.67 0 0.34 0 0 Z " fill="#86BA42" transform="translate(154,96)"/>
<path d="M0 0 C0.33 0 0.66 0 1 0 C1 2.64 1 5.28 1 8 C0.67 8 0.34 8 0 8 C0 5.36 0 2.72 0 0 Z " fill="#82A535" transform="translate(105,145)"/>
<path d="M0 0 C0.33 0 0.66 0 1 0 C1 2.64 1 5.28 1 8 C0.67 8 0.34 8 0 8 C0 5.36 0 2.72 0 0 Z " fill="#7DA33F" transform="translate(131,103)"/>
<path d="M0 0 C2.64 0 5.28 0 8 0 C8 0.33 8 0.66 8 1 C5.36 1 2.72 1 0 1 C0 0.67 0 0.34 0 0 Z " fill="#7BA63E" transform="translate(143,96)"/>
<path d="M0 0 C0.33 0 0.66 0 1 0 C1 1.98 1 3.96 1 6 C0.67 6 0.34 6 0 6 C0 4.02 0 2.04 0 0 Z " fill="#7EA53D" transform="translate(100,192)"/>
<path d="M0 0 C1.98 0 3.96 0 6 0 C6 0.33 6 0.66 6 1 C4.02 1 2.04 1 0 1 C0 0.67 0 0.34 0 0 Z " fill="#8CB458" transform="translate(156,139)"/>
<path d="M0 0 C1.98 0 3.96 0 6 0 C6 0.33 6 0.66 6 1 C4.02 1 2.04 1 0 1 C0 0.67 0 0.34 0 0 Z " fill="#7AA539" transform="translate(147,138)"/>
<path d="M0 0 C1.65 0 3.3 0 5 0 C5 0.33 5 0.66 5 1 C3.35 1 1.7 1 0 1 C0 0.67 0 0.34 0 0 Z " fill="#7F9A55" transform="translate(99,222)"/>
<path d="M0 0 C1.65 0 3.3 0 5 0 C5 0.33 5 0.66 5 1 C3.35 1 1.7 1 0 1 C0 0.67 0 0.34 0 0 Z " fill="#98B94D" transform="translate(168,182)"/>
<path d="M0 0 C0 0.99 0 1.98 0 3 C-0.66 2.67 -1.32 2.34 -2 2 C-1.34 1.34 -0.68 0.68 0 0 Z " fill="#8EBF3F" transform="translate(180,156)"/>
<path d="M0 0 C1.65 0 3.3 0 5 0 C5 0.33 5 0.66 5 1 C3.35 1 1.7 1 0 1 C0 0.67 0 0.34 0 0 Z " fill="#7D9F4D" transform="translate(140,137)"/>
<path d="M0 0 C1.65 0 3.3 0 5 0 C5 0.33 5 0.66 5 1 C3.35 1 1.7 1 0 1 C0 0.67 0 0.34 0 0 Z " fill="#91B55E" transform="translate(164,118)"/>
<path d="M0 0 C1.65 0 3.3 0 5 0 C5 0.33 5 0.66 5 1 C3.35 1 1.7 1 0 1 C0 0.67 0 0.34 0 0 Z " fill="#91B84A" transform="translate(157,117)"/>
<path d="M0 0 C1.65 0 3.3 0 5 0 C5 0.33 5 0.66 5 1 C3.35 1 1.7 1 0 1 C0 0.67 0 0.34 0 0 Z " fill="#89AD44" transform="translate(125,19)"/>
<path d="M0 0 C4 1 4 1 4 1 Z " fill="#87B14E" transform="translate(126,236)"/>
<path d="M0 0 C4 1 4 1 4 1 Z " fill="#7DA635" transform="translate(70,199)"/>
<path d="M0 0 C4 1 4 1 4 1 Z " fill="#7DA340" transform="translate(64,199)"/>
<path d="M0 0 C4 1 4 1 4 1 Z " fill="#81A147" transform="translate(139,182)"/>
<path d="M0 0 C4 1 4 1 4 1 Z " fill="#83A04B" transform="translate(139,161)"/>
<path d="M0 0 C1 4 1 4 1 4 Z " fill="#7F9C56" transform="translate(127,147)"/>
<path d="M0 0 C4 1 4 1 4 1 Z " fill="#94B757" transform="translate(169,141)"/>
<path d="M0 0 C4 1 4 1 4 1 Z " fill="#92BB49" transform="translate(164,140)"/>
<path d="M0 0 C4 1 4 1 4 1 Z " fill="#80A23B" transform="translate(135,136)"/>
<path d="M0 0 C4 1 4 1 4 1 Z " fill="#8DB956" transform="translate(170,119)"/>
<path d="M0 0 C4 1 4 1 4 1 Z " fill="#85A848" transform="translate(151,116)"/>
<path d="M0 0 C4 1 4 1 4 1 Z " fill="#81A052" transform="translate(145,115)"/>
<path d="M0 0 C1 4 1 4 1 4 Z " fill="#93BA4B" transform="translate(200,103)"/>
<path d="M0 0 C4 1 4 1 4 1 Z " fill="#90B853" transform="translate(166,76)"/>
<path d="M0 0 C4 1 4 1 4 1 Z " fill="#81A051" transform="translate(137,76)"/>
<path d="M0 0 C3 1 3 1 3 1 Z " fill="#83A43B" transform="translate(78,220)"/>
<path d="M0 0 C3 1 3 1 3 1 Z " fill="#81A43A" transform="translate(61,220)"/>
<path d="" fill="#7FA54F" transform="translate(0,0)"/>
<path d="" fill="#8FB756" transform="translate(0,0)"/>
<path d="M0 0 C3 1 3 1 3 1 Z " fill="#97B55D" transform="translate(174,181)"/>
<path d="M0 0 C3 1 3 1 3 1 Z " fill="#839F4F" transform="translate(134,181)"/>
<path d="M0 0 C3 1 3 1 3 1 Z " fill="#93BC41" transform="translate(178,180)"/>
<path d="M0 0 C3 1 3 1 3 1 Z " fill="#97B753" transform="translate(170,161)"/>
<path d="" fill="#8DBA5E" transform="translate(0,0)"/>
<path d="" fill="#7FA24E" transform="translate(0,0)"/>
<path d="" fill="#91BB49" transform="translate(0,0)"/>
<path d="M0 0 C0.66 0 1.32 0 2 0 C1.67 0.66 1.34 1.32 1 2 C0.67 1.34 0.34 0.68 0 0 Z " fill="#89C045" transform="translate(180,145)"/>
<path d="M0 0 C3 1 3 1 3 1 Z " fill="#7DA347" transform="translate(131,135)"/>
<path d="M0 0 C3 1 3 1 3 1 Z " fill="#8EBB4F" transform="translate(176,120)"/>
<path d="" fill="#7CA33C" transform="translate(0,0)"/>
<path d="M0 0 C3 1 3 1 3 1 Z " fill="#839F4F" transform="translate(140,114)"/>
<path d="M0 0 C3 1 3 1 3 1 Z " fill="#83A04C" transform="translate(136,113)"/>
<path d="" fill="#94BB43" transform="translate(0,0)"/>
<path d="M0 0 C3 1 3 1 3 1 Z " fill="#8FB758" transform="translate(166,97)"/>
<path d="M0 0 C3 1 3 1 3 1 Z " fill="#7FA14B" transform="translate(138,97)"/>
<path d="M0 0 C3 1 3 1 3 1 Z " fill="#83A146" transform="translate(130,78)"/>
<path d="M0 0 C3 1 3 1 3 1 Z " fill="#8FBC4B" transform="translate(171,77)"/>
<path d="M0 0 C3 1 3 1 3 1 Z " fill="#82A62F" transform="translate(133,77)"/>
<path d="" fill="#95B554" transform="translate(0,0)"/>
<path d="" fill="#829F4A" transform="translate(0,0)"/>
<path d="M0 0 C2 1 2 1 2 1 Z " fill="#7EA736" transform="translate(117,255)"/>
<path d="M0 0 C2 1 2 1 2 1 Z " fill="#8FBC4E" transform="translate(140,253)"/>
<path d="M0 0 C2 1 2 1 2 1 Z " fill="#7EA53E" transform="translate(114,253)"/>
<path d="M0 0 C2 1 2 1 2 1 Z " fill="#8FBD48" transform="translate(142,252)"/>
<path d="M0 0 C2 1 2 1 2 1 Z " fill="#7FA63A" transform="translate(112,252)"/>
<path d="M0 0 C2 1 2 1 2 1 Z " fill="#7FA43C" transform="translate(109,250)"/>
<path d="M0 0 C2 1 2 1 2 1 Z " fill="#91BB48" transform="translate(147,249)"/>
<path d="M0 0 C2 1 2 1 2 1 Z " fill="#7EA14B" transform="translate(107,249)"/>
<path d="M0 0 C2 1 2 1 2 1 Z " fill="#7FA243" transform="translate(104,247)"/>
<path d="M0 0 C2 1 2 1 2 1 Z " fill="#95B94A" transform="translate(152,246)"/>
<path d="M0 0 C2 1 2 1 2 1 Z " fill="#82A043" transform="translate(102,246)"/>
<path d="M0 0 C2 1 2 1 2 1 Z " fill="#95B757" transform="translate(154,245)"/>
<path d="M0 0 C2 1 2 1 2 1 Z " fill="#81A23F" transform="translate(99,244)"/>
<path d="M0 0 C2 1 2 1 2 1 Z " fill="#7FA43B" transform="translate(97,243)"/>
<path d="M0 0 C2 1 2 1 2 1 Z " fill="#92BD3D" transform="translate(159,242)"/>
<path d="M0 0 C2 1 2 1 2 1 Z " fill="#7BA63B" transform="translate(94,241)"/>
<path d="M0 0 C2 1 2 1 2 1 Z " fill="#7AA735" transform="translate(92,240)"/>
<path d="M0 0 C2 1 2 1 2 1 Z " fill="#8FBE44" transform="translate(164,239)"/>
<path d="M0 0 C2 1 2 1 2 1 Z " fill="#8FBD42" transform="translate(166,238)"/>
<path d="M0 0 C2 1 2 1 2 1 Z " fill="#7CA730" transform="translate(89,238)"/>
<path d="M0 0 C2 1 2 1 2 1 Z " fill="#7EA541" transform="translate(87,237)"/>
<path d="M0 0 C2 1 2 1 2 1 Z " fill="#92BC41" transform="translate(169,236)"/>
<path d="M0 0 C2 1 2 1 2 1 Z " fill="#94BD43" transform="translate(171,235)"/>
<path d="M0 0 C2 1 2 1 2 1 Z " fill="#92B857" transform="translate(130,235)"/>
<path d="M0 0 C2 1 2 1 2 1 Z " fill="#82A243" transform="translate(84,235)"/>
<path d="M0 0 C2 1 2 1 2 1 Z " fill="#93B94E" transform="translate(132,234)"/>
<path d="M0 0 C2 1 2 1 2 1 Z " fill="#82A246" transform="translate(122,234)"/>
<path d="M0 0 C2 1 2 1 2 1 Z " fill="#95BA46" transform="translate(176,232)"/>
<path d="" fill="#879D54" transform="translate(0,0)"/>
<path d="M0 0 C2 1 2 1 2 1 Z " fill="#94BC3C" transform="translate(178,231)"/>
<path d="M0 0 C2 1 2 1 2 1 Z " fill="#92BA4B" transform="translate(137,231)"/>
<path d="M0 0 C2 1 2 1 2 1 Z " fill="#80A246" transform="translate(117,231)"/>
<path d="M0 0 C2 1 2 1 2 1 Z " fill="#91BA4E" transform="translate(181,229)"/>
<path d="M0 0 C2 1 2 1 2 1 Z " fill="#8CBD4B" transform="translate(183,228)"/>
<path d="M0 0 C2 1 2 1 2 1 Z " fill="#96B949" transform="translate(142,228)"/>
<path d="M0 0 C2 1 2 1 2 1 Z " fill="#83A33E" transform="translate(112,228)"/>
<path d="M0 0 C2 1 2 1 2 1 Z " fill="#7DA34A" transform="translate(86,228)"/>
<path d="M0 0 C2 1 2 1 2 1 Z " fill="#96B948" transform="translate(144,227)"/>
<path d="M0 0 C2 1 2 1 2 1 Z " fill="#7CA446" transform="translate(88,227)"/>
<path d="M0 0 C2 1 2 1 2 1 Z " fill="#7CA63D" transform="translate(91,226)"/>
<path d="M0 0 C2 1 2 1 2 1 Z " fill="#8DBC4E" transform="translate(188,225)"/>
<path d="M0 0 C2 1 2 1 2 1 Z " fill="#7EA03F" transform="translate(107,225)"/>
<path d="M0 0 C2 1 2 1 2 1 Z " fill="#7DA541" transform="translate(93,225)"/>
<path d="M0 0 C2 1 2 1 2 1 Z " fill="#97B84A" transform="translate(149,224)"/>
<path d="M0 0 C2 1 2 1 2 1 Z " fill="#7CA53E" transform="translate(95,224)"/>
<path d="M0 0 C2 1 2 1 2 1 Z " fill="#7CA245" transform="translate(97,223)"/>
<path d="M0 0 C2 1 2 1 2 1 Z " fill="#93BB46" transform="translate(193,222)"/>
<path d="M0 0 C2 1 2 1 2 1 Z " fill="#92BA4D" transform="translate(195,221)"/>
<path d="M0 0 C2 1 2 1 2 1 Z " fill="#91BA4B" transform="translate(154,221)"/>
<path d="M0 0 C2 1 2 1 2 1 Z " fill="#8EBE44" transform="translate(156,220)"/>
<path d="M0 0 C2 1 2 1 2 1 Z " fill="#81A246" transform="translate(82,219)"/>
<path d="M0 0 C2 1 2 1 2 1 Z " fill="#80A248" transform="translate(58,219)"/>
<path d="M0 0 C2 1 2 1 2 1 Z " fill="#8DBE45" transform="translate(200,218)"/>
<path d="M0 0 C2 1 2 1 2 1 Z " fill="#7FA441" transform="translate(84,218)"/>
<path d="M0 0 C2 1 2 1 2 1 Z " fill="#7FA443" transform="translate(56,218)"/>
<path d="M0 0 C2 1 2 1 2 1 Z " fill="#8EBF3D" transform="translate(161,217)"/>
<path d="M0 0 C2 1 2 1 2 1 Z " fill="#7EA34C" transform="translate(86,217)"/>
<path d="M0 0 C2 1 2 1 2 1 Z " fill="#7FA444" transform="translate(53,217)"/>
<path d="M0 0 C2 1 2 1 2 1 Z " fill="#80A441" transform="translate(51,216)"/>
<path d="M0 0 C2 1 2 1 2 1 Z " fill="#8DBE46" transform="translate(205,215)"/>
<path d="M0 0 C2 1 2 1 2 1 Z " fill="#81A43D" transform="translate(49,215)"/>
<path d="M0 0 C2 1 2 1 2 1 Z " fill="#8BC043" transform="translate(207,214)"/>
<path d="M0 0 C2 1 2 1 2 1 Z " fill="#91BB4B" transform="translate(166,214)"/>
<path d="M0 0 C2 1 2 1 2 1 Z " fill="#7BA534" transform="translate(90,214)"/>
<path d="M0 0 C2 1 2 1 2 1 Z " fill="#82A33F" transform="translate(47,214)"/>
<path d="M0 0 C2 1 2 1 2 1 Z " fill="#8FBD47" transform="translate(168,213)"/>
<path d="" fill="#7C9F38" transform="translate(0,0)"/>
<path d="M0 0 C2 1 2 1 2 1 Z " fill="#80A441" transform="translate(44,212)"/>
<path d="M0 0 C2 1 2 1 2 1 Z " fill="#91BB4A" transform="translate(212,211)"/>
<path d="M0 0 C2 1 2 1 2 1 Z " fill="#7EA442" transform="translate(42,211)"/>
<path d="M0 0 C2 1 2 1 2 1 Z " fill="#92BA49" transform="translate(173,210)"/>
<path d="M0 0 C2 1 2 1 2 1 Z " fill="#91BD42" transform="translate(217,208)"/>
<path d="" fill="#82A630" transform="translate(0,0)"/>
<path d="M0 0 C2 1 2 1 2 1 Z " fill="#7EA63D" transform="translate(37,208)"/>
<path d="M0 0 C2 1 2 1 2 1 Z " fill="#8FBB45" transform="translate(219,207)"/>
<path d="M0 0 C2 1 2 1 2 1 Z " fill="#90BD3C" transform="translate(178,207)"/>
<path d="M0 0 C2 1 2 1 2 1 Z " fill="#7FA846" transform="translate(35,207)"/>
<path d="M0 0 C2 1 2 1 2 1 Z " fill="#8DBB4A" transform="translate(180,206)"/>
<path d="" fill="#84A548" transform="translate(0,0)"/>
<path d="M0 0 C2 1 2 1 2 1 Z " fill="#8EBE44" transform="translate(222,205)"/>
<path d="M0 0 C2 1 2 1 2 1 Z " fill="#769F41" transform="translate(32,205)"/>
<path d="M0 0 C2 1 2 1 2 1 Z " fill="#8EBD41" transform="translate(224,204)"/>
<path d="M0 0 C2 1 2 1 2 1 Z " fill="#90BA49" transform="translate(183,204)"/>
<path d="" fill="#81A93B" transform="translate(0,0)"/>
<path d="M0 0 C2 1 2 1 2 1 Z " fill="#7EA832" transform="translate(30,204)"/>
<path d="M0 0 C2 1 2 1 2 1 Z " fill="#91BC3A" transform="translate(185,203)"/>
<path d="M0 0 C2 1 2 1 2 1 Z " fill="#91B94C" transform="translate(229,201)"/>
<path d="M0 0 C2 1 2 1 2 1 Z " fill="#83A049" transform="translate(25,201)"/>
<path d="M0 0 C2 1 2 1 2 1 Z " fill="#93B653" transform="translate(190,200)"/>
<path d="M0 0 C2 1 2 1 2 1 Z " fill="#8DC045" transform="translate(232,199)"/>
<path d="M0 0 C2 1 2 1 2 1 Z " fill="#95BB44" transform="translate(192,199)"/>
<path d="M0 0 C2 1 2 1 2 1 Z " fill="#839D5A" transform="translate(22,199)"/>
<path d="M0 0 C2 1 2 1 2 1 Z " fill="#7BA53D" transform="translate(74,198)"/>
<path d="M0 0 C2 1 2 1 2 1 Z " fill="#7FA43C" transform="translate(61,198)"/>
<path d="M0 0 C2 1 2 1 2 1 Z " fill="#91BA4D" transform="translate(195,197)"/>
<path d="M0 0 C2 1 2 1 2 1 Z " fill="#7FA33E" transform="translate(59,197)"/>
<path d="M0 0 C2 1 2 1 2 1 Z " fill="#8FBC48" transform="translate(197,196)"/>
<path d="M0 0 C2 1 2 1 2 1 Z " fill="#7FA240" transform="translate(57,196)"/>
<path d="" fill="#90BD4A" transform="translate(0,0)"/>
<path d="" fill="#84A352" transform="translate(0,0)"/>
<path d="" fill="#7DA247" transform="translate(0,0)"/>
<path d="M0 0 C2 1 2 1 2 1 Z " fill="#7F9F51" transform="translate(54,194)"/>
<path d="M0 0 C2 1 2 1 2 1 Z " fill="#8FBA55" transform="translate(202,193)"/>
<path d="M0 0 C2 1 2 1 2 1 Z " fill="#7DA14E" transform="translate(52,193)"/>
<path d="" fill="#90BB4F" transform="translate(0,0)"/>
<path d="" fill="#7B9B4D" transform="translate(0,0)"/>
<path d="" fill="#8EBA45" transform="translate(0,0)"/>
<path d="M0 0 C2 1 2 1 2 1 Z " fill="#91BE43" transform="translate(207,190)"/>
<path d="M0 0 C2 1 2 1 2 1 Z " fill="#7EA540" transform="translate(47,190)"/>
<path d="" fill="#7BA63A" transform="translate(0,0)"/>
<path d="M0 0 C2 1 2 1 2 1 Z " fill="#94BB42" transform="translate(209,189)"/>
<path d="M0 0 C2 1 2 1 2 1 Z " fill="#80A82E" transform="translate(45,189)"/>
<path d="M0 0 C2 1 2 1 2 1 Z " fill="#81A23E" transform="translate(42,187)"/>
<path d="" fill="#7FA244" transform="translate(0,0)"/>
<path d="M0 0 C2 1 2 1 2 1 Z " fill="#91BC48" transform="translate(214,186)"/>
<path d="M0 0 C2 1 2 1 2 1 Z " fill="#80A33B" transform="translate(40,186)"/>
<path d="M0 0 C2 1 2 1 2 1 Z " fill="#8EBE44" transform="translate(219,183)"/>
<path d="M0 0 C2 1 2 1 2 1 Z " fill="#7FA13D" transform="translate(35,183)"/>
<path d="M0 0 C2 1 2 1 2 1 Z " fill="#83A33B" transform="translate(131,180)"/>
<path d="M0 0 C2 1 2 1 2 1 Z " fill="#8FBD44" transform="translate(181,179)"/>
<path d="M0 0 C2 1 2 1 2 1 Z " fill="#82A151" transform="translate(128,179)"/>
<path d="M0 0 C2 1 2 1 2 1 Z " fill="#8CC03F" transform="translate(184,178)"/>
<path d="M0 0 C2 1 2 1 2 1 Z " fill="#78A124" transform="translate(126,178)"/>
<path d="M0 0 C2 1 2 1 2 1 Z " fill="#8DBD4B" transform="translate(186,177)"/>
<path d="M0 0 C2 1 2 1 2 1 Z " fill="#8FBC48" transform="translate(189,175)"/>
<path d="M0 0 C2 1 2 1 2 1 Z " fill="#80AA42" transform="translate(120,175)"/>
<path d="M0 0 C2 1 2 1 2 1 Z " fill="#92BB4F" transform="translate(192,173)"/>
<path d="" fill="#91BE42" transform="translate(0,0)"/>
<path d="" fill="#83A447" transform="translate(0,0)"/>
<path d="" fill="#8DBB4C" transform="translate(0,0)"/>
<path d="" fill="#7EA540" transform="translate(0,0)"/>
<path d="" fill="#8CBE47" transform="translate(0,0)"/>
<path d="M0 0 C2 1 2 1 2 1 Z " fill="#94B468" transform="translate(174,160)"/>
<path d="M0 0 C2 1 2 1 2 1 Z " fill="#819E56" transform="translate(136,160)"/>
<path d="" fill="#7EA738" transform="translate(0,0)"/>
<path d="M0 0 C2 1 2 1 2 1 Z " fill="#81A250" transform="translate(132,158)"/>
<path d="" fill="#90BE3F" transform="translate(0,0)"/>
<path d="" fill="#81A63C" transform="translate(0,0)"/>
<path d="" fill="#82A34B" transform="translate(0,0)"/>
<path d="M0 0 C2 1 2 1 2 1 Z " fill="#8EBD47" transform="translate(177,143)"/>
<path d="M0 0 C2 1 2 1 2 1 Z " fill="#91BE3D" transform="translate(174,142)"/>
<path d="" fill="#95B850" transform="translate(0,0)"/>
<path d="" fill="#91BB4C" transform="translate(0,0)"/>
<path d="M0 0 C2 1 2 1 2 1 Z " fill="#7DA645" transform="translate(128,134)"/>
<path d="M0 0 C2 1 2 1 2 1 Z " fill="#82A147" transform="translate(126,133)"/>
<path d="M0 0 C2 1 2 1 2 1 Z " fill="#81A630" transform="translate(123,132)"/>
<path d="M0 0 C2 1 2 1 2 1 Z " fill="#7DA632" transform="translate(117,128)"/>
<path d="M0 0 C2 1 2 1 2 1 Z " fill="#90BA50" transform="translate(192,126)"/>
<path d="M0 0 C2 1 2 1 2 1 Z " fill="#91BB49" transform="translate(190,125)"/>
<path d="M0 0 C2 1 2 1 2 1 Z " fill="#92BA4D" transform="translate(188,124)"/>
<path d="" fill="#7BA740" transform="translate(0,0)"/>
<path d="M0 0 C2 1 2 1 2 1 Z " fill="#95B752" transform="translate(186,123)"/>
<path d="M0 0 C2 1 2 1 2 1 Z " fill="#94B94D" transform="translate(183,122)"/>
<path d="M0 0 C2 1 2 1 2 1 Z " fill="#92BB48" transform="translate(180,121)"/>
<path d="" fill="#7BA838" transform="translate(0,0)"/>
<path d="" fill="#7CA546" transform="translate(0,0)"/>
<path d="" fill="#94BC41" transform="translate(0,0)"/>
<path d="M0 0 C2 1 2 1 2 1 Z " fill="#81A43D" transform="translate(133,112)"/>
<path d="" fill="#97B945" transform="translate(0,0)"/>
<path d="" fill="#97B74D" transform="translate(0,0)"/>
<path d="" fill="#96B84D" transform="translate(0,0)"/>
<path d="" fill="#97B55B" transform="translate(0,0)"/>
<path d="" fill="#83A33C" transform="translate(0,0)"/>
<path d="" fill="#97B751" transform="translate(0,0)"/>
<path d="M0 0 C2 1 2 1 2 1 Z " fill="#91B755" transform="translate(170,98)"/>
<path d="M0 0 C2 1 2 1 2 1 Z " fill="#7FA04E" transform="translate(136,98)"/>
<path d="" fill="#81A344" transform="translate(0,0)"/>
<path d="" fill="#96BA4E" transform="translate(0,0)"/>
<path d="" fill="#7FA535" transform="translate(0,0)"/>
<path d="" fill="#95BD43" transform="translate(0,0)"/>
<path d="" fill="#7CA73A" transform="translate(0,0)"/>
<path d="M0 0 C2 1 2 1 2 1 Z " fill="#7AA23E" transform="translate(118,85)"/>
<path d="M0 0 C2 1 2 1 2 1 Z " fill="#90BC49" transform="translate(187,84)"/>
<path d="M0 0 C2 1 2 1 2 1 Z " fill="#8FBB52" transform="translate(184,82)"/>
<path d="M0 0 C2 1 2 1 2 1 Z " fill="#819D4C" transform="translate(122,82)"/>
<path d="" fill="#77A53A" transform="translate(0,0)"/>
<path d="M0 0 C2 1 2 1 2 1 Z " fill="#7E9F4B" transform="translate(124,81)"/>
<path d="M0 0 C2 1 2 1 2 1 Z " fill="#7F9D52" transform="translate(126,80)"/>
<path d="M0 0 C2 1 2 1 2 1 Z " fill="#8FBD48" transform="translate(178,79)"/>
<path d="M0 0 C2 1 2 1 2 1 Z " fill="#83A04A" transform="translate(128,79)"/>
<path d="M0 0 C2 1 2 1 2 1 Z " fill="#90BD50" transform="translate(175,78)"/>
<path d="M0 0 C2 1 2 1 2 1 Z " fill="#7D9A53" transform="translate(96,78)"/>
<path d="M0 0 C2 1 2 1 2 1 Z " fill="#96BA45" transform="translate(216,70)"/>
<path d="M0 0 C2 1 2 1 2 1 Z " fill="#7EA536" transform="translate(38,70)"/>
<path d="M0 0 C2 1 2 1 2 1 Z " fill="#82A23D" transform="translate(40,69)"/>
<path d="M0 0 C2 1 2 1 2 1 Z " fill="#95BA49" transform="translate(211,67)"/>
<path d="M0 0 C2 1 2 1 2 1 Z " fill="#81A33A" transform="translate(43,67)"/>
<path d="" fill="#93BB45" transform="translate(0,0)"/>
<path d="M0 0 C2 1 2 1 2 1 Z " fill="#93BC3E" transform="translate(209,66)"/>
<path d="M0 0 C2 1 2 1 2 1 Z " fill="#7FA62F" transform="translate(45,66)"/>
<path d="" fill="#82A33A" transform="translate(0,0)"/>
<path d="" fill="#95B950" transform="translate(0,0)"/>
<path d="" fill="#7C9B44" transform="translate(0,0)"/>
<path d="M0 0 C2 1 2 1 2 1 Z " fill="#8FBD44" transform="translate(204,63)"/>
<path d="M0 0 C2 1 2 1 2 1 Z " fill="#7BA83A" transform="translate(50,63)"/>
<path d="" fill="#7B9A47" transform="translate(0,0)"/>
<path d="M0 0 C2 1 2 1 2 1 Z " fill="#8FBC4D" transform="translate(199,60)"/>
<path d="M0 0 C2 1 2 1 2 1 Z " fill="#7BA641" transform="translate(55,60)"/>
<path d="M0 0 C2 1 2 1 2 1 Z " fill="#8EBF3D" transform="translate(197,59)"/>
<path d="M0 0 C2 1 2 1 2 1 Z " fill="#7BA641" transform="translate(57,59)"/>
<path d="M0 0 C2 1 2 1 2 1 Z " fill="#91BA4E" transform="translate(192,56)"/>
<path d="M0 0 C2 1 2 1 2 1 Z " fill="#80A442" transform="translate(62,56)"/>
<path d="M0 0 C2 1 2 1 2 1 Z " fill="#7FA63B" transform="translate(23,55)"/>
<path d="M0 0 C2 1 2 1 2 1 Z " fill="#91B85A" transform="translate(229,54)"/>
<path d="M0 0 C2 1 2 1 2 1 Z " fill="#8FBD45" transform="translate(187,53)"/>
<path d="M0 0 C2 1 2 1 2 1 Z " fill="#82AB43" transform="translate(67,53)"/>
<path d="M0 0 C2 1 2 1 2 1 Z " fill="#8DBD4B" transform="translate(226,52)"/>
<path d="M0 0 C2 1 2 1 2 1 Z " fill="#8FBD47" transform="translate(185,52)"/>
<path d="M0 0 C2 1 2 1 2 1 Z " fill="#7EA938" transform="translate(69,52)"/>
<path d="M0 0 C2 1 2 1 2 1 Z " fill="#7DA342" transform="translate(28,52)"/>
<path d="M0 0 C2 1 2 1 2 1 Z " fill="#8CC03F" transform="translate(224,51)"/>
<path d="M0 0 C2 1 2 1 2 1 Z " fill="#7FA533" transform="translate(30,51)"/>
<path d="M0 0 C2 1 2 1 2 1 Z " fill="#8DBC4F" transform="translate(182,50)"/>
<path d="M0 0 C2 1 2 1 2 1 Z " fill="#7CA33E" transform="translate(72,50)"/>
<path d="M0 0 C2 1 2 1 2 1 Z " fill="#8EBB4F" transform="translate(180,49)"/>
<path d="M0 0 C2 1 2 1 2 1 Z " fill="#7CA146" transform="translate(74,49)"/>
<path d="M0 0 C2 1 2 1 2 1 Z " fill="#7FA534" transform="translate(33,49)"/>
<path d="M0 0 C2 1 2 1 2 1 Z " fill="#8EBF48" transform="translate(219,48)"/>
<path d="M0 0 C2 1 2 1 2 1 Z " fill="#7CA039" transform="translate(35,48)"/>
<path d="M0 0 C2 1 2 1 2 1 Z " fill="#90BD44" transform="translate(217,47)"/>
<path d="M0 0 C2 1 2 1 2 1 Z " fill="#90BD42" transform="translate(175,46)"/>
<path d="M0 0 C2 1 2 1 2 1 Z " fill="#7BA738" transform="translate(79,46)"/>
<path d="M0 0 C2 1 2 1 2 1 Z " fill="#92BE41" transform="translate(214,45)"/>
<path d="M0 0 C2 1 2 1 2 1 Z " fill="#90BC49" transform="translate(173,45)"/>
<path d="M0 0 C2 1 2 1 2 1 Z " fill="#7CA640" transform="translate(81,45)"/>
<path d="M0 0 C2 1 2 1 2 1 Z " fill="#7CA443" transform="translate(40,45)"/>
<path d="M0 0 C2 1 2 1 2 1 Z " fill="#93BD44" transform="translate(212,44)"/>
<path d="M0 0 C2 1 2 1 2 1 Z " fill="#93B94C" transform="translate(170,43)"/>
<path d="M0 0 C2 1 2 1 2 1 Z " fill="#7FA53E" transform="translate(84,43)"/>
<path d="M0 0 C2 1 2 1 2 1 Z " fill="#93BB46" transform="translate(168,42)"/>
<path d="M0 0 C2 1 2 1 2 1 Z " fill="#7EA443" transform="translate(86,42)"/>
<path d="M0 0 C2 1 2 1 2 1 Z " fill="#81A338" transform="translate(45,42)"/>
<path d="M0 0 C2 1 2 1 2 1 Z " fill="#95BA4A" transform="translate(207,41)"/>
<path d="M0 0 C2 1 2 1 2 1 Z " fill="#81A237" transform="translate(47,41)"/>
<path d="M0 0 C2 1 2 1 2 1 Z " fill="#8DBE43" transform="translate(163,39)"/>
<path d="M0 0 C2 1 2 1 2 1 Z " fill="#7FA33E" transform="translate(91,39)"/>
<path d="M0 0 C2 1 2 1 2 1 Z " fill="#93B94D" transform="translate(202,38)"/>
<path d="M0 0 C2 1 2 1 2 1 Z " fill="#7CA346" transform="translate(52,38)"/>
<path d="M0 0 C2 1 2 1 2 1 Z " fill="#93BB40" transform="translate(200,37)"/>
<path d="M0 0 C2 1 2 1 2 1 Z " fill="#90BC47" transform="translate(158,36)"/>
<path d="M0 0 C2 1 2 1 2 1 Z " fill="#82A43A" transform="translate(96,36)"/>
<path d="M0 0 C2 1 2 1 2 1 Z " fill="#91BB47" transform="translate(156,35)"/>
<path d="M0 0 C2 1 2 1 2 1 Z " fill="#81A43D" transform="translate(98,35)"/>
<path d="M0 0 C2 1 2 1 2 1 Z " fill="#7CA73B" transform="translate(57,35)"/>
<path d="M0 0 C2 1 2 1 2 1 Z " fill="#98B758" transform="translate(195,34)"/>
<path d="M0 0 C2 1 2 1 2 1 Z " fill="#7EA541" transform="translate(59,34)"/>
<path d="M0 0 C2 1 2 1 2 1 Z " fill="#97B848" transform="translate(151,32)"/>
<path d="M0 0 C2 1 2 1 2 1 Z " fill="#81A535" transform="translate(103,32)"/>
<path d="M0 0 C2 1 2 1 2 1 Z " fill="#80A152" transform="translate(62,32)"/>
<path d="M0 0 C2 1 2 1 2 1 Z " fill="#90BB4E" transform="translate(190,31)"/>
<path d="M0 0 C2 1 2 1 2 1 Z " fill="#81A149" transform="translate(64,31)"/>
<path d="M0 0 C2 1 2 1 2 1 Z " fill="#90BB4A" transform="translate(188,30)"/>
<path d="M0 0 C2 1 2 1 2 1 Z " fill="#93B950" transform="translate(146,29)"/>
<path d="M0 0 C2 1 2 1 2 1 Z " fill="#82A444" transform="translate(108,29)"/>
<path d="M0 0 C2 1 2 1 2 1 Z " fill="#92BB49" transform="translate(185,28)"/>
<path d="M0 0 C2 1 2 1 2 1 Z " fill="#90BC49" transform="translate(144,28)"/>
<path d="M0 0 C2 1 2 1 2 1 Z " fill="#7FA53D" transform="translate(110,28)"/>
<path d="M0 0 C2 1 2 1 2 1 Z " fill="#82A340" transform="translate(69,28)"/>
<path d="M0 0 C2 1 2 1 2 1 Z " fill="#91BA4D" transform="translate(183,27)"/>
<path d="M0 0 C2 1 2 1 2 1 Z " fill="#80A441" transform="translate(71,27)"/>
<path d="M0 0 C2 1 2 1 2 1 Z " fill="#7DA63E" transform="translate(113,26)"/>
<path d="M0 0 C2 1 2 1 2 1 Z " fill="#8EBC47" transform="translate(139,25)"/>
<path d="M0 0 C2 1 2 1 2 1 Z " fill="#7FA43F" transform="translate(115,25)"/>
<path d="M0 0 C2 1 2 1 2 1 Z " fill="#7DA737" transform="translate(74,25)"/>
<path d="M0 0 C2 1 2 1 2 1 Z " fill="#8DBB52" transform="translate(178,24)"/>
<path d="M0 0 C2 1 2 1 2 1 Z " fill="#7DA835" transform="translate(76,24)"/>
<path d="M0 0 C2 1 2 1 2 1 Z " fill="#8FBB4E" transform="translate(176,23)"/>
<path d="M0 0 C2 1 2 1 2 1 Z " fill="#8DB94B" transform="translate(134,22)"/>
<path d="M0 0 C2 1 2 1 2 1 Z " fill="#79A741" transform="translate(120,22)"/>
<path d="M0 0 C2 1 2 1 2 1 Z " fill="#93BF33" transform="translate(173,21)"/>
<path d="M0 0 C2 1 2 1 2 1 Z " fill="#8FBA47" transform="translate(132,21)"/>
<path d="M0 0 C2 1 2 1 2 1 Z " fill="#7EA644" transform="translate(122,21)"/>
<path d="M0 0 C2 1 2 1 2 1 Z " fill="#7FA732" transform="translate(81,21)"/>
<path d="M0 0 C2 1 2 1 2 1 Z " fill="#94BB41" transform="translate(171,20)"/>
<path d="M0 0 C2 1 2 1 2 1 Z " fill="#83A244" transform="translate(86,18)"/>
<path d="M0 0 C2 1 2 1 2 1 Z " fill="#92BB46" transform="translate(166,17)"/>
<path d="M0 0 C2 1 2 1 2 1 Z " fill="#82A43D" transform="translate(88,17)"/>
<path d="M0 0 C2 1 2 1 2 1 Z " fill="#91BA4F" transform="translate(161,14)"/>
<path d="M0 0 C2 1 2 1 2 1 Z " fill="#7EA33F" transform="translate(93,14)"/>
<path d="M0 0 C2 1 2 1 2 1 Z " fill="#92BC46" transform="translate(159,13)"/>
<path d="M0 0 C2 1 2 1 2 1 Z " fill="#7FA242" transform="translate(98,11)"/>
<path d="M0 0 C2 1 2 1 2 1 Z " fill="#96B946" transform="translate(154,10)"/>
<path d="M0 0 C2 1 2 1 2 1 Z " fill="#80A241" transform="translate(100,10)"/>
<path d="M0 0 C2 1 2 1 2 1 Z " fill="#81A048" transform="translate(103,8)"/>
<path d="M0 0 C2 1 2 1 2 1 Z " fill="#92BB48" transform="translate(149,7)"/>
<path d="M0 0 C2 1 2 1 2 1 Z " fill="#7EA13F" transform="translate(105,7)"/>
<path d="M0 0 C2 1 2 1 2 1 Z " fill="#91BB4A" transform="translate(147,6)"/>
<path d="M0 0 C2 1 2 1 2 1 Z " fill="#92BB47" transform="translate(144,4)"/>
<path d="M0 0 C2 1 2 1 2 1 Z " fill="#819E46" transform="translate(110,4)"/>
<path d="M0 0 C2 1 2 1 2 1 Z " fill="#92BB48" transform="translate(142,3)"/>
<path d="M0 0 C2 1 2 1 2 1 Z " fill="#7DA33A" transform="translate(112,3)"/>
<path d="M0 0 C2 1 2 1 2 1 Z " fill="#7DA632" transform="translate(115,1)"/>
<path d="M0 0 C2 1 2 1 2 1 Z " fill="#8FBE41" transform="translate(137,0)"/>
<path d="M0 0 C2 1 2 1 2 1 Z " fill="#7CA731" transform="translate(117,0)"/>
<path d="" fill="#8FBD47" transform="translate(0,0)"/>
<path d="" fill="#8FBC4F" transform="translate(0,0)"/>
<path d="" fill="#7EA53F" transform="translate(0,0)"/>
<path d="" fill="#8EBB4E" transform="translate(0,0)"/>
<path d="" fill="#7FA337" transform="translate(0,0)"/>
<path d="" fill="#90BD43" transform="translate(0,0)"/>
<path d="" fill="#92BB49" transform="translate(0,0)"/>
<path d="" fill="#7FA14C" transform="translate(0,0)"/>
<path d="" fill="#90BC49" transform="translate(0,0)"/>
<path d="" fill="#82A140" transform="translate(0,0)"/>
<path d="" fill="#93BB45" transform="translate(0,0)"/>
<path d="" fill="#93BC3F" transform="translate(0,0)"/>
<path d="" fill="#7DA53C" transform="translate(0,0)"/>
<path d="" fill="#90BC49" transform="translate(0,0)"/>
<path d="" fill="#90BE48" transform="translate(0,0)"/>
<path d="" fill="#7BA736" transform="translate(0,0)"/>
<path d="" fill="#92BB4B" transform="translate(0,0)"/>
<path d="" fill="#80A347" transform="translate(0,0)"/>
<path d="" fill="#80A345" transform="translate(0,0)"/>
<path d="" fill="#95BA45" transform="translate(0,0)"/>
<path d="" fill="#97B753" transform="translate(0,0)"/>
<path d="" fill="#95B94B" transform="translate(0,0)"/>
<path d="" fill="#83A149" transform="translate(0,0)"/>
<path d="" fill="#93BA49" transform="translate(0,0)"/>
<path d="" fill="#81A345" transform="translate(0,0)"/>
<path d="" fill="#95BB41" transform="translate(0,0)"/>
<path d="" fill="#93B853" transform="translate(0,0)"/>
<path d="" fill="#80A24B" transform="translate(0,0)"/>
<path d="" fill="#83A341" transform="translate(0,0)"/>
<path d="" fill="#95BB41" transform="translate(0,0)"/>
<path d="" fill="#80A443" transform="translate(0,0)"/>
<path d="" fill="#81A43F" transform="translate(0,0)"/>
<path d="" fill="#8AC141" transform="translate(0,0)"/>
<path d="" fill="#84A143" transform="translate(0,0)"/>
<path d="" fill="#8ABF4B" transform="translate(0,0)"/>
<path d="" fill="#97B753" transform="translate(0,0)"/>
<path d="" fill="#83A245" transform="translate(0,0)"/>
<path d="" fill="#98B651" transform="translate(0,0)"/>
<path d="" fill="#8FBD47" transform="translate(0,0)"/>
<path d="" fill="#82A541" transform="translate(0,0)"/>
<path d="" fill="#92BA51" transform="translate(0,0)"/>
<path d="" fill="#97B947" transform="translate(0,0)"/>
<path d="" fill="#7E9E3B" transform="translate(0,0)"/>
<path d="" fill="#93BC43" transform="translate(0,0)"/>
<path d="" fill="#90BB4F" transform="translate(0,0)"/>
<path d="" fill="#8FBC4D" transform="translate(0,0)"/>
<path d="" fill="#8FBE43" transform="translate(0,0)"/>
<path d="" fill="#8FBE41" transform="translate(0,0)"/>
<path d="" fill="#8DBF41" transform="translate(0,0)"/>
<path d="" fill="#8FBE43" transform="translate(0,0)"/>
<path d="" fill="#8FBD49" transform="translate(0,0)"/>
<path d="" fill="#7EA53F" transform="translate(0,0)"/>
<path d="" fill="#90BC49" transform="translate(0,0)"/>
<path d="" fill="#7CA73D" transform="translate(0,0)"/>
<path d="" fill="#8CBE4B" transform="translate(0,0)"/>
<path d="" fill="#7FA43C" transform="translate(0,0)"/>
<path d="" fill="#81A341" transform="translate(0,0)"/>
<path d="" fill="#90BB4F" transform="translate(0,0)"/>
<path d="" fill="#90BB4F" transform="translate(0,0)"/>
<path d="" fill="#92BA4D" transform="translate(0,0)"/>
<path d="" fill="#8FBE45" transform="translate(0,0)"/>
<path d="" fill="#7C9F2A" transform="translate(0,0)"/>
<path d="" fill="#7CA63F" transform="translate(0,0)"/>
<path d="" fill="#90BC49" transform="translate(0,0)"/>
<path d="" fill="#93BB45" transform="translate(0,0)"/>
<path d="" fill="#86A82A" transform="translate(0,0)"/>
<path d="" fill="#7EA543" transform="translate(0,0)"/>
<path d="" fill="#92BD41" transform="translate(0,0)"/>
<path d="" fill="#8DBE47" transform="translate(0,0)"/>
<path d="" fill="#7AA446" transform="translate(0,0)"/>
<path d="" fill="#8EBA52" transform="translate(0,0)"/>
<path d="" fill="#8EBB4A" transform="translate(0,0)"/>
<path d="" fill="#7EA737" transform="translate(0,0)"/>
<path d="" fill="#91BA46" transform="translate(0,0)"/>
<path d="" fill="#92BA42" transform="translate(0,0)"/>
<path d="" fill="#81A343" transform="translate(0,0)"/>
<path d="" fill="#92BA42" transform="translate(0,0)"/>
<path d="" fill="#8EBB4C" transform="translate(0,0)"/>
<path d="" fill="#849E54" transform="translate(0,0)"/>
<path d="" fill="#8DC04A" transform="translate(0,0)"/>
<path d="" fill="#95BB43" transform="translate(0,0)"/>
<path d="" fill="#83A14B" transform="translate(0,0)"/>
<path d="" fill="#8EBE4C" transform="translate(0,0)"/>
<path d="" fill="#78A836" transform="translate(0,0)"/>
<path d="" fill="#81A249" transform="translate(0,0)"/>
<path d="" fill="#90BE48" transform="translate(0,0)"/>
<path d="" fill="#78A932" transform="translate(0,0)"/>
<path d="" fill="#84A350" transform="translate(0,0)"/>
<path d="" fill="#90BC4B" transform="translate(0,0)"/>
<path d="" fill="#80A148" transform="translate(0,0)"/>
<path d="" fill="#8FBB53" transform="translate(0,0)"/>
<path d="" fill="#91BC50" transform="translate(0,0)"/>
<path d="" fill="#80A058" transform="translate(0,0)"/>
<path d="" fill="#8FBB51" transform="translate(0,0)"/>
<path d="" fill="#7BA446" transform="translate(0,0)"/>
<path d="" fill="#8EC042" transform="translate(0,0)"/>
<path d="" fill="#7CA543" transform="translate(0,0)"/>
<path d="" fill="#92B84E" transform="translate(0,0)"/>
<path d="" fill="#80A438" transform="translate(0,0)"/>
<path d="" fill="#92BC47" transform="translate(0,0)"/>
<path d="" fill="#90C042" transform="translate(0,0)"/>
<path d="" fill="#82A23C" transform="translate(0,0)"/>
<path d="" fill="#90C040" transform="translate(0,0)"/>
<path d="" fill="#82A23C" transform="translate(0,0)"/>
<path d="" fill="#82AA3F" transform="translate(0,0)"/>
<path d="" fill="#8FBD49" transform="translate(0,0)"/>
<path d="" fill="#80A945" transform="translate(0,0)"/>
<path d="" fill="#90BC47" transform="translate(0,0)"/>
<path d="" fill="#82A83C" transform="translate(0,0)"/>
<path d="" fill="#83AB40" transform="translate(0,0)"/>
<path d="" fill="#93BF3E" transform="translate(0,0)"/>
<path d="" fill="#84AA3E" transform="translate(0,0)"/>
<path d="" fill="#94C03F" transform="translate(0,0)"/>
<path d="" fill="#82A93A" transform="translate(0,0)"/>
<path d="" fill="#93BF3E" transform="translate(0,0)"/>
<path d="" fill="#7FA23B" transform="translate(0,0)"/>
<path d="" fill="#93BD46" transform="translate(0,0)"/>
<path d="" fill="#81A03F" transform="translate(0,0)"/>
<path d="" fill="#8FBE45" transform="translate(0,0)"/>
<path d="" fill="#7EA53F" transform="translate(0,0)"/>
<path d="" fill="#80A347" transform="translate(0,0)"/>
<path d="" fill="#8CBB4E" transform="translate(0,0)"/>
<path d="" fill="#7EA543" transform="translate(0,0)"/>
<path d="" fill="#90BC49" transform="translate(0,0)"/>
<path d="" fill="#82A34B" transform="translate(0,0)"/>
<path d="" fill="#7FA549" transform="translate(0,0)"/>
<path d="" fill="#7FA741" transform="translate(0,0)"/>
<path d="" fill="#82A63A" transform="translate(0,0)"/>
<path d="" fill="#8CBF45" transform="translate(0,0)"/>
<path d="" fill="#7EA83F" transform="translate(0,0)"/>
<path d="" fill="#83A948" transform="translate(0,0)"/>
<path d="" fill="#7FA74C" transform="translate(0,0)"/>
<path d="" fill="#84AB45" transform="translate(0,0)"/>
<path d="" fill="#85A25D" transform="translate(0,0)"/>
<path d="" fill="#8FBF3D" transform="translate(0,0)"/>
<path d="" fill="#8FC135" transform="translate(0,0)"/>
<path d="" fill="#8FC135" transform="translate(0,0)"/>
<path d="" fill="#8FBF3F" transform="translate(0,0)"/>
<path d="" fill="#80A733" transform="translate(0,0)"/>
<path d="" fill="#8DBE45" transform="translate(0,0)"/>
<path d="" fill="#7DA531" transform="translate(0,0)"/>
<path d="" fill="#8DBE45" transform="translate(0,0)"/>
<path d="" fill="#7BA434" transform="translate(0,0)"/>
<path d="" fill="#8FBE41" transform="translate(0,0)"/>
<path d="" fill="#8FBE45" transform="translate(0,0)"/>
<path d="" fill="#79A436" transform="translate(0,0)"/>
<path d="" fill="#7BA63A" transform="translate(0,0)"/>
<path d="" fill="#7AA63E" transform="translate(0,0)"/>
<path d="" fill="#7CA73D" transform="translate(0,0)"/>
<path d="" fill="#95BC3F" transform="translate(0,0)"/>
<path d="" fill="#92B75D" transform="translate(0,0)"/>
<path d="" fill="#93BE39" transform="translate(0,0)"/>
<path d="" fill="#93B65D" transform="translate(0,0)"/>
<path d="" fill="#7FA43C" transform="translate(0,0)"/>
<path d="" fill="#93B855" transform="translate(0,0)"/>
<path d="" fill="#7DA43E" transform="translate(0,0)"/>
<path d="" fill="#93B759" transform="translate(0,0)"/>
<path d="" fill="#7FA342" transform="translate(0,0)"/>
<path d="" fill="#91B758" transform="translate(0,0)"/>
<path d="" fill="#7DA346" transform="translate(0,0)"/>
<path d="" fill="#93BF47" transform="translate(0,0)"/>
<path d="" fill="#90BE48" transform="translate(0,0)"/>
<path d="" fill="#7BA83B" transform="translate(0,0)"/>
<path d="" fill="#7BA73D" transform="translate(0,0)"/>
<path d="" fill="#8CBB4E" transform="translate(0,0)"/>
<path d="" fill="#91BA5C" transform="translate(0,0)"/>
<path d="" fill="#7BA442" transform="translate(0,0)"/>
<path d="" fill="#95B463" transform="translate(0,0)"/>
<path d="" fill="#7AA341" transform="translate(0,0)"/>
<path d="" fill="#95B55F" transform="translate(0,0)"/>
<path d="" fill="#7AA43F" transform="translate(0,0)"/>
<path d="" fill="#93B857" transform="translate(0,0)"/>
<path d="" fill="#7CA33D" transform="translate(0,0)"/>
<path d="" fill="#8FBD49" transform="translate(0,0)"/>
<path d="" fill="#7CA245" transform="translate(0,0)"/>
<path d="" fill="#8FBE45" transform="translate(0,0)"/>
<path d="" fill="#8FBD47" transform="translate(0,0)"/>
<path d="" fill="#79A637" transform="translate(0,0)"/>
<path d="" fill="#80A441" transform="translate(0,0)"/>
<path d="" fill="#79A13B" transform="translate(0,0)"/>
<path d="" fill="#70903A" transform="translate(0,0)"/>
<path d="" fill="#92BB49" transform="translate(0,0)"/>
<path d="" fill="#7BA63C" transform="translate(0,0)"/>
<path d="" fill="#95BA49" transform="translate(0,0)"/>
<path d="" fill="#7DA53A" transform="translate(0,0)"/>
<path d="" fill="#97B949" transform="translate(0,0)"/>
<path d="" fill="#98B84B" transform="translate(0,0)"/>
<path d="" fill="#82A23C" transform="translate(0,0)"/>
<path d="" fill="#92BC43" transform="translate(0,0)"/>
<path d="" fill="#7DA634" transform="translate(0,0)"/>
<path d="" fill="#90BD45" transform="translate(0,0)"/>
<path d="" fill="#7CA73D" transform="translate(0,0)"/>
<path d="" fill="#99B852" transform="translate(0,0)"/>
<path d="" fill="#90BE41" transform="translate(0,0)"/>
<path d="" fill="#7BA83B" transform="translate(0,0)"/>
<path d="" fill="#90B95B" transform="translate(0,0)"/>
<path d="" fill="#7BA647" transform="translate(0,0)"/>
<path d="" fill="#98B559" transform="translate(0,0)"/>
<path d="" fill="#88A74A" transform="translate(0,0)"/>
<path d="" fill="#97B751" transform="translate(0,0)"/>
<path d="" fill="#82A63D" transform="translate(0,0)"/>
<path d="" fill="#95BA45" transform="translate(0,0)"/>
<path d="" fill="#8FBE43" transform="translate(0,0)"/>
<path d="" fill="#7CA837" transform="translate(0,0)"/>
<path d="" fill="#82A832" transform="translate(0,0)"/>
<path d="" fill="#97BA41" transform="translate(0,0)"/>
<path d="" fill="#92BA4D" transform="translate(0,0)"/>
<path d="" fill="#80A53D" transform="translate(0,0)"/>
<path d="" fill="#82A92A" transform="translate(0,0)"/>
<path d="" fill="#97B45F" transform="translate(0,0)"/>
<path d="" fill="#82A92E" transform="translate(0,0)"/>
<path d="" fill="#93B46B" transform="translate(0,0)"/>
<path d="" fill="#90BB4D" transform="translate(0,0)"/>
<path d="" fill="#7FA54B" transform="translate(0,0)"/>
<path d="" fill="#8FBE45" transform="translate(0,0)"/>
<path d="" fill="#6F9634" transform="translate(0,0)"/>
<path d="" fill="#7DA442" transform="translate(0,0)"/>
<path d="" fill="#90BB4D" transform="translate(0,0)"/>
<path d="" fill="#7BA53E" transform="translate(0,0)"/>
<path d="" fill="#8DBF43" transform="translate(0,0)"/>
<path d="" fill="#7CA835" transform="translate(0,0)"/>
<path d="" fill="#8DBE49" transform="translate(0,0)"/>
<path d="" fill="#7FA536" transform="translate(0,0)"/>
<path d="" fill="#8CBF47" transform="translate(0,0)"/>
<path d="" fill="#90BF3B" transform="translate(0,0)"/>
<path d="" fill="#7CA243" transform="translate(0,0)"/>
<path d="" fill="#92BC47" transform="translate(0,0)"/>
<path d="" fill="#7BA63C" transform="translate(0,0)"/>
<path d="" fill="#80A33A" transform="translate(0,0)"/>
<path d="" fill="#91BD4A" transform="translate(0,0)"/>
<path d="" fill="#7FA43A" transform="translate(0,0)"/>
<path d="" fill="#92BA4F" transform="translate(0,0)"/>
<path d="" fill="#7EA63D" transform="translate(0,0)"/>
<path d="" fill="#7DA442" transform="translate(0,0)"/>
<path d="" fill="#95BB4C" transform="translate(0,0)"/>
<path d="" fill="#7FA43C" transform="translate(0,0)"/>
<path d="" fill="#95BB4E" transform="translate(0,0)"/>
<path d="" fill="#92BC45" transform="translate(0,0)"/>
<path d="" fill="#81A343" transform="translate(0,0)"/>
<path d="" fill="#95BB43" transform="translate(0,0)"/>
<path d="" fill="#8FBE43" transform="translate(0,0)"/>
<path d="" fill="#83A243" transform="translate(0,0)"/>
<path d="" fill="#83A341" transform="translate(0,0)"/>
<path d="" fill="#93BC43" transform="translate(0,0)"/>
<path d="" fill="#7FA43A" transform="translate(0,0)"/>
<path d="" fill="#8DC03D" transform="translate(0,0)"/>
<path d="" fill="#80A53B" transform="translate(0,0)"/>
<path d="" fill="#8FBE43" transform="translate(0,0)"/>
<path d="" fill="#81A43F" transform="translate(0,0)"/>
<path d="" fill="#7BA442" transform="translate(0,0)"/>
<path d="" fill="#95BC3B" transform="translate(0,0)"/>
<path d="" fill="#7CA835" transform="translate(0,0)"/>
<path d="" fill="#96BB48" transform="translate(0,0)"/>
<path d="" fill="#93BD3D" transform="translate(0,0)"/>
<path d="" fill="#7EA739" transform="translate(0,0)"/>
<path d="" fill="#99B65C" transform="translate(0,0)"/>
<path d="" fill="#95B94B" transform="translate(0,0)"/>
<path d="" fill="#80A637" transform="translate(0,0)"/>
<path d="" fill="#7EA445" transform="translate(0,0)"/>
<path d="" fill="#98B65E" transform="translate(0,0)"/>
<path d="" fill="#98B847" transform="translate(0,0)"/>
<path d="" fill="#7EA033" transform="translate(0,0)"/>
<path d="" fill="#95B84F" transform="translate(0,0)"/>
<path d="" fill="#7F9F40" transform="translate(0,0)"/>
<path d="" fill="#81A14B" transform="translate(0,0)"/>
<path d="" fill="#92BB4B" transform="translate(0,0)"/>
<path d="" fill="#83A245" transform="translate(0,0)"/>
<path d="" fill="#8CBD46" transform="translate(0,0)"/>
<path d="" fill="#7EA541" transform="translate(0,0)"/>
<path d="" fill="#90BB4F" transform="translate(0,0)"/>
<path d="" fill="#8DBF43" transform="translate(0,0)"/>
<path d="" fill="#7EA543" transform="translate(0,0)"/>
<path d="" fill="#8DBC4F" transform="translate(0,0)"/>
<path d="" fill="#8FBA4C" transform="translate(0,0)"/>
<path d="" fill="#80A441" transform="translate(0,0)"/>
<path d="" fill="#8EBB4E" transform="translate(0,0)"/>
<path d="" fill="#7CA641" transform="translate(0,0)"/>
<path d="" fill="#7CA73B" transform="translate(0,0)"/>
<path d="" fill="#92BE3D" transform="translate(0,0)"/>
<path d="" fill="#7CA837" transform="translate(0,0)"/>
<path d="" fill="#92B948" transform="translate(0,0)"/>
<path d="" fill="#84A644" transform="translate(0,0)"/>
<path d="" fill="#81A43F" transform="translate(0,0)"/>
<path d="" fill="#95BA47" transform="translate(0,0)"/>
<path d="" fill="#83A243" transform="translate(0,0)"/>
<path d="" fill="#95BA49" transform="translate(0,0)"/>
<path d="" fill="#92BB49" transform="translate(0,0)"/>
<path d="" fill="#83A33F" transform="translate(0,0)"/>
<path d="" fill="#90BA51" transform="translate(0,0)"/>
<path d="" fill="#80A33A" transform="translate(0,0)"/>
<path d="" fill="#7DA636" transform="translate(0,0)"/>
<path d="" fill="#95BA49" transform="translate(0,0)"/>
<path d="" fill="#7BA63A" transform="translate(0,0)"/>
<path d="" fill="#97BA43" transform="translate(0,0)"/>
<path d="" fill="#95B851" transform="translate(0,0)"/>
<path d="" fill="#82A144" transform="translate(0,0)"/>
<path d="" fill="#93BA4D" transform="translate(0,0)"/>
<path d="" fill="#7F9F49" transform="translate(0,0)"/>
<path d="" fill="#92BC47" transform="translate(0,0)"/>
<path d="" fill="#7F9F49" transform="translate(0,0)"/>
<path d="" fill="#93B94F" transform="translate(0,0)"/>
<path d="" fill="#7DA636" transform="translate(0,0)"/>
<path d="" fill="#90BC4B" transform="translate(0,0)"/>
</svg>
