<?xml version="1.0" encoding="UTF-8"?>
<svg version="1.1" xmlns="http://www.w3.org/2000/svg" width="225" height="225">
<path d="M0 0 C22.26674298 21.2414533 34.32340754 47.32234199 35.1875 78.15234375 C35.51525407 109.0021956 23.43283485 135.27297499 2.375 157.375 C-17.34280512 176.43165584 -42.96652928 186.84398145 -70.3125 187.5625 C-72.14752427 187.49432572 -73.98114858 187.38458751 -75.8125 187.25 C-76.4818457 187.20746094 -77.15119141 187.16492188 -77.84082031 187.12109375 C-108.21940906 185.07398367 -132.64897215 172.63863383 -153.4765625 150.40625 C-169.5927984 131.84513621 -178.47289641 109.8652159 -179.8125 85.25 C-179.85375 84.51265625 -179.895 83.7753125 -179.9375 83.015625 C-180.56644553 59.58740415 -173.91732729 36.02027017 -159.8125 17.25 C-159.1628125 16.37859375 -158.513125 15.5071875 -157.84375 14.609375 C-140.50528192 -7.82054799 -116.04935921 -23.02402756 -87.82128906 -26.8515625 C-55.69916089 -30.53619826 -24.00274647 -22.13327822 0 0 Z " fill="#828282" transform="translate(184.8125,32.75)"/>
<path d="M0 0 C11.11267362 6.8463821 15.87831947 16.14158018 19.02050781 28.43139648 C20.15316629 33.32959397 20.13671875 37.08493991 20.13671875 42.31640625 C0.33671875 42.31640625 -19.46328125 42.31640625 -39.86328125 42.31640625 C-38.17708987 54.13635565 -38.17708987 54.13635565 -31.86328125 63.31640625 C-25.33586607 67.75850354 -18.65762531 69.10793343 -10.86328125 68.31640625 C-4.87742542 66.74522583 -0.09908762 64.84424213 3.13671875 59.31640625 C3.79671875 57.66640625 4.45671875 56.01640625 5.13671875 54.31640625 C9.42671875 54.31640625 13.71671875 54.31640625 18.13671875 54.31640625 C17.64039248 62.2576266 14.20183981 67.5982817 8.51171875 73.06640625 C-1.29124904 80.9995487 -12.75948909 81.57197448 -24.86328125 80.31640625 C-33.65503448 78.72078757 -40.11522885 74.06105618 -45.86328125 67.31640625 C-53.85031007 55.17876826 -55.95562661 40.29459805 -53.24609375 26.078125 C-49.93518464 14.78294392 -43.62478605 6.683643 -33.57421875 0.65625 C-23.68665852 -4.2305413 -10.09674503 -4.91980615 0 0 Z " fill="#FBFBFB" transform="translate(87.86328125,73.68359375)"/>
<path d="M0 0 C6.02051906 -1.15545315 12.10783778 -2.15170774 18 0 C23.18341919 4.38740745 26.35827924 10.59071795 29.57617188 16.47607422 C31.82693426 20.46585157 34.40620857 24.22736801 37 28 C43.77036883 19.81872138 49.85896464 11.23492104 55.91186523 2.51538086 C57 1 57 1 58 0 C60.69654854 -0.07319621 63.36691458 -0.09242537 66.0625 -0.0625 C66.82111328 -0.05798828 67.57972656 -0.05347656 68.36132812 -0.04882812 C70.24091871 -0.0370068 72.12046899 -0.01907078 74 0 C71.47790131 4.59239285 68.82969106 8.69683099 65.5625 12.8125 C59.11852956 21.02080223 53.07141535 29.51463117 47 38 C54.05226815 49.6426536 62.21132753 60.51272411 70.28515625 71.45703125 C70.79594727 72.15022461 71.30673828 72.84341797 71.83300781 73.55761719 C72.80246815 74.87134793 73.77438709 76.18326872 74.74902344 77.49316406 C78 81.89039643 78 81.89039643 78 83 C71.818926 84.86096852 65.99112351 85.94973104 60 83 C53.3646665 76.32802744 48.56372574 67.95206696 43.89024353 59.83509827 C41.85180786 56.29644571 39.62883256 53.12498357 37 50 C36.42258057 50.99966797 35.84516113 51.99933594 35.25024414 53.02929688 C33.0737128 56.7586906 30.81727438 60.43401833 28.53442383 64.09912109 C27.56136143 65.686299 26.60995162 67.28697803 25.68188477 68.90087891 C18.12479427 81.99120063 18.12479427 81.99120063 12.80389404 83.70898438 C7.76102809 84.40016451 2.98742189 83.87811148 -2 83 C2.2270362 75.49009945 2.2270362 75.49009945 4.375 72.6328125 C5.00825195 71.78178955 5.00825195 71.78178955 5.65429688 70.91357422 C6.09837891 70.32334473 6.54246094 69.73311523 7 69.125 C11.23474863 63.4220309 15.40023832 57.67586058 19.5 51.875 C20.00402344 51.1648877 20.50804687 50.45477539 21.02734375 49.72314453 C23.49662079 46.22249263 25.85990551 42.71624516 28 39 C27.64921387 38.52393311 27.29842773 38.04786621 26.93701172 37.55737305 C26.19088623 36.54477417 26.19088623 36.54477417 25.4296875 35.51171875 C24.86910645 34.75101074 24.30852539 33.99030273 23.73095703 33.20654297 C22.48422741 31.51438877 21.23781276 29.82200247 19.99169922 28.12939453 C16.65281883 23.59512287 13.30857285 19.06499723 9.953125 14.54296875 C8.99043701 13.2432312 8.99043701 13.2432312 8.00830078 11.91723633 C6.76378077 10.23727951 5.51739377 8.55870397 4.26904297 6.8815918 C3.70846191 6.12402588 3.14788086 5.36645996 2.5703125 4.5859375 C2.07289551 3.9161084 1.57547852 3.2462793 1.06298828 2.55615234 C0 1 0 1 0 0 Z " fill="#FCFCFC" transform="translate(113,71)"/>
<path d="M0 0 C5.88792954 2.65869687 9.87484539 7.28983971 12.890625 12.91015625 C13.515625 15.34765625 13.515625 15.34765625 13.515625 21.34765625 C-1.334375 21.34765625 -16.184375 21.34765625 -31.484375 21.34765625 C-30.42505052 12.87306039 -29.05881308 8.66055008 -22.921875 2.97265625 C-15.95899892 -1.66926113 -8.14791281 -2.13946767 0 0 Z " fill="#838383" transform="translate(79.484375,83.65234375)"/>
</svg>
