<?xml version="1.0" encoding="UTF-8"?>
<svg version="1.1" xmlns="http://www.w3.org/2000/svg" width="512" height="512">
<path d="M0 0 C1.94593563 -0.00599176 3.89186889 -0.01279879 5.83779907 -0.02035522 C11.10258893 -0.03795865 16.3673137 -0.04270828 21.63213015 -0.0439868 C24.92857183 -0.04541242 28.22499717 -0.04968984 31.52143478 -0.05498123 C43.04229525 -0.07346438 54.56310957 -0.08165419 66.08398438 -0.08007812 C76.7891887 -0.07887792 87.49419103 -0.09996095 98.19934428 -0.13156545 C107.41756365 -0.15780122 116.63571736 -0.16844233 125.85397375 -0.16716731 C131.34740969 -0.16665972 136.84066604 -0.17222941 142.33406448 -0.19352341 C147.50688804 -0.21302861 152.67936299 -0.21294701 157.85219955 -0.19849014 C159.7386349 -0.19641594 161.62509278 -0.20101889 163.51148987 -0.21321106 C189.16857339 -0.36814814 211.13362568 7.2526107 230.00927734 24.97802734 C246.81610786 42.66942789 254.33774442 64.40811109 254.17675781 88.61303711 C253.57057573 111.89767263 243.3720918 133.01150978 226.75927734 149.29052734 C213.90682053 160.55279664 199.0352622 166.78865919 182.75927734 171.29052734 C183.65646484 171.48646484 184.55365234 171.68240234 185.47802734 171.88427734 C208.62983025 177.43305655 228.98768817 190.61074639 241.75439453 211.01855469 C253.20360261 230.15119746 256.93382256 252.96886831 252.57177734 274.85302734 C248.33344745 291.33542139 240.81073187 305.21888613 228.75927734 317.29052734 C228.00001953 318.06138672 227.24076172 318.83224609 226.45849609 319.62646484 C209.26900224 336.11262426 186.09297586 342.58179351 162.75927734 343.29052734 C152.31662701 343.05009649 141.61917898 341.84933559 131.75927734 338.29052734 C130.78990234 337.94119141 129.82052734 337.59185547 128.82177734 337.23193359 C109.23298065 329.61129202 95.04798072 315.92744486 86.20068359 296.94677734 C84.41118579 292.76959268 82.82316039 288.70842627 81.75927734 284.29052734 C81.75781078 285.05214865 81.75634422 285.81376995 81.75483322 286.59847069 C81.71763837 305.20634929 81.65845722 323.81404212 81.5753746 342.42177391 C81.53571469 351.42067097 81.50325638 360.41948223 81.48828125 369.41845703 C81.4751966 377.27005636 81.44806035 385.12146586 81.40466428 392.97295821 C81.38220119 397.12296166 81.36635743 401.27273234 81.36739349 405.42280197 C81.36673218 437.84353357 77.58952879 464.12603693 54.57177734 488.85302734 C37.00147026 505.70941676 14.59724547 513.0009295 -9.35986328 512.7590332 C-33.5563484 512.02260172 -54.48089339 501.90196903 -71.11572266 484.41552734 C-88.22019041 464.29635748 -94.13256723 441.11990405 -92.24072266 415.29052734 C-89.88901443 394.57724536 -78.08938916 374.54947529 -62.55712891 360.93896484 C-50.14065936 351.13382879 -36.36133212 345.47282358 -21.24072266 341.29052734 C-22.58650391 340.99662109 -22.58650391 340.99662109 -23.95947266 340.69677734 C-38.77022925 337.14709188 -51.30486125 330.80722756 -63.24072266 321.29052734 C-64.45115234 320.40107422 -64.45115234 320.40107422 -65.68603516 319.49365234 C-68.89301633 316.72799885 -71.35463226 313.6379456 -73.92822266 310.29052734 C-74.41355469 309.67435547 -74.89888672 309.05818359 -75.39892578 308.42333984 C-77.6943692 305.47250775 -79.64507811 302.68618471 -81.24072266 299.29052734 C-81.90072266 298.63052734 -82.56072266 297.97052734 -83.24072266 297.29052734 C-84.07861328 295.49389648 -84.07861328 295.49389648 -84.89697266 293.32568359 C-85.19659912 292.53186279 -85.49622559 291.73804199 -85.80493164 290.92016602 C-94.2964628 267.62550122 -95.6111154 243.19718925 -85.20019531 220.13769531 C-75.28552789 199.43189778 -57.94914548 183.10096519 -36.24072266 175.29052734 C-31.28675759 173.77778978 -26.27450969 172.50651638 -21.24072266 171.29052734 C-21.80355957 171.12037109 -22.36639648 170.95021484 -22.94628906 170.77490234 C-48.65170058 162.89617014 -69.64871972 150.60861217 -82.57519531 126.33569336 C-93.14829799 105.55416329 -96.03886652 81.59342753 -88.88671875 59.15576172 C-81.30286118 37.25830448 -65.94583114 18.83595258 -45.24072266 8.29052734 C-42.54672458 7.06550196 -39.82022007 5.96431922 -37.05322266 4.91552734 C-36.42480469 4.67697021 -35.79638672 4.43841309 -35.14892578 4.19262695 C-23.51623156 0.03186365 -12.20424215 -0.00751186 0 0 Z M80.75927734 171.29052734 C80.75927734 191.42052734 80.75927734 211.55052734 80.75927734 232.29052734 C82.38005623 229.04896956 83.37834604 226.34697523 84.38427734 222.91552734 C88.32835781 210.98140933 94.84399121 201.11326726 103.75927734 192.29052734 C104.75314453 191.24638672 104.75314453 191.24638672 105.76708984 190.18115234 C115.24010129 180.88823617 129.72253923 174.39322704 142.75927734 172.29052734 C142.75927734 171.96052734 142.75927734 171.63052734 142.75927734 171.29052734 C122.29927734 171.29052734 101.83927734 171.29052734 80.75927734 171.29052734 Z " fill="#8750FE" transform="translate(175.24072265625,-0.29052734375)"/>
<path d="M0 0 C1.94593563 -0.00599176 3.89186889 -0.01279879 5.83779907 -0.02035522 C11.10258893 -0.03795865 16.3673137 -0.04270828 21.63213015 -0.0439868 C24.92857183 -0.04541242 28.22499717 -0.04968984 31.52143478 -0.05498123 C43.04229525 -0.07346438 54.56310957 -0.08165419 66.08398438 -0.08007812 C76.7891887 -0.07887792 87.49419103 -0.09996095 98.19934428 -0.13156545 C107.41756365 -0.15780122 116.63571736 -0.16844233 125.85397375 -0.16716731 C131.34740969 -0.16665972 136.84066604 -0.17222941 142.33406448 -0.19352341 C147.50688804 -0.21302861 152.67936299 -0.21294701 157.85219955 -0.19849014 C159.7386349 -0.19641594 161.62509278 -0.20101889 163.51148987 -0.21321106 C189.16857339 -0.36814814 211.13362568 7.2526107 230.00927734 24.97802734 C246.81610786 42.66942789 254.33774442 64.40811109 254.17675781 88.61303711 C253.57057573 111.89767263 243.3720918 133.01150978 226.75927734 149.29052734 C208.79295677 165.03394071 187.82459126 171.23162306 164.25927734 171.91552734 C163.48724976 171.93798523 162.71522217 171.96044312 161.9197998 171.98358154 C144.07141594 172.46668029 126.24294267 172.12827588 108.39526367 171.75878906 C105.64292727 171.70301838 102.89056677 171.64862605 100.13818359 171.59521484 C99.42422235 171.58132595 98.71026112 171.56743706 97.97466469 171.55312729 C84.56240396 171.2994524 71.15138661 171.22957195 57.73698807 171.18587875 C50.67858308 171.16068432 43.62022978 171.12271484 36.5618763 171.08605385 C30.69186808 171.05708673 24.82211116 171.03758141 18.95202637 171.03839111 C13.35379037 171.03909361 7.75608906 171.01642673 2.15799141 170.97777939 C0.08180671 170.96770265 -1.99444037 170.9661035 -4.07063484 170.97391129 C-28.79605209 171.05717291 -49.63521042 164.32240712 -67.66992188 146.88476562 C-84.64089858 129.6605695 -92.52359861 107.29056568 -92.55761719 83.390625 C-92.24716163 58.96428823 -81.43856489 38.51970533 -64.34619141 21.39208984 C-56.41897355 14.01560502 -47.12471362 8.73298587 -37.05322266 4.91552734 C-36.42480469 4.67697021 -35.79638672 4.43841309 -35.14892578 4.19262695 C-23.51623156 0.03186365 -12.20424215 -0.00751186 0 0 Z " fill="#FD7136" transform="translate(175.24072265625,-0.29052734375)"/>
<path d="M0 0 C0.99242392 -0.00024107 1.98484783 -0.00048214 3.0073452 -0.00073051 C6.18386534 0.00074881 9.36014356 0.01591762 12.53662109 0.03173828 C14.5121245 0.034683 16.48762948 0.0367208 18.46313477 0.0378418 C25.74546668 0.04827938 33.02776507 0.0762019 40.31005859 0.10205078 C56.60380859 0.14330078 72.89755859 0.18455078 89.68505859 0.22705078 C89.68505859 56.32705078 89.68505859 112.42705078 89.68505859 170.22705078 C72.87568359 170.33017578 56.06630859 170.43330078 38.74755859 170.53955078 C33.47279541 170.5850708 28.19803223 170.63059082 22.76342773 170.67749023 C16.23864746 170.70007324 16.23864746 170.70007324 13.16795349 170.70426941 C11.05864664 170.71186344 8.94935917 170.7292711 6.8401947 170.75492859 C-18.83505122 171.05119197 -39.97733491 164.96678759 -58.74414062 146.82128906 C-75.71511733 129.59709294 -83.59781736 107.22708912 -83.63183594 83.32714844 C-83.32138038 58.90081167 -72.51278364 38.45622877 -55.42041016 21.32861328 C-47.4931923 13.95212846 -38.19893237 8.66950931 -28.12744141 4.85205078 C-27.49902344 4.61349365 -26.87060547 4.37493652 -26.22314453 4.12915039 C-17.59823759 1.04420759 -9.12705512 -0.0729088 0 0 Z " fill="#FE3737" transform="translate(166.31494140625,-0.22705078125)"/>
<path d="M0 0 C2.31169136 0.0074743 4.62338911 0.0131616 6.93508911 0.01715088 C12.97509723 0.0323135 19.01471136 0.07151341 25.05456543 0.1159668 C31.23554152 0.15712305 37.41658219 0.17520511 43.59765625 0.1953125 C55.69288 0.23801765 67.7878133 0.30615375 79.8828125 0.390625 C79.97608436 12.20537773 80.04686477 24.02004081 80.09006119 35.83508873 C80.11080834 41.32313552 80.13888668 46.81092777 80.18457031 52.29882812 C80.22849232 57.609213 80.25204598 62.91935528 80.26232147 68.22990799 C80.26963061 70.24139848 80.28389953 72.25287788 80.30573273 74.26426315 C80.60011619 102.54633587 73.27088896 125.92391663 53.6953125 146.953125 C36.12500541 163.80951442 13.72078063 171.10102715 -10.23632812 170.85913086 C-34.43281324 170.12269937 -55.35735823 160.00206669 -71.9921875 142.515625 C-89.09665525 122.39645514 -95.00903207 99.22000171 -93.1171875 73.390625 C-90.76547927 52.67734302 -78.96585401 32.64957294 -63.43359375 19.0390625 C-58.00253923 14.75022433 -52.38325614 11.23919929 -46.2421875 8.078125 C-45.6433374 7.76472168 -45.0444873 7.45131836 -44.42749023 7.12841797 C-29.81130597 -0.03138849 -15.92513247 -0.1523151 0 0 Z " fill="#24CB71" transform="translate(176.1171875,341.609375)"/>
<path d="M0 0 C1.58212253 -0.01147871 3.16420759 -0.03186512 4.74609375 -0.06152344 C18.75390102 -0.32287402 31.43636852 1.33098777 44.01416016 8.04516602 C45.00935669 8.56276489 45.00935669 8.56276489 46.0246582 9.09082031 C68.16831923 20.89844975 82.01603867 38.93502532 89.51416016 62.60766602 C95.76029029 83.41599488 92.0389966 107.75947747 81.97900391 126.64672852 C77.66383107 133.97308558 72.76548679 140.28378691 66.76416016 146.29516602 C66.00490234 147.06602539 65.24564453 147.83688477 64.46337891 148.63110352 C47.27388505 165.11726293 24.09785867 171.58643218 0.76416016 172.29516602 C-9.67849018 172.05473516 -20.37593821 170.85397426 -30.23583984 167.29516602 C-31.68990234 166.77116211 -31.68990234 166.77116211 -33.17333984 166.23657227 C-52.77975705 158.60907577 -66.77196704 144.98843705 -75.75927734 126.09204102 C-79.79207219 116.81428177 -81.55063603 108.63829779 -81.60693359 98.57641602 C-81.61596207 97.56027222 -81.62499054 96.54412842 -81.6342926 95.49719238 C-81.6487436 93.35240598 -81.65766896 91.20757602 -81.66137695 89.06274414 C-81.67320448 85.83213923 -81.72238486 82.60348996 -81.77294922 79.37329102 C-81.94269541 57.86195092 -76.86749968 39.47514336 -61.56005859 23.59594727 C-60.79306641 22.83668945 -60.02607422 22.07743164 -59.23583984 21.29516602 C-58.13175781 20.14081055 -58.13175781 20.14081055 -57.00537109 18.96313477 C-41.19416676 3.41677472 -21.26627192 0.10687665 0 0 Z " fill="#01B5FE" transform="translate(337.23583984375,170.704833984375)"/>
<path d="M0 0 C34.32 0 68.64 0 104 0 C104.04125 15.118125 104.0825 30.23625 104.125 45.8125 C104.14320801 50.56760986 104.16141602 55.32271973 104.18017578 60.22192383 C104.18920898 66.07556152 104.18920898 66.07556152 104.19088745 68.82499695 C104.19393753 70.72535644 104.20092744 72.62571232 104.21115112 74.52604675 C104.31624243 95.10755611 104.31624243 95.10755611 102 104 C101.896875 103.360625 101.79375 102.72125 101.6875 102.0625 C101.460625 101.381875 101.23375 100.70125 101 100 C99.515 99.505 99.515 99.505 98 99 C98 66.66 98 34.32 98 1 C65.66 1 33.32 1 0 1 C0 0.67 0 0.34 0 0 Z " fill="#40BA7D" transform="translate(152,342)"/>
<path d="M0 0 C32.34 0 64.68 0 98 0 C98 19.14 98 38.28 98 58 C95.55349323 53.10698646 95.58361147 49.19166787 95.34375 43.80078125 C95.17359375 42.41439453 95.17359375 42.41439453 95 41 C94.34 40.67 93.68 40.34 93 40 C93 28.78 93 17.56 93 6 C94.32 5.67 95.64 5.34 97 5 C97 4.34 97 3.68 97 3 C65.32 3 33.64 3 1 3 C0.67 2.01 0.34 1.02 0 0 Z " fill="#9D4DD3" transform="translate(158,170)"/>
<path d="M0 0 C0.33 0 0.66 0 1 0 C1 19.14 1 38.28 1 58 C-31.01 58 -63.02 58 -96 58 C-96 57.34 -96 56.68 -96 56 C-49.965 55.505 -49.965 55.505 -3 55 C-3 43.78 -3 32.56 -3 21 C-2.01 20.67 -1.02 20.34 0 20 C0 13.4 0 6.8 0 0 Z " fill="#7569D2" transform="translate(255,284)"/>
<path d="M0 0 C0.99 0 1.98 0 3 0 C3 17.16 3 34.32 3 52 C2.67 52 2.34 52 2 52 C1.93941406 50.71222656 1.87882813 49.42445313 1.81640625 48.09765625 C1.73201753 46.41925841 1.6473687 44.74087364 1.5625 43.0625 C1.52318359 42.21236328 1.48386719 41.36222656 1.44335938 40.48632812 C1.40146484 39.67744141 1.35957031 38.86855469 1.31640625 38.03515625 C1.27974854 37.2862915 1.24309082 36.53742676 1.20532227 35.76586914 C1.18228937 33.97538674 1.18228937 33.97538674 0 33 C-0.08843793 30.55169574 -0.11528752 28.13179401 -0.09765625 25.68359375 C-0.0962413 24.95253922 -0.09482635 24.22148468 -0.09336853 23.46827698 C-0.08775408 21.12464368 -0.07519922 18.78110461 -0.0625 16.4375 C-0.05748686 14.85221492 -0.05292363 13.26692834 -0.04882812 11.68164062 C-0.03777997 7.7877239 -0.02050572 3.89387795 0 0 Z " fill="#815ECE" transform="translate(253,176)"/>
<path d="M0 0 C13.53 0 27.06 0 41 0 C41 0.33 41 0.66 41 1 C36.17656569 1.93733405 31.43799588 2.20817802 26.5390625 2.31640625 C25.74849457 2.33718735 24.95792664 2.35796844 24.1434021 2.37937927 C21.63734983 2.44435582 19.13119976 2.50351643 16.625 2.5625 C14.91795895 2.60573468 13.21092751 2.64935049 11.50390625 2.69335938 C7.33603574 2.7999834 3.16806761 2.90139441 -1 3 C-0.67 2.01 -0.34 1.02 0 0 Z " fill="#B08B74" transform="translate(319,169)"/>
<path d="M0 0 C0.99 0.33 1.98 0.66 3 1 C3 12.22 3 23.44 3 35 C1.02 35.495 1.02 35.495 -1 36 C-0.67 24.12 -0.34 12.24 0 0 Z " fill="#8454EC" transform="translate(250,304)"/>
<path d="M0 0 C3 3.75 3 3.75 3 6 C1.50390625 7.33203125 1.50390625 7.33203125 -0.4375 8.8125 C-2.9938918 10.9101844 -3.88777635 11.65584747 -4.9375 14.875 C-4.958125 15.57625 -4.97875 16.2775 -5 17 C-5.66 17 -6.32 17 -7 17 C-7.12375 17.639375 -7.2475 18.27875 -7.375 18.9375 C-7.58125 19.618125 -7.7875 20.29875 -8 21 C-8.66 21.33 -9.32 21.66 -10 22 C-7.707015 14.04199322 -4.05100513 7.18082279 0 0 Z " fill="#2EC179" transform="translate(97,378)"/>
<path d="M0 0 C0.66 0.33 1.32 0.66 2 1 C1.875 2.875 1.875 2.875 1 5 C0.05125 5.309375 -0.8975 5.61875 -1.875 5.9375 C-5.18928044 6.72542299 -5.18928044 6.72542299 -6.875 9.625 C-7.431875 10.800625 -7.431875 10.800625 -8 12 C-9.32 11.67 -10.64 11.34 -12 11 C-10.37807179 9.35113941 -8.75236228 7.7059976 -7.125 6.0625 C-6.22007813 5.14597656 -5.31515625 4.22945312 -4.3828125 3.28515625 C-2 1 -2 1 0 0 Z " fill="#8257E7" transform="translate(116,188)"/>
<path d="M0 0 C-1.423125 0.928125 -1.423125 0.928125 -2.875 1.875 C-5.94445109 3.81970969 -5.94445109 3.81970969 -8 6 C-11.625 5.625 -11.625 5.625 -15 5 C-11.55014028 1.85012808 -4.53875449 -2.26937725 0 0 Z " fill="#7C5BE3" transform="translate(147,174)"/>
<path d="M0 0 C2.48291009 3.01802003 3.91340355 5.89683437 5.25 9.5625 C5.60578125 10.51253906 5.9615625 11.46257812 6.328125 12.44140625 C7 15 7 15 6 18 C4.99095625 15.7536764 3.9926398 13.50356063 3 11.25 C2.71382813 10.61578125 2.42765625 9.9815625 2.1328125 9.328125 C0.63993298 5.91582896 0 3.79218083 0 0 Z " fill="#37BF7C" transform="translate(86,448)"/>
<path d="M0 0 C0.66 0.99 1.32 1.98 2 3 C1.171875 5.5234375 1.171875 5.5234375 -0.25 8.375 C-1.96926856 11.88114881 -3.59494897 15.35482045 -5 19 C-6.4650113 14.49628572 -4.86369593 11.41994594 -3.0625 7.25 C-2.77181641 6.55261719 -2.48113281 5.85523438 -2.18164062 5.13671875 C-1.46448297 3.42024305 -0.73356598 1.70952768 0 0 Z " fill="#EA4544" transform="translate(92,45)"/>
<path d="M0 0 C0.99 0 1.98 0 3 0 C1.96232949 6.06732052 0.66038099 11.4373852 -2 17 C-2.33 17 -2.66 17 -3 17 C-3.125 14.125 -3.125 14.125 -3 11 C-2.34 10.34 -1.68 9.68 -1 9 C-0.53993654 6.79749008 -0.53993654 6.79749008 -0.375 4.375 C-0.30023438 3.55773437 -0.22546875 2.74046875 -0.1484375 1.8984375 C-0.09945313 1.27195312 -0.05046875 0.64546875 0 0 Z " fill="#E67342" transform="translate(424,104)"/>
<path d="M0 0 C-0.33 1.98 -0.66 3.96 -1 6 C-1.66 6 -2.32 6 -3 6 C-3 5.34 -3 4.68 -3 4 C-4.65 5.32 -6.3 6.64 -8 8 C-8.66 7.67 -9.32 7.34 -10 7 C-8.71372289 5.82739389 -7.42080217 4.6620717 -6.125 3.5 C-5.04605469 2.52546875 -5.04605469 2.52546875 -3.9453125 1.53125 C-2 0 -2 0 0 0 Z " fill="#EB4439" transform="translate(119,16)"/>
<path d="M0 0 C1.13298556 3.39895668 0.85659602 4.26983438 -0.25 7.5625 C-0.62898438 8.74005859 -0.62898438 8.74005859 -1.015625 9.94140625 C-2 12 -2 12 -5 14 C-4.54636829 12.41531323 -4.08688548 10.83230076 -3.625 9.25 C-3.36976562 8.36828125 -3.11453125 7.4865625 -2.8515625 6.578125 C-2.0790066 4.23919428 -1.16374324 2.16557438 0 0 Z " fill="#7F5AE8" transform="translate(92,216)"/>
<path d="M0 0 C0 0.66 0 1.32 0 2 C-8.261959 6.59225513 -8.261959 6.59225513 -13 6 C-9.40464172 2.97989905 -4.81374718 0 0 0 Z " fill="#E9454A" transform="translate(139,5)"/>
<path d="M0 0 C0.66 0.33 1.32 0.66 2 1 C-3.75 6 -3.75 6 -6 6 C-6 4.35 -6 2.7 -6 1 C-4.7934375 1.0309375 -4.7934375 1.0309375 -3.5625 1.0625 C-1.06645115 1.29633621 -1.06645115 1.29633621 0 0 Z " fill="#3ABD76" transform="translate(226,489)"/>
<path d="M0 0 C0.66 0 1.32 0 2 0 C1.4409112 3.24271506 0.5867822 4.93057424 -2 7 C-2.66 7 -3.32 7 -4 7 C-2.92598892 4.08482708 -2.22189824 2.22189824 0 0 Z " fill="#8654E9" transform="translate(100,204)"/>
<path d="M0 0 C0.66 0.33 1.32 0.66 2 1 C-1.465 3.97 -1.465 3.97 -5 7 C-3.92643531 2.70574125 -3.4915227 2.25259529 0 0 Z " fill="#2AC184" transform="translate(233,482)"/>
<path d="M0 0 C-0.33 1.98 -0.66 3.96 -1 6 C-1.66 6 -2.32 6 -3 6 C-3 5.01 -3 4.02 -3 3 C-3.66 2.67 -4.32 2.34 -5 2 C-2 0 -2 0 0 0 Z " fill="#38BC7B" transform="translate(127,352)"/>
<path d="M0 0 C0 1.32 0 2.64 0 4 C-4.75 3.25 -4.75 3.25 -7 1 C-2.25 0 -2.25 0 0 0 Z " fill="#0BB6E3" transform="translate(304,332)"/>
</svg>
