<?xml version="1.0" encoding="UTF-8"?>
<svg version="1.1" xmlns="http://www.w3.org/2000/svg" width="512" height="512">
<path d="M0 0 C5.16192712 5.02726815 9.80364003 10.36133026 14.25292969 16.02685547 C15.17852681 17.20410147 16.10941137 18.37719899 17.04394531 19.54736328 C25.45537327 30.09663106 32.90825018 40.94608779 39.55859375 52.6875 C40.02007812 53.50202637 40.4815625 54.31655273 40.95703125 55.15576172 C56.33477067 82.64559492 65.46146368 111.70244856 70.55859375 142.6875 C70.7599292 143.88947021 70.7599292 143.88947021 70.96533203 145.11572266 C74.94850076 170.18559615 73.84786623 197.76846008 69.55859375 222.6875 C69.3251123 224.07340332 69.3251123 224.07340332 69.08691406 225.48730469 C64.44235696 251.93624962 55.0175013 276.98441711 42.55859375 300.6875 C41.99809326 301.76088623 41.99809326 301.76088623 41.42626953 302.85595703 C30.74506169 323.05770531 16.37224468 341.28286866 0.55859375 357.6875 C0.02443848 358.24356934 -0.5097168 358.79963867 -1.06005859 359.37255859 C-39.8912013 399.58846716 -91.66060882 423.8554194 -146.44140625 432.6875 C-147.24900391 432.82027344 -148.05660156 432.95304687 -148.88867188 433.08984375 C-212.40789633 443.01646531 -279.86750232 424.31835543 -331.7109375 387.37890625 C-387.6199741 346.27147567 -425.11415844 286.29335341 -435.79833984 217.44384766 C-445.13046898 153.48688315 -430.67156623 85.33972873 -392.44140625 32.6875 C-391.98975098 32.05086426 -391.5380957 31.41422852 -391.07275391 30.75830078 C-383.63003271 20.28439934 -375.40335818 10.87906159 -366.44140625 1.6875 C-365.82861816 1.04893066 -365.21583008 0.41036133 -364.58447266 -0.24755859 C-356.61377424 -8.55062911 -348.44300236 -16.151099 -339.19189453 -23.00634766 C-337.43250939 -24.31913852 -335.69992446 -25.66201419 -333.96875 -27.01171875 C-254.58231259 -88.09583893 -137.43702965 -92.56826927 0 0 Z " fill="#141414" transform="translate(438.44140625,76.3125)"/>
<path d="M0 0 C0.71353638 0.00202423 1.42707275 0.00404846 2.16223145 0.00613403 C2.89091431 0.00517731 3.61959717 0.00422058 4.37036133 0.00323486 C5.91377855 0.00255318 7.45719861 0.00440666 9.00061035 0.00857544 C11.37095544 0.01392391 13.74111104 0.00863011 16.1114502 0.00222778 C17.60754437 0.00288857 19.10363842 0.00416973 20.59973145 0.00613403 C21.31326782 0.0041098 22.0268042 0.00208557 22.76196289 0 C27.76602953 0.02399462 27.76602953 0.02399462 28.88098145 1.13894653 C28.98446507 3.66765668 29.02034392 6.16813528 29.01379395 8.69754028 C29.01577286 9.92657326 29.01577286 9.92657326 29.01779175 11.18043518 C29.01975676 13.97914017 29.01322635 16.77775104 29.00598145 19.57644653 C29.0046521 21.02751801 29.0046521 21.02751801 29.0032959 22.50790405 C28.96878955 55.38647783 28.38023545 88.26483632 27.88098145 121.13894653 C26.89098145 120.64394653 26.89098145 120.64394653 25.88098145 120.13894653 C25.55098145 120.79894653 25.22098145 121.45894653 24.88098145 122.13894653 C25.87098145 122.13894653 26.86098145 122.13894653 27.88098145 122.13894653 C27.88098145 128.07894653 27.88098145 134.01894653 27.88098145 140.13894653 C20.06848145 140.07644653 20.06848145 140.07644653 17.61999512 140.04885864 C14.43716332 140.0364803 11.92041823 140.12580094 8.88098145 141.13894653 C8.55098145 140.80894653 8.22098145 140.47894653 7.88098145 140.13894653 C7.88098145 140.46894653 7.88098145 140.79894653 7.88098145 141.13894653 C6.23098145 141.13894653 4.58098145 141.13894653 2.88098145 141.13894653 C2.88098145 140.47894653 2.88098145 139.81894653 2.88098145 139.13894653 C2.11785645 139.48957153 1.35473145 139.84019653 0.56848145 140.20144653 C-2.11901855 141.13894653 -2.11901855 141.13894653 -5.11901855 140.13894653 C-5.11378174 139.36969849 -5.10854492 138.60045044 -5.10314941 137.80789185 C-5.01032927 121.73003262 -5.11391461 105.6748874 -5.54782104 89.60235596 C-6.06729402 70.26072718 -6.23270479 50.9268534 -6.24240112 31.57931137 C-6.244018 29.45218191 -6.24757665 27.32506319 -6.25158691 25.19793701 C-6.25850193 21.21602198 -6.25601441 17.23414759 -6.25183105 13.25222778 C-6.253815 12.04087158 -6.25579895 10.82951538 -6.25784302 9.58145142 C-6.25473114 8.48063232 -6.25161926 7.37981323 -6.24841309 6.24563599 C-6.24761749 5.27914627 -6.2468219 4.31265656 -6.2460022 3.31687927 C-6.0011102 -0.8833334 -3.646613 0.0174856 0 0 Z " fill="#888888" transform="translate(332.1190185546875,152.86105346679688)"/>
<path d="M0 0 C0.76166977 0.00222061 1.52333954 0.00444122 2.30809021 0.00672913 C3.16890701 0.00680466 4.02972382 0.00688019 4.91662598 0.00695801 C5.8520372 0.01211929 6.78744843 0.01728058 7.75120544 0.02259827 C8.70422043 0.02401321 9.65723541 0.02542816 10.63912964 0.02688599 C13.69605085 0.032503 16.75289996 0.04505836 19.80979919 0.05775452 C21.87685543 0.06276733 23.94391281 0.06733061 26.01097107 0.07142639 C31.08977507 0.08247795 36.16852489 0.09975397 41.24729919 0.12025452 C41.24729919 0.45025452 41.24729919 0.78025452 41.24729919 1.12025452 C39.39213684 1.15783875 39.39213684 1.15783875 37.49949646 1.19618225 C32.92793206 1.29007705 28.35652602 1.39034081 23.78514099 1.49256897 C21.80340773 1.53598595 19.82163542 1.57765588 17.83982849 1.61756897 C14.9976675 1.67510834 12.15570437 1.73884896 9.31370544 1.80384827 C8.42204178 1.82056076 7.53037811 1.83727325 6.61169434 1.85449219 C2.60781525 1.55684152 2.60781525 1.55684152 -0.75270081 3.12025452 C-0.86288145 5.71228643 -0.90766414 8.27824719 -0.91091919 10.87124634 C-0.91832616 12.10371901 -0.91832616 12.10371901 -0.92588276 13.36109012 C-0.94133589 16.13570852 -0.9496394 18.91030366 -0.95802307 21.68495178 C-0.96759547 23.66537178 -0.97760516 25.64578971 -0.98802185 27.62620544 C-1.01514623 33.0205891 -1.03611487 38.41498157 -1.05602384 43.80939603 C-1.07783709 49.44020792 -1.1052485 55.07099241 -1.13208008 60.70178223 C-1.18207019 71.3725649 -1.2269855 82.04336274 -1.27010244 92.71417516 C-1.31942094 104.85908816 -1.37435898 117.00397367 -1.42978203 129.1488601 C-1.54369904 154.13929946 -1.65031746 179.12976547 -1.75270081 204.12025452 C9.46729919 204.12025452 20.68729919 204.12025452 32.24729919 204.12025452 C32.24729919 204.45025452 32.24729919 204.78025452 32.24729919 205.12025452 C20.69729919 205.12025452 9.14729919 205.12025452 -2.75270081 205.12025452 C-2.77581652 178.53922999 -2.79367834 151.95820787 -2.80451298 125.37717533 C-2.80967664 113.03607911 -2.81672068 100.69498924 -2.82814026 88.35389709 C-2.83808495 77.60161998 -2.84455372 66.84934745 -2.8467893 56.09706587 C-2.84809677 50.40002241 -2.85118493 44.70299209 -2.85843086 39.00595284 C-2.86518769 33.65038252 -2.86731846 28.29483084 -2.86580849 22.93925667 C-2.86608497 20.9675181 -2.86809208 18.99577894 -2.87190628 17.02404404 C-2.87683826 14.3443853 -2.87570094 11.66479813 -2.87295532 8.98513794 C-2.87586816 8.19429733 -2.87878101 7.40345672 -2.88178211 6.58865124 C-2.86392213 0.1964965 -2.86392213 0.1964965 0 0 Z " fill="#535353" transform="translate(155.75270080566406,152.87974548339844)"/>
<path d="M0 0 C0.66 0 1.32 0 2 0 C4.54964086 3.53659861 6.79035353 7.24360101 9 11 C6.1875 11.6875 6.1875 11.6875 3 12 C1.125 10.6875 1.125 10.6875 0 9 C0 8.34 0 7.68 0 7 C0.66 7 1.32 7 2 7 C2 6.34 2 5.68 2 5 C1.34 5 0.68 5 0 5 C0 3.35 0 1.7 0 0 Z " fill="#D4D4D4" transform="translate(332,329)"/>
<path d="M0 0 C0.66 0 1.32 0 2 0 C3.65 2.97 5.3 5.94 7 9 C6.34 9 5.68 9 5 9 C4.67 8.34 4.34 7.68 4 7 C2.02 7 0.04 7 -2 7 C-1.42415568 4.61435923 -0.77772405 2.33317216 0 0 Z " fill="#A9A9A9" transform="translate(350,352)"/>
<path d="M0 0 C1.32 0 2.64 0 4 0 C4 0.99 4 1.98 4 3 C4.99 3 5.98 3 7 3 C7.33 4.32 7.66 5.64 8 7 C7.01 7.33 6.02 7.66 5 8 C2 4.25 2 4.25 2 2 C1.34 2 0.68 2 0 2 C0 1.34 0 0.68 0 0 Z " fill="#7F7F7F" transform="translate(340,393)"/>
<path d="M0 0 C1.75 0.125 1.75 0.125 4 1 C6.3125 3.875 6.3125 3.875 8 7 C7.67 7.99 7.34 8.98 7 10 C5.83043409 8.52312468 4.66441854 7.04343707 3.5 5.5625 C2.8503125 4.73878906 2.200625 3.91507812 1.53125 3.06640625 C0 1 0 1 0 0 Z " fill="#CCCCCC" transform="translate(308,352)"/>
<path d="M0 0 C0.66 0 1.32 0 2 0 C2.99 1.98 3.98 3.96 5 6 C3.68 6 2.36 6 1 6 C0.4465236 3.92446352 0 2.15634036 0 0 Z " fill="#8E8E8E" transform="translate(360,365)"/>
</svg>
