<?xml version="1.0" encoding="UTF-8"?>
<svg version="1.1" xmlns="http://www.w3.org/2000/svg" width="860" height="860">
<path d="M0 0 C3.24212532 0.00315405 6.48332854 -0.02039313 9.7253418 -0.0456543 C54.05478602 -0.18030069 98.04868442 10.12071293 137.07495117 31.31567383 C138.07655273 31.85780518 138.07655273 31.85780518 139.09838867 32.41088867 C154.87815435 41.06370829 169.55255436 51.52341047 182.58666992 63.94458008 C184.69304458 65.95175342 186.8410677 67.82986254 189.07495117 69.69067383 C216.25093406 93.4415845 229.99080791 122.3393802 232.86108398 158.03637695 C239.07683221 253.34451643 201.08638582 353.39724036 130.07495117 493.31567383 C142.08748142 492.43606779 153.79358149 490.89766875 165.63745117 488.69067383 C180.59137603 485.97186708 196.53159665 483.47802716 211.07495117 489.31567383 C211.76202148 489.5709082 212.4490918 489.82614258 213.15698242 490.08911133 C223.10013676 494.36447158 230.64843062 502.73832756 235.03588867 512.44067383 C238.943295 523.0516121 238.48548323 536.11357129 234.38745117 546.55786133 C224.06365325 568.25012719 204.31138544 582.5578255 184.07495117 594.31567383 C183.46184082 594.6764502 182.84873047 595.03722656 182.21704102 595.40893555 C148.38832593 615.11736505 101.86056969 623.7276206 63.07495117 618.31567383 C63.05307739 619.46338257 63.05307739 619.46338257 63.03076172 620.63427734 C61.62459905 688.00586609 59.01190408 771.82250168 7.43676758 821.90649414 C0.01597933 828.81173289 -8.06634114 834.37544326 -16.92504883 839.31567383 C-17.97821289 839.90993164 -19.03137695 840.50418945 -20.11645508 841.11645508 C-51.28971056 857.7152015 -96.55468851 867.83233468 -131.28051758 857.63989258 C-142.62234425 853.51890732 -152.53328677 849.10075809 -161.92504883 841.31567383 C-162.76422852 840.63891602 -163.6034082 839.9621582 -164.46801758 839.26489258 C-183.17727718 823.39828017 -191.3387769 801.97290394 -198.92504883 779.31567383 C-199.37823486 777.98995361 -199.37823486 777.98995361 -199.84057617 776.63745117 C-212.31267533 739.82568707 -212.21380319 699.29993488 -213.59301758 660.83911133 C-213.62722305 659.89461624 -213.66142853 658.95012115 -213.69667053 657.977005 C-213.87524957 652.75285308 -213.95750396 647.54285893 -213.92504883 642.31567383 C-214.66625977 642.63020508 -215.4074707 642.94473633 -216.17114258 643.26879883 C-252.29574775 657.94856494 -295.40415521 656.68342263 -331.46801758 642.30004883 C-341.89502041 637.8508362 -350.81114734 631.19345649 -358.92504883 623.31567383 C-359.63854492 623.82614258 -359.63854492 623.82614258 -360.36645508 624.34692383 C-380.12402193 638.02803826 -400.22429763 644.73104327 -424.39770508 640.65551758 C-452.93151756 634.78190655 -475.22405394 612.12328467 -490.92504883 588.75317383 C-537.66741834 517.41834051 -559.66862634 431.05959559 -598.17504883 220.44067383 C-598.17572357 219.61541199 -598.17639832 218.79015015 -598.17709351 217.93988037 C-598.11336884 168.35732695 -588.6682353 117.44955088 -557.92504883 77.31567383 C-557.19415039 76.35918945 -556.46325195 75.40270508 -555.71020508 74.41723633 C-525.96448526 36.87200589 -481.62717613 18.70779957 -435.10913086 12.67578125 C-411.83886069 10.04400326 -388.15986298 10.65029652 -364.92504883 13.31567383 C-363.35231201 13.49308105 -363.35231201 13.49308105 -361.74780273 13.67407227 C-334.8202546 16.83256396 -308.17412522 22.67568619 -282.30957031 30.78930664 C-272.82963596 34.24010802 -272.82963596 34.24010802 -263.29614258 32.72583008 C-261.97759646 31.95572368 -260.66677224 31.17229537 -259.36254883 30.37817383 C-243.09658577 21.17934176 -225.20212223 15.8544993 -206.92504883 12.31567383 C-206.11777344 12.15196289 -205.31049805 11.98825195 -204.47875977 11.81958008 C-176.04346699 6.30347519 -144.92450139 8.05473239 -116.30786133 11.56176758 C-114.18071549 11.81692013 -112.05309774 12.06816617 -109.92504883 12.31567383 C-108.758125 12.45199219 -107.59120117 12.58831055 -106.38891602 12.72875977 C-98.57961098 13.48573014 -92.40554234 12.94778772 -84.92504883 10.69067383 C-75.57410713 8.12345359 -66.24240392 6.14847253 -56.67504883 4.56567383 C-55.50586914 4.3676416 -54.33668945 4.16960938 -53.13208008 3.96557617 C-35.43229503 1.10280707 -17.92578907 -0.03625712 0 0 Z " fill="#FBFCFD" transform="translate(611.925048828125,-0.315673828125)"/>
<path d="M0 0 C1.20785156 0.46019531 2.41570312 0.92039062 3.66015625 1.39453125 C39.29684534 15.85760858 72.40345409 41.70939851 96 72 C96.87857473 73.08986059 97.75886862 74.17833692 98.640625 75.265625 C141 127.79751001 141 127.79751001 141 152 C140.01942627 151.97905273 139.03885254 151.95810547 138.02856445 151.93652344 C95.62493836 150.75750814 95.62493836 150.75750814 59 170 C58.401875 170.4846875 57.80375 170.969375 57.1875 171.46875 C53.05173634 175.0875432 50.38043052 179.40643722 47.75 184.1875 C47.42056396 184.77466797 47.09112793 185.36183594 46.75170898 185.96679688 C41.17464664 196.63323163 40.45253496 207.78310742 40.5625 219.625 C40.56587372 220.33131561 40.56924744 221.03763123 40.57272339 221.76535034 C40.64408724 232.09559684 41.29006901 241.85218322 44.32421875 251.77832031 C45.07732138 254.25419962 45.75681974 256.7454595 46.4375 259.2421875 C56.89323094 296.53818866 75.32792467 331.61958885 94.48828125 365.1015625 C95.07391846 366.12813965 95.65955566 367.1547168 96.26293945 368.21240234 C97.38082146 370.16724253 98.50515637 372.11841404 99.63745117 374.06494141 C102.55641063 379.1507076 104.96885702 384.18449168 107.06103516 389.66015625 C108.49234104 393.22688418 110.28513494 396.54087057 112.1875 399.875 C112.57478271 400.55771973 112.96206543 401.24043945 113.36108398 401.94384766 C117.68525582 409.4083478 122.82040707 416.1047255 128.2734375 422.78515625 C128.98757813 423.66042969 129.70171875 424.53570312 130.4375 425.4375 C131.07558594 426.19933594 131.71367188 426.96117187 132.37109375 427.74609375 C134.06106201 430.08449108 135.04770462 432.28667599 136 435 C135.2265625 435.29132813 134.453125 435.58265625 133.65625 435.8828125 C122.65765829 440.21146617 113.05665161 446.03694313 107.5234375 456.8984375 C103.74059627 465.68082327 101.78786129 473.71336093 101.546875 483.21484375 C101.17716044 492.86906852 100.0471648 502.29821843 98.64672852 511.85079956 C97.9461022 516.63968819 97.27780853 521.43309056 96.609375 526.2265625 C96.47217041 527.20799728 96.33496582 528.18943207 96.19360352 529.2006073 C94.80075505 539.26152422 93.63657972 549.34496572 92.5 559.4375 C90.16582704 580.08380992 87.43652628 600.66899216 84.64160156 621.25732422 C83.82600983 627.27332409 83.03371072 633.29227123 82.25 639.3125 C82.13366211 640.19292969 82.01732422 641.07335937 81.89746094 641.98046875 C81.40496466 645.7322613 80.93983518 649.4816709 80.5546875 653.24609375 C78.38669342 673.94284552 72.63821839 694.8508693 59 711 C58.09507812 712.07314453 58.09507812 712.07314453 57.171875 713.16796875 C40.4887616 731.28807301 8.65704352 740.02264211 -15.203125 741.49609375 C-34.03641529 742.13164119 -49.72783013 738.50075074 -64.0625 725.5625 C-88.24507082 699.79418683 -89.79084187 664.28667866 -91.6015625 630.9765625 C-91.6672002 629.7813158 -91.73283791 628.58606911 -91.80046463 627.35460281 C-92.86915495 607.38307508 -93.27839621 587.45653032 -93.3359375 567.4609375 C-93.33923112 566.44287254 -93.33923112 566.44287254 -93.34259129 565.40424061 C-93.38244155 552.92287979 -93.38644379 540.44152822 -93.36414778 527.96012938 C-93.3517582 520.95258174 -93.3537558 513.94536248 -93.38253558 506.9378525 C-93.39508158 503.65940241 -93.39534617 500.38169695 -93.37784958 497.10325241 C-93.27923058 478.50618845 -93.95766691 463.53086024 -107 449 C-114.66934303 441.45943326 -125.26915676 436.24249822 -136.11328125 435.90234375 C-137.69689453 435.91974609 -137.69689453 435.91974609 -139.3125 435.9375 C-140.91544922 435.95103516 -140.91544922 435.95103516 -142.55078125 435.96484375 C-143.35902344 435.97644531 -144.16726563 435.98804688 -145 436 C-144.39619136 430.37936153 -142.97067722 425.43512954 -141.0625 420.125 C-140.75602539 419.26277832 -140.44955078 418.40055664 -140.13378906 417.51220703 C-134.81285642 402.73913394 -128.83261891 388.21901291 -122.63012695 373.79736328 C-115.64692283 357.53355296 -110.20648008 341.44079038 -107 324 C-106.82049805 323.06704102 -106.64099609 322.13408203 -106.45605469 321.17285156 C-104.48290423 309.50690832 -104.60430493 297.8003484 -104.625 286 C-104.62521149 284.89084229 -104.62542297 283.78168457 -104.62564087 282.63891602 C-104.65968351 264.73281047 -105.76219921 247.63612394 -109 230 C-109.40192742 227.63556706 -109.80295955 225.27098178 -110.203125 222.90625 C-113.85636814 202.02328593 -118.99166718 180.29535326 -137.375 167.32421875 C-159.78347654 153.21388118 -183.9956978 154.57241288 -208.8359375 159.80859375 C-224.1764653 163.55221496 -238.8137972 170.16577091 -253 177 C-253.47630621 167.44935053 -252.04336537 158.30880499 -250.4375 148.9375 C-250.30339722 148.14587463 -250.16929443 147.35424927 -250.03112793 146.53863525 C-245.0133398 117.16634296 -236.70530577 88.1042093 -222 62 C-221.38753418 60.91066162 -221.38753418 60.91066162 -220.76269531 59.79931641 C-214.7608948 49.27058333 -208.10099718 39.99261636 -200 31 C-199.38640625 30.25492188 -198.7728125 29.50984375 -198.140625 28.7421875 C-193.41788711 23.00743435 -187.84435362 18.55252579 -182 14 C-181.08347656 13.25621094 -180.16695313 12.51242188 -179.22265625 11.74609375 C-162.7438944 -1.25155792 -143.50142926 -8.99040732 -123 -13 C-121.82050781 -13.2784375 -120.64101563 -13.556875 -119.42578125 -13.84375 C-80.50304707 -22.35537157 -36.53433492 -13.98928474 0 0 Z " fill="#326790" transform="translate(535,72)"/>
<path d="M0 0 C1.16727127 -0.00009064 1.16727127 -0.00009064 2.35812378 -0.00018311 C12.34337601 0.01086466 22.17462475 0.2054853 32.07421875 1.6328125 C34.74132091 2.01575336 37.34152737 2.33083546 40.01953125 2.5546875 C63.68596395 4.5911839 94.34595008 9.39172504 115.9375 20.1875 C114.25137412 24.31699393 111.30073931 27.34203254 108.375 30.625 C88.82106323 53.07137522 75.48797819 80.15671986 65.9375 108.1875 C65.49921875 109.42757812 65.0609375 110.66765625 64.609375 111.9453125 C57.44914886 133.29003726 53.92717912 155.93394161 50.9375 178.1875 C50.78716309 179.26729126 50.78716309 179.26729126 50.63378906 180.36889648 C49.77759805 187.13646582 49.58990512 193.94467729 49.37988281 200.75708008 C49.31405596 202.82609449 49.23547588 204.89435236 49.15625 206.96289062 C48.88683523 214.85694732 48.98752682 222.67023623 49.39453125 230.55859375 C50.06462596 243.55843116 50.21941811 256.54673907 50.25 269.5625 C50.25394775 270.79864044 50.25789551 272.03478088 50.26196289 273.30838013 C50.28830731 291.10561261 49.5803094 308.61488619 47.3605957 326.27685547 C45.69635301 339.57432927 44.7046804 353.2065389 47 366.5 C47.12793945 367.26723389 47.25587891 368.03446777 47.38769531 368.82495117 C51.71331022 392.43282639 62.6135457 418.06433394 80.9375 434.1875 C83.62386558 436.81416857 85.85335694 439.06128541 87.9375 442.1875 C87.05449219 443.13109375 86.17148437 444.0746875 85.26171875 445.046875 C82.10157893 448.42606947 78.94596903 451.80945591 75.79296875 455.1953125 C74.64266514 456.43037532 73.49174325 457.66486298 72.33984375 458.8984375 C66.74643973 464.89456661 61.39152055 471.01607445 56.25 477.40625 C53.73777604 480.42770855 51.11330369 483.31172686 48.4375 486.1875 C44.22870826 490.71575424 40.26642748 495.38993927 36.3828125 500.19921875 C31.37551108 506.31836505 26.18589374 512.27475263 20.9375 518.1875 C20.14214844 519.09371094 19.34679687 519.99992188 18.52734375 520.93359375 C11.5776486 528.41302973 3.71495879 533.4099489 -6.6875 533.875 C-20.52326362 533.08532503 -29.78635832 523.14485312 -38.5703125 513.33984375 C-41.93700266 509.43529364 -44.90888257 505.3609274 -47.75 501.0625 C-48.25837402 500.29389648 -48.76674805 499.52529297 -49.29052734 498.73339844 C-59.89726844 482.41082053 -68.32220572 465.01312831 -76.0625 447.1875 C-76.42327637 446.36652832 -76.78405273 445.54555664 -77.15576172 444.69970703 C-82.06095969 433.51657934 -86.28881243 422.18454362 -90.21850586 410.62548828 C-91.1354081 407.97689534 -92.08899689 405.34355386 -93.05078125 402.7109375 C-113.17947192 347.57040804 -127.17456937 289.80091717 -138.0625 232.1875 C-138.21654297 231.3732959 -138.37058594 230.5590918 -138.52929688 229.72021484 C-139.54368023 224.3385874 -140.53187269 218.95263081 -141.5 213.5625 C-141.62019501 212.89941833 -141.74039001 212.23633667 -141.86422729 211.55316162 C-144.98646668 194.20021619 -146.44993212 177.2446676 -146.375 159.625 C-146.37284485 158.70751984 -146.3706897 157.79003967 -146.36846924 156.84475708 C-146.26130091 128.31165388 -143.23483344 99.36392579 -131.0625 73.1875 C-130.78212891 72.55618164 -130.50175781 71.92486328 -130.21289062 71.27441406 C-117.2348352 42.15257447 -94.44282161 21.92257495 -65.0625 10.1875 C-43.9102851 2.38315733 -22.41537635 -0.02673625 0 0 Z " fill="#32678F" transform="translate(208.0625,57.8125)"/>
<path d="M0 0 C3.24212532 0.00315405 6.48332854 -0.02039313 9.7253418 -0.0456543 C54.05478602 -0.18030069 98.04868442 10.12071293 137.07495117 31.31567383 C138.07655273 31.85780518 138.07655273 31.85780518 139.09838867 32.41088867 C154.87815435 41.06370829 169.55255436 51.52341047 182.58666992 63.94458008 C184.69304458 65.95175342 186.8410677 67.82986254 189.07495117 69.69067383 C216.25093406 93.4415845 229.99080791 122.3393802 232.86108398 158.03637695 C239.07683221 253.34451643 201.08638582 353.39724036 130.07495117 493.31567383 C142.08748142 492.43606779 153.79358149 490.89766875 165.63745117 488.69067383 C180.59137603 485.97186708 196.53159665 483.47802716 211.07495117 489.31567383 C211.76202148 489.5709082 212.4490918 489.82614258 213.15698242 490.08911133 C223.10013676 494.36447158 230.64843062 502.73832756 235.03588867 512.44067383 C238.943295 523.0516121 238.48548323 536.11357129 234.38745117 546.55786133 C224.06365325 568.25012719 204.31138544 582.5578255 184.07495117 594.31567383 C183.46184082 594.6764502 182.84873047 595.03722656 182.21704102 595.40893555 C148.38832593 615.11736505 101.86056969 623.7276206 63.07495117 618.31567383 C63.05307739 619.46338257 63.05307739 619.46338257 63.03076172 620.63427734 C61.62459905 688.00586609 59.01190408 771.82250168 7.43676758 821.90649414 C0.01597933 828.81173289 -8.06634114 834.37544326 -16.92504883 839.31567383 C-17.97821289 839.90993164 -19.03137695 840.50418945 -20.11645508 841.11645508 C-51.28971056 857.7152015 -96.55468851 867.83233468 -131.28051758 857.63989258 C-142.62234425 853.51890732 -152.53328677 849.10075809 -161.92504883 841.31567383 C-162.76422852 840.63891602 -163.6034082 839.9621582 -164.46801758 839.26489258 C-183.17727718 823.39828017 -191.3387769 801.97290394 -198.92504883 779.31567383 C-199.37823486 777.98995361 -199.37823486 777.98995361 -199.84057617 776.63745117 C-212.31267533 739.82568707 -212.21380319 699.29993488 -213.59301758 660.83911133 C-213.62722305 659.89461624 -213.66142853 658.95012115 -213.69667053 657.977005 C-213.87524957 652.75285308 -213.95750396 647.54285893 -213.92504883 642.31567383 C-214.66625977 642.63020508 -215.4074707 642.94473633 -216.17114258 643.26879883 C-252.29574775 657.94856494 -295.40415521 656.68342263 -331.46801758 642.30004883 C-341.89502041 637.8508362 -350.81114734 631.19345649 -358.92504883 623.31567383 C-359.63854492 623.82614258 -359.63854492 623.82614258 -360.36645508 624.34692383 C-380.12402193 638.02803826 -400.22429763 644.73104327 -424.39770508 640.65551758 C-452.93151756 634.78190655 -475.22405394 612.12328467 -490.92504883 588.75317383 C-537.66741834 517.41834051 -559.66862634 431.05959559 -598.17504883 220.44067383 C-598.17572357 219.61541199 -598.17639832 218.79015015 -598.17709351 217.93988037 C-598.11336884 168.35732695 -588.6682353 117.44955088 -557.92504883 77.31567383 C-557.19415039 76.35918945 -556.46325195 75.40270508 -555.71020508 74.41723633 C-525.96448526 36.87200589 -481.62717613 18.70779957 -435.10913086 12.67578125 C-411.83886069 10.04400326 -388.15986298 10.65029652 -364.92504883 13.31567383 C-363.35231201 13.49308105 -363.35231201 13.49308105 -361.74780273 13.67407227 C-334.8202546 16.83256396 -308.17412522 22.67568619 -282.30957031 30.78930664 C-272.82963596 34.24010802 -272.82963596 34.24010802 -263.29614258 32.72583008 C-261.97759646 31.95572368 -260.66677224 31.17229537 -259.36254883 30.37817383 C-243.09658577 21.17934176 -225.20212223 15.8544993 -206.92504883 12.31567383 C-206.11777344 12.15196289 -205.31049805 11.98825195 -204.47875977 11.81958008 C-176.04346699 6.30347519 -144.92450139 8.05473239 -116.30786133 11.56176758 C-114.18071549 11.81692013 -112.05309774 12.06816617 -109.92504883 12.31567383 C-108.758125 12.45199219 -107.59120117 12.58831055 -106.38891602 12.72875977 C-98.57961098 13.48573014 -92.40554234 12.94778772 -84.92504883 10.69067383 C-75.57410713 8.12345359 -66.24240392 6.14847253 -56.67504883 4.56567383 C-55.50586914 4.3676416 -54.33668945 4.16960938 -53.13208008 3.96557617 C-35.43229503 1.10280707 -17.92578907 -0.03625712 0 0 Z M-36.92504883 25.31567383 C-38.18647705 25.46045166 -38.18647705 25.46045166 -39.47338867 25.6081543 C-50.42377685 26.8815525 -61.15922807 28.88806775 -71.92504883 31.25317383 C-73.02236328 31.49390625 -74.11967773 31.73463867 -75.25024414 31.98266602 C-80.82936639 33.24995985 -86.24038867 34.71525179 -91.67504883 36.50708008 C-100.29753217 39.20974619 -106.98229043 38.55147142 -115.61254883 36.44067383 C-161.18657091 26.30019683 -214.76494142 29.96026774 -255.11254883 54.75317383 C-255.80759521 55.20273437 -256.5026416 55.65229492 -257.21875 56.11547852 C-261.29639511 58.68286625 -263.97475357 60.11070243 -268.92504883 59.31567383 C-272.19157432 58.31879543 -275.36040969 57.09566033 -278.55004883 55.87817383 C-337.75302985 34.36087861 -415.51233506 21.38710015 -475.92504883 45.31567383 C-476.60728516 45.58105957 -477.28952148 45.84644531 -477.99243164 46.11987305 C-495.21312024 52.93079787 -510.06405107 62.03955023 -523.92504883 74.31567383 C-524.44437988 74.77167969 -524.96371094 75.22768555 -525.4987793 75.69750977 C-534.16298076 83.43329999 -540.61127791 92.64023406 -546.92504883 102.31567383 C-547.49932617 103.18699951 -547.49932617 103.18699951 -548.08520508 104.07592773 C-580.29515507 153.80226657 -578.48522798 222.77372535 -568.39044189 278.73236084 C-567.92045512 281.34117267 -567.45982187 283.95150623 -567.00073242 286.56225586 C-562.62921892 311.28189437 -557.33352922 335.76628961 -551.44390869 360.16595459 C-550.94732139 362.22339504 -550.4532923 364.28143491 -549.9597168 366.33959961 C-546.07297435 382.47446256 -541.72958214 398.43086717 -536.92504883 414.31567383 C-536.62034668 415.32597656 -536.31564453 416.3362793 -536.00170898 417.37719727 C-534.27341491 423.10075679 -532.53461373 428.82100642 -530.77783203 434.53588867 C-530.18687454 436.46221046 -529.59973048 438.3897047 -529.015625 440.31811523 C-512.66284715 494.06107516 -492.88990504 554.33098077 -452.92504883 595.31567383 C-452.31274414 595.98985352 -451.70043945 596.6640332 -451.06958008 597.35864258 C-442.63957274 606.42941057 -428.81508487 615.01576094 -416.20239258 615.68676758 C-405.49312986 615.93402762 -396.56592282 615.49564618 -386.92504883 610.31567383 C-386.03301758 609.86579102 -385.14098633 609.4159082 -384.22192383 608.95239258 C-372.26853138 602.18928895 -362.58631573 590.78777149 -354.16333008 580.12817383 C-351.49117457 576.77049151 -348.72046138 573.50838115 -345.92504883 570.25317383 C-345.15644531 569.35719482 -345.15644531 569.35719482 -344.37231445 568.44311523 C-340.67532064 564.15002248 -336.88946794 559.94438869 -333.07739258 555.75317383 C-330.73839529 553.10429124 -328.51704223 550.3797879 -326.30004883 547.62817383 C-323.23966528 543.84519972 -320.08209568 540.35326028 -316.58911133 536.97192383 C-314.86345406 535.25436824 -313.26747551 533.46965302 -311.67504883 531.62817383 C-311.1052832 530.9759082 -310.53551758 530.32364258 -309.94848633 529.65161133 C-308.83388625 528.36487224 -307.72242979 527.07530158 -306.62524414 525.77368164 C-305.19869704 524.08650586 -303.75087589 522.41948709 -302.30004883 520.75317383 C-301.8446875 520.2037915 -301.38932617 519.65440918 -300.92016602 519.08837891 C-299.57348633 517.56176758 -299.57348633 517.56176758 -296.92504883 515.31567383 C-292.69316326 515.28121222 -288.78652957 517.54203594 -284.92504883 519.19067383 C-278.06589338 522.03066723 -271.23440588 523.94824364 -263.92504883 525.31567383 C-262.92344727 525.50387695 -261.9218457 525.69208008 -260.88989258 525.88598633 C-258.05630767 526.29665081 -255.40925945 526.41681181 -252.55004883 526.37817383 C-251.67606445 526.36915039 -250.80208008 526.36012695 -249.90161133 526.35083008 C-249.2493457 526.33922852 -248.59708008 526.32762695 -247.92504883 526.31567383 C-260.83053521 543.5050273 -271.34439101 554.99834562 -292.98754883 559.81567383 C-293.8936792 560.02579102 -294.79980957 560.2359082 -295.73339844 560.45239258 C-300.03055926 561.44673955 -304.33439506 562.4072242 -308.64379883 563.34692383 C-321.78110208 566.24680164 -336.39428717 569.77827532 -344.48754883 581.56567383 C-347.05807174 586.83702267 -346.89895196 593.01362356 -345.26489258 598.55395508 C-340.21967494 609.80195111 -328.91876291 616.07803105 -317.92504883 620.50317383 C-286.0575088 631.2805343 -249.52533181 630.46089482 -218.92504883 616.31567383 C-211.63795318 612.64105634 -205.05198823 608.2708094 -198.70068359 603.15917969 C-197.80495132 602.43927353 -196.90921906 601.71936737 -195.98634338 600.97764587 C-195.30611618 600.4291951 -194.62588898 599.88074432 -193.92504883 599.31567383 C-193.92949005 600.12585464 -193.93393127 600.93603546 -193.93850708 601.77076721 C-194.94706209 675.21577165 -194.94706209 675.21577165 -188.92504883 748.31567383 C-188.73652344 749.69746826 -188.73652344 749.69746826 -188.54418945 751.10717773 C-185.24547826 773.95954373 -175.0360114 794.9132948 -159.92504883 812.31567383 C-159.41973633 812.91637695 -158.91442383 813.51708008 -158.39379883 814.13598633 C-144.26569313 829.63365329 -123.85794533 836.63890055 -103.43676758 837.60083008 C-81.59917809 838.29858891 -61.2884946 834.02301249 -40.99194336 826.11938477 C-39.17553836 825.41307656 -37.34608516 824.74051868 -35.51489258 824.07348633 C-23.08680934 819.32494332 -12.3137523 811.67244293 -2.92504883 802.31567383 C-2.16708008 801.5809082 -1.40911133 800.84614258 -0.62817383 800.08911133 C12.19690952 786.86600815 19.46835695 768.81382538 23.57495117 751.12817383 C23.79672531 750.1748819 23.79672531 750.1748819 24.02297974 749.20233154 C27.53999116 733.85652187 29.2669499 718.33776252 31.00544739 702.71025085 C32.42277303 690.04862072 34.02501434 677.40935575 35.6111145 664.76800537 C36.03942951 661.35246851 36.4642887 657.93651407 36.88774967 654.52037239 C37.29355674 651.24880892 37.70173034 647.97754236 38.11010742 644.70629883 C38.26891891 643.43261444 38.42773041 642.15893005 38.59135437 640.84664917 C39.41348437 634.32252606 40.27638559 627.80687053 41.21118164 621.2980957 C41.39676132 619.9969281 41.582341 618.6957605 41.77354431 617.35516357 C42.12630408 614.90349255 42.48563173 612.45275308 42.8530426 610.00323486 C43.85471112 603.05167359 44.29803439 596.33796472 44.07495117 589.31567383 C44.96956055 589.52063477 45.86416992 589.7255957 46.78588867 589.93676758 C47.9950293 590.20618164 49.20416992 590.4755957 50.44995117 590.75317383 C51.63331055 591.02000977 52.81666992 591.2868457 54.03588867 591.56176758 C74.01224518 595.56954756 95.18838943 593.89575045 115.07495117 590.31567383 C116.56446218 590.06134366 118.05404306 589.80742226 119.54370117 589.55395508 C151.49166507 583.97726131 187.57675712 569.21084452 207.19995117 541.94067383 C211.4725649 535.5848952 213.19139927 529.95636552 212.07495117 522.31567383 C209.69543236 516.1013055 206.01580472 513.0160618 200.07495117 510.31567383 C188.95922977 506.77615507 176.06009233 510.08855662 164.94995117 512.25317383 C141.83896608 516.6779762 111.81106256 522.20093671 90.07495117 510.31567383 C91.73506763 505.43128495 94.46889537 501.41801891 97.26245117 497.12817383 C109.63110002 477.80785808 120.6945267 457.763303 131.07495117 437.31567383 C131.61659912 436.25509766 131.61659912 436.25509766 132.16918945 435.1730957 C134.13774527 431.31453472 136.07036564 427.43989975 137.97631836 423.55004883 C138.76371406 421.94866096 139.55668032 420.35000745 140.35327148 418.75317383 C169.46913931 360.31625235 191.30635877 296.6496542 202.71496582 232.32580566 C203.05325211 230.43683977 203.40589894 228.55046168 203.75952148 226.66430664 C206.95268934 209.25639158 207.45864317 192.09885451 207.51245117 174.44067383 C207.52198318 172.8242952 207.52198318 172.8242952 207.53170776 171.17526245 C207.61376509 148.82860036 205.79208881 126.31279369 191.07495117 108.31567383 C190.30666992 107.34758789 189.53838867 106.37950195 188.74682617 105.38208008 C178.29232337 92.46486302 166.36188542 80.3092654 153.07495117 70.31567383 C151.53194336 69.14004883 151.53194336 69.14004883 149.95776367 67.94067383 C108.46603662 36.96960639 57.08366429 23.06568167 5.76245117 23.12817383 C4.50297165 23.1285817 4.50297165 23.1285817 3.2180481 23.1289978 C-10.25675111 23.14902455 -23.54093715 23.65918586 -36.92504883 25.31567383 Z " fill="#010101" transform="translate(611.925048828125,-0.315673828125)"/>
<path d="M0 0 C0.83300629 -0.00340393 1.66601257 -0.00680786 2.52426147 -0.01031494 C61.67546276 -0.14880991 115.1470276 20.60732842 157.4375 62.0625 C165.93787733 70.56833504 173.9697108 79.57068745 177.4375 91.3125 C177.64761719 91.98667969 177.85773438 92.66085938 178.07421875 93.35546875 C180.92826986 103.49645885 180.59593033 114.12865242 180.56787109 124.56884766 C180.56255816 126.91185115 180.56781846 129.25465893 180.57421875 131.59765625 C180.58460537 147.06230896 179.6241566 162.0818042 176.8125 177.3125 C176.68222412 178.03262268 176.55194824 178.75274536 176.41772461 179.49468994 C174.43852496 190.42961853 172.2716399 201.32299469 169.9375 212.1875 C169.67759277 213.41339844 169.41768555 214.63929688 169.14990234 215.90234375 C166.80061593 226.54599147 163.66825285 236.90873507 160.4375 247.3125 C160.19404846 248.10215149 159.95059692 248.89180298 159.69976807 249.7053833 C149.88426775 281.51910795 138.66848655 312.83856479 124.50878906 343.00341797 C123.32031794 345.565077 122.16975 348.14186481 121.0234375 350.72265625 C115.98723722 362.0310725 110.5775303 373.03574675 104.70410156 383.93066406 C103.42666279 386.33287931 102.18887353 388.75183286 100.9609375 391.1796875 C94.87310168 403.15530035 88.14259829 414.64135087 81.09936523 426.07202148 C80.7397168 426.65603729 80.38006836 427.2400531 80.00952148 427.84176636 C79.02570187 429.43650714 78.03823855 431.0289984 77.05053711 432.62133789 C75.73378208 434.8181883 74.53666749 437.00159761 73.4375 439.3125 C69.73260733 437.878348 69.73260733 437.878348 68.5859375 435.6796875 C68.3549935 431.99673839 70.26450734 429.31421121 72 426.1875 C75.05970598 420.36230346 77.65351572 414.55202026 79.75 408.3125 C79.97953369 407.6510498 80.20906738 406.98959961 80.44555664 406.30810547 C85.02766331 392.1848297 85.97294328 378.27979285 85.875 363.5625 C85.87293045 362.21384857 85.87293045 362.21384857 85.87081909 360.83795166 C85.81623757 341.40221979 83.94642535 322.25456879 81.10083008 303.0390625 C77.98057758 281.13690306 80.95125925 259.05890508 84.14916992 237.38256836 C86.31001886 222.71183546 87.870002 208.14477145 88.4375 193.3125 C88.47770264 192.52053223 88.51790527 191.72856445 88.55932617 190.91259766 C88.73337158 185.25886995 87.69722683 180.43831931 86 175.0625 C85.60119629 173.77484741 85.60119629 173.77484741 85.19433594 172.46118164 C73.44146641 135.7750586 51.92509101 100.19670945 25.4375 72.3125 C24.32661215 71.02660927 23.2220434 69.73522207 22.125 68.4375 C13.73016437 58.818006 4.50714065 50.15233306 -5.5625 42.3125 C-6.48675781 41.5596875 -7.41101563 40.806875 -8.36328125 40.03125 C-25.00111678 26.73824522 -43.34412597 16.37395493 -62.5625 7.3125 C-45.68471327 -2.05617443 -18.88107837 0.018083 0 0 Z " fill="#33678F" transform="translate(614.5625,46.6875)"/>
<path d="M0 0 C17.1787601 13.03974114 18.20234863 40.36798222 21 60 C21.18224121 61.20390381 21.18224121 61.20390381 21.36816406 62.43212891 C25.02057838 87.13226213 25.56448479 115.60415846 20 140 C19.85546387 140.68771484 19.71092773 141.37542969 19.56201172 142.08398438 C16.57914194 156.20884726 11.23710434 169.23807409 5.44287109 182.40209961 C4.87847613 183.68468705 4.31418699 184.96732106 3.75 186.25 C3.46844055 186.88986847 3.1868811 187.52973694 2.89678955 188.18899536 C-4.57857048 205.23167463 -10.89278493 222.66527367 -16.18334961 240.51342773 C-17 243 -17 243 -18 244 C-35.25230202 246.43608894 -53.4333672 237.58087629 -67.0625 227.875 C-68.71979264 226.5980696 -70.36709692 225.30797464 -72 224 C-72.63035156 223.52175781 -73.26070313 223.04351562 -73.91015625 222.55078125 C-93.55841046 206.93064294 -102.46902235 182.44250217 -106.59375 158.5625 C-107.073489 154.35555801 -107.19181542 150.23084142 -107.1875 146 C-107.18669434 145.16114258 -107.18588867 144.32228516 -107.18505859 143.45800781 C-107.12526451 137.2933546 -106.51465227 131.34937413 -105.6003418 125.25 C-103.37655524 109.78575158 -102.88550226 94.53308236 -103.15625 78.9375 C-103.18202598 77.22601909 -103.2074039 75.51453215 -103.23239136 73.80303955 C-103.33982989 66.73109138 -103.4501205 59.66002075 -103.64453125 52.58984375 C-103.76345297 48.20609802 -103.83323747 43.8239167 -103.87089539 39.43875122 C-103.89425285 37.78626869 -103.93568125 36.13393161 -103.99617004 34.48239136 C-104.45385363 21.70433615 -104.45385363 21.70433615 -100.84680176 17.47583008 C-98.29546951 15.6578436 -95.84741501 14.293106 -93 13 C-91.71456547 12.27823573 -90.4322628 11.55079324 -89.15625 10.8125 C-87.9430353 10.19729352 -86.72411694 9.59321719 -85.5 9 C-84.82767334 8.6709668 -84.15534668 8.34193359 -83.46264648 8.00292969 C-59.53520082 -3.47784125 -24.57600981 -16.41954668 0 0 Z " fill="#33678F" transform="translate(384,258)"/>
<path d="M0 0 C0.20181694 7.55257576 -0.34264519 14.6876766 -1.53125 22.140625 C-1.85243558 24.2692449 -2.17220684 26.39807858 -2.49072266 28.52709961 C-2.65662903 29.62520966 -2.8225354 30.7233197 -2.99346924 31.85470581 C-7.67136079 63.2107837 -7.85620927 92.04782561 -3.66162109 123.54052734 C0.21814643 152.87701509 0.42663065 182.4011744 -11 210 C-13.43832541 207.79820259 -14.75356826 205.77008857 -16.09375 202.78125 C-16.47877686 201.94086182 -16.86380371 201.10047363 -17.26049805 200.23461914 C-17.66953369 199.33219482 -18.07856934 198.42977051 -18.5 197.5 C-21.91001573 190.14241348 -25.553528 183.03942664 -29.6875 176.0625 C-33.46423663 169.68685205 -36.95532687 163.30256817 -40.19921875 156.63671875 C-41.91689869 153.12403881 -43.74821917 149.67669309 -45.58813477 146.22680664 C-62.72659652 114.0730885 -79.96374593 78.2716825 -80.3125 41.1875 C-80.34150391 40.17107422 -80.37050781 39.15464844 -80.40039062 38.10742188 C-80.49355411 26.86330571 -77.42008694 18.29448924 -69.52734375 10.22265625 C-54.66427364 -2.84857542 -18.08118516 -9.04059258 0 0 Z " fill="#34678F" transform="translate(679,249)"/>
<path d="M0 0 C5.03665539 3.16951998 8.17662407 7.9862765 10.75 13.25 C12.05563255 19.90872601 12.77671338 25.99504419 9 31.9375 C7.8303633 33.46786578 6.61784662 34.9659696 5.375 36.4375 C4.64796875 37.324375 3.9209375 38.21125 3.171875 39.125 C-12.30536993 57.09857475 -33.07501159 67.39162109 -56.625 69.4375 C-76.79126619 70.59002928 -95.41759689 68.48091214 -113.625 59.4375 C-113.625 58.7775 -113.625 58.1175 -113.625 57.4375 C-105.94795792 54.48225154 -98.22251518 52.62000156 -90.1875 50.9375 C-81.82345916 49.17813031 -73.69949689 47.27637211 -65.625 44.4375 C-64.31402344 43.99664063 -64.31402344 43.99664063 -62.9765625 43.546875 C-48.59811309 38.32639183 -38.90153971 27.56935383 -29.796875 15.75854492 C-13.20344696 -5.69114093 -13.20344696 -5.69114093 0 0 Z " fill="#356890" transform="translate(406.625,533.5625)"/>
<path d="M0 0 C26.85349387 13.45925722 61.30716606 10.34023979 89.8359375 3.8359375 C92.96850283 3.25583281 95.82254056 3.14440467 99 3.25 C99 3.91 99 4.57 99 5.25 C96.95090274 6.90807131 94.9089082 8.43384969 92.75 9.9375 C92.11247803 10.38448242 91.47495605 10.83146484 90.81811523 11.29199219 C60.14919161 32.54926827 17.76915463 42.37044435 -19.22802734 36.26586914 C-23.7680252 35.41455308 -27.95755204 34.54571119 -32 32.25 C-32.50124456 12.42299315 -32.50124456 12.42299315 -26 4.25 C-18.48617418 -3.49151751 -9.11300096 -5.26167317 0 0 Z " fill="#35688F" transform="translate(692,531.75)"/>
<path d="M0 0 C3.51464559 1.86069473 5.75228392 3.62842587 8 7 C8.520543 10.38352947 8.66489924 12.82909287 6.9375 15.87109375 C2.65065775 21.2878917 -2.55703048 23.85234349 -9 26 C-17.23518929 26.6458972 -22.600282 24.45328608 -28.8125 19.1875 C-33.08734582 15.15587817 -35.538308 11.82786352 -36.5 5.9375 C-35.81903257 1.93681635 -34.09698124 0.52079868 -31 -2 C-21.92572982 -5.02475673 -8.63672568 -4.01233713 0 0 Z " fill="#FAFDFC" transform="translate(379,268)"/>
<path d="M0 0 C0.69029297 -0.020625 1.38058594 -0.04125 2.09179688 -0.0625 C6.85296028 -0.09860361 10.01565127 0.7651987 14.0625 3.25 C16.0625 5.25 16.0625 5.25 16.0625 7.875 C14.32320464 13.74512185 10.82226206 17.85685503 6.0625 21.625 C0.69502584 24.53238184 -3.80301772 25.9656896 -9.9375 25.25 C-15.62213805 23.12375207 -20.87395109 20.71110893 -23.9375 15.25 C-25 12.25 -25 12.25 -24.9375 9.25 C-18.87929379 1.10928541 -9.44903527 0.07018782 0 0 Z " fill="#F8FBFC" transform="translate(640.9375,258.75)"/>
<path d="M0 0 C2 3.75 2 3.75 2 6 C1.01 6 0.02 6 -1 6 C0.32 6.66 1.64 7.32 3 8 C3 8.66 3 9.32 3 10 C3.99 8.02 4.98 6.04 6 4 C6.66 4.66 7.32 5.32 8 6 C3.38 13.92 -1.24 21.84 -6 30 C-10 28 -10 28 -10.84667969 26.10058594 C-11.11565618 22.41543663 -8.96107317 19.40259371 -7.25 16.25 C-4.41589093 10.92592368 -2.01628646 5.69154279 0 0 Z " fill="#3C6A8C" transform="translate(694,456)"/>
<path d="M0 0 C0.99 0.495 0.99 0.495 2 1 C2.33 10.57 2.66 20.14 3 30 C2.34 30 1.68 30 1 30 C0.67 30.66 0.34 31.32 0 32 C0 21.44 0 10.88 0 0 Z " fill="#577C9B" transform="translate(701,394)"/>
<path d="M0 0 C0.99 0.33 1.98 0.66 3 1 C1.33333333 2.66666667 -0.33333333 4.33333333 -2 6 C-2.78375 6.804375 -3.5675 7.60875 -4.375 8.4375 C-6.50395534 10.51576593 -8.57494275 12.29347823 -11 14 C-12.32 13.34 -13.64 12.68 -15 12 C-14.12988281 11.45472656 -14.12988281 11.45472656 -13.2421875 10.8984375 C-8.22314201 7.66835872 -4.0612943 4.37370156 0 0 Z " fill="#46718F" transform="translate(367,561)"/>
<path d="M0 0 C0 0.66 0 1.32 0 2 C-1.96147874 3.38938077 -3.96166576 4.7260411 -6 6 C-6 4.68 -6 3.36 -6 2 C-6.556875 2.515625 -7.11375 3.03125 -7.6875 3.5625 C-10 5 -10 5 -12.625 4.8125 C-15 4 -15 4 -17 2 C-5.47835991 -0.29612756 -5.47835991 -0.29612756 0 0 Z " fill="#567A91" transform="translate(791,535)"/>
<path d="M0 0 C-0.33 0.99 -0.66 1.98 -1 3 C-1.33 2.34 -1.66 1.68 -2 1 C-2.66 1 -3.32 1 -4 1 C-4 1.99 -4 2.98 -4 4 C-1.36 4.66 1.28 5.32 4 6 C3.67 6.66 3.34 7.32 3 8 C1.58208592 7.54554036 0.16571954 7.08625056 -1.25 6.625 C-2.03890625 6.36976563 -2.8278125 6.11453125 -3.640625 5.8515625 C-5.86627958 5.04826333 -7.90931672 4.10288338 -10 3 C-10 2.34 -10 1.68 -10 1 C-6.78548731 -0.60725635 -3.56387464 -0.05748185 0 0 Z " fill="#456D8B" transform="translate(303,590)"/>
<path d="M0 0 C0.66 0 1.32 0 2 0 C2.33 6.6 2.66 13.2 3 20 C2.01 19.67 1.02 19.34 0 19 C0 12.73 0 6.46 0 0 Z " fill="#63859E" transform="translate(277,394)"/>
<path d="M0 0 C0.33 0 0.66 0 1 0 C1.33 2.31 1.66 4.62 2 7 C2.81984375 6.62746094 3.6396875 6.25492188 4.484375 5.87109375 C6.10085938 5.16146484 6.10085938 5.16146484 7.75 4.4375 C8.81734375 3.96183594 9.8846875 3.48617187 10.984375 2.99609375 C14 2 14 2 18 3 C12.06 5.64 6.12 8.28 0 11 C0 7.37 0 3.74 0 0 Z " fill="#547693" transform="translate(282,238)"/>
<path d="M0 0 C0 0.33 0 0.66 0 1 C-4.62 1 -9.24 1 -14 1 C-14 1.66 -14 2.32 -14 3 C-17.96 3 -21.92 3 -26 3 C-20.60187111 -2.39812889 -7.2663709 -0.0793657 0 0 Z " fill="#60849E" transform="translate(446,56)"/>
<path d="M0 0 C0.66 0.99 1.32 1.98 2 3 C1.34 3 0.68 3 0 3 C-0.103125 4.010625 -0.20625 5.02125 -0.3125 6.0625 C-1.03704767 10.21218208 -2.22269266 13.21356263 -4 17 C-4.66 16.67 -5.32 16.34 -6 16 C-4.25192871 10.53262809 -2.34205919 5.24175152 0 0 Z " fill="#507492" transform="translate(417,435)"/>
<path d="M0 0 C1.32 0.33 2.64 0.66 4 1 C3.34 4.96 2.68 8.92 2 13 C1.34 13 0.68 13 0 13 C0 8.71 0 4.42 0 0 Z " fill="#3D6A89" transform="translate(281,279)"/>
<path d="M0 0 C0.66 0 1.32 0 2 0 C-1.07517084 11.52164009 -1.07517084 11.52164009 -3 17 C-3.66 16.67 -4.32 16.34 -5 16 C-4.19429304 12.50577615 -3.08208283 9.14682647 -1.9375 5.75 C-1.57527344 4.67234375 -1.21304688 3.5946875 -0.83984375 2.484375 C-0.56269531 1.66453125 -0.28554688 0.8446875 0 0 Z " fill="#476E88" transform="translate(770,302)"/>
<path d="M0 0 C0.66 0 1.32 0 2 0 C2 0.66 2 1.32 2 2 C1.34 2 0.68 2 0 2 C0.103125 2.886875 0.20625 3.77375 0.3125 4.6875 C-0.09498572 9.00684858 -1.7722703 10.25642975 -5 13 C-4.54803755 11.39402675 -4.08817673 9.79027492 -3.625 8.1875 C-3.36976563 7.29417969 -3.11453125 6.40085937 -2.8515625 5.48046875 C-2 3 -2 3 0 0 Z " fill="#4D7292" transform="translate(401,475)"/>
<path d="M0 0 C2 3 2 3 2 5 C1.195625 5.268125 0.39125 5.53625 -0.4375 5.8125 C-1.283125 6.204375 -2.12875 6.59625 -3 7 C-3.33 7.99 -3.66 8.98 -4 10 C-4.66 9.67 -5.32 9.34 -6 9 C-4.02 6.03 -2.04 3.06 0 0 Z " fill="#497294" transform="translate(325,115)"/>
<path d="M0 0 C1.90318884 2.85478326 2.4619099 4.41941308 3.125 7.6875 C3.29257812 8.49574219 3.46015625 9.30398438 3.6328125 10.13671875 C3.75398437 10.75160156 3.87515625 11.36648438 4 12 C2.35 11.67 0.7 11.34 -1 11 C-0.67 7.37 -0.34 3.74 0 0 Z " fill="#517999" transform="translate(579,326)"/>
<path d="M0 0 C0 3 0 3 -1 6 C-2.62332967 7.38576923 -4.28724465 8.72641268 -6 10 C-6.66 9.67 -7.32 9.34 -8 9 C-6.85459775 7.68712379 -5.70866567 6.37470979 -4.5625 5.0625 C-3.92441406 4.33160156 -3.28632813 3.60070312 -2.62890625 2.84765625 C-1.77458541 1.87860647 -0.91348825 0.91348825 0 0 Z " fill="#DFF0F7" transform="translate(286,510)"/>
<path d="M0 0 C0.33 0 0.66 0 1 0 C1 2.64 1 5.28 1 8 C0.01 8.495 0.01 8.495 -1 9 C-1.33 9.99 -1.66 10.98 -2 12 C-2.66 12 -3.32 12 -4 12 C-2.66666667 8 -1.33333333 4 0 0 Z " fill="#E1F3F9" transform="translate(283,140)"/>
<path d="M0 0 C0.99 0.33 1.98 0.66 3 1 C2.02501855 2.5027237 1.04490611 4.00211963 0.0625 5.5 C-0.48277344 6.3353125 -1.02804687 7.170625 -1.58984375 8.03125 C-2.05519531 8.6809375 -2.52054688 9.330625 -3 10 C-3.33 10 -3.66 10 -4 10 C-4 8.35 -4 6.7 -4 5 C-3.01 4.67 -2.02 4.34 -1 4 C-0.26676204 1.98491642 -0.26676204 1.98491642 0 0 Z " fill="#476E90" transform="translate(600,769)"/>
<path d="M0 0 C0.66 0.66 1.32 1.32 2 2 C1.625 4.625 1.625 4.625 1 7 C0.01 7.33 -0.98 7.66 -2 8 C-1.125 1.125 -1.125 1.125 0 0 Z " fill="#3F6987" transform="translate(406,462)"/>
<path d="M0 0 C4.82360189 -0.19294408 8.49646738 0.24252386 13 2 C13 2.33 13 2.66 13 3 C8.17639811 3.19294408 4.50353262 2.75747614 0 1 C0 0.67 0 0.34 0 0 Z " fill="#CDE3ED" transform="translate(357,291)"/>
<path d="M0 0 C1.09898702 3.29696105 0.87124444 4.40494903 0.0625 7.6875 C-0.22947266 8.89986328 -0.22947266 8.89986328 -0.52734375 10.13671875 C-0.68332031 10.75160156 -0.83929688 11.36648437 -1 12 C-1.99 12 -2.98 12 -4 12 C-3.52309796 10.37433394 -3.04340334 8.74948689 -2.5625 7.125 C-2.29566406 6.22007812 -2.02882813 5.31515625 -1.75390625 4.3828125 C-1 2 -1 2 0 0 Z " fill="#48718C" transform="translate(77,131)"/>
<path d="M0 0 C4.24822374 0.47202486 6.19989709 2.96655518 9 6 C8.67 6.99 8.34 7.98 8 9 C5.06799526 6.14723863 2.35684596 3.34920216 0 0 Z " fill="#446984" transform="translate(424,516)"/>
<path d="M0 0 C3.3 0.99 6.6 1.98 10 3 C8 7 8 7 6 8 C6.33 6.35 6.66 4.7 7 3 C4.69 2.67 2.38 2.34 0 2 C0 1.34 0 0.68 0 0 Z " fill="#446B85" transform="translate(314,75)"/>
<path d="M0 0 C0.33 0 0.66 0 1 0 C1.125 7.625 1.125 7.625 0 11 C-0.99 11.33 -1.98 11.66 -3 12 C-2.01 8.04 -1.02 4.08 0 0 Z " fill="#DDF0F6" transform="translate(611,746)"/>
<path d="M0 0 C-4.5 3 -4.5 3 -9 6 C-8.49396008 3.83125748 -8.00016187 2.00032373 -7 0 C-4.0262656 -1.09036928 -3.11592499 -1.03864166 0 0 Z " fill="#E5F9FC" transform="translate(395,532)"/>
<path d="M0 0 C0.66 0 1.32 0 2 0 C3.61064629 3.65079826 4.44894091 7.0507432 5 11 C4.34 11 3.68 11 3 11 C2.49384702 9.73160474 1.99530901 8.46016898 1.5 7.1875 C1.2215625 6.47980469 0.943125 5.77210938 0.65625 5.04296875 C0 3 0 3 0 0 Z " fill="#426D8B" transform="translate(119,469)"/>
<path d="M0 0 C0.66 0 1.32 0 2 0 C4.04169485 2.90548882 5 4.40142046 5 8 C4.01 7.67 3.02 7.34 2 7 C0.8125 3.4375 0.8125 3.4375 0 0 Z " fill="#4E7793" transform="translate(107,436)"/>
<path d="M0 0 C0.99 0.33 1.98 0.66 3 1 C1.29374499 3.78388975 0.52373261 4.85384206 -2.6875 5.75 C-3.8321875 5.87375 -3.8321875 5.87375 -5 6 C-3.63016497 2.83884224 -3.0109362 2.0072908 0 0 Z " fill="#E0EFF6" transform="translate(348,266)"/>
<path d="M0 0 C4.31392226 0.4793247 6.16569547 1.7457985 9 5 C8.67 5.66 8.34 6.32 8 7 C6.66382648 6.02471263 5.3311249 5.04466681 4 4.0625 C3.2575 3.51722656 2.515 2.97195312 1.75 2.41015625 C1.1725 1.94480469 0.595 1.47945313 0 1 C0 0.67 0 0.34 0 0 Z " fill="#466787" transform="translate(599,80)"/>
<path d="M0 0 C2.64 0 5.28 0 8 0 C8.33 0.66 8.66 1.32 9 2 C6.1875 2.6875 6.1875 2.6875 3 3 C1.125 1.5625 1.125 1.5625 0 0 Z " fill="#467396" transform="translate(774,537)"/>
<path d="M0 0 C0.66 0 1.32 0 2 0 C1.42655063 2.86724686 1.1385485 3.8614515 -1 6 C-1.99 5.67 -2.98 5.34 -4 5 C-2.71937515 3.2925002 -1.38232443 1.62626404 0 0 Z " fill="#406C8C" transform="translate(608,261)"/>
<path d="M0 0 C2.64 0.33 5.28 0.66 8 1 C8 2.32 8 3.64 8 5 C4.62496331 3.8141763 2.35277269 2.72426311 0 0 Z " fill="#4C7190" transform="translate(184,584)"/>
<path d="M0 0 C-3.465 2.97 -3.465 2.97 -7 6 C-6.75 3.625 -6.75 3.625 -6 1 C-2.69333333 -1.34666667 -2.69333333 -1.34666667 0 0 Z " fill="#496B86" transform="translate(226,579)"/>
<path d="M0 0 C-2.31 1.65 -4.62 3.3 -7 5 C-7 4.34 -7 3.68 -7 3 C-7.66 2.34 -8.32 1.68 -9 1 C-2.25 -1.125 -2.25 -1.125 0 0 Z " fill="#DEECF2" transform="translate(749,561)"/>
<path d="M0 0 C2 3.75 2 3.75 2 6 C1.01 6 0.02 6 -1 6 C-1 6.99 -1 7.98 -1 9 C-1.66 8.67 -2.32 8.34 -3 8 C-2.01 5.36 -1.02 2.72 0 0 Z " fill="#4E7699" transform="translate(694,456)"/>
<path d="M0 0 C0.99 0.66 1.98 1.32 3 2 C2.34 3.65 1.68 5.3 1 7 C0.01 6.01 -0.98 5.02 -2 4 C-1.34 2.68 -0.68 1.36 0 0 Z " fill="#4C7393" transform="translate(667,452)"/>
<path d="M0 0 C2.76276177 0.52268466 5.3260876 1.10869587 8 2 C8.33 2.99 8.66 3.98 9 5 C5.22454612 3.90931332 2.52956528 3.0916909 0 0 Z " fill="#4E7491" transform="translate(385,231)"/>
<path d="M0 0 C1.60031344 3.20062687 0.03173691 5.72271806 -1 9 C-1.99 8.67 -2.98 8.34 -4 8 C-2.87548273 5.0280615 -1.77706209 2.66559313 0 0 Z " fill="#496E8D" transform="translate(88,111)"/>
<path d="M0 0 C5.75 1.75 5.75 1.75 8 4 C7.67 4.99 7.34 5.98 7 7 C5.83040013 6.02433888 4.66438823 5.044375 3.5 4.0625 C2.8503125 3.51722656 2.200625 2.97195312 1.53125 2.41015625 C1.0259375 1.94480469 0.520625 1.47945313 0 1 C0 0.67 0 0.34 0 0 Z " fill="#E1EFF6" transform="translate(750,89)"/>
<path d="M0 0 C0.33 0.99 0.66 1.98 1 3 C-1.475 4.485 -1.475 4.485 -4 6 C-4.99 5.34 -5.98 4.68 -7 4 C-4.69 2.68 -2.38 1.36 0 0 Z " fill="#4B748E" transform="translate(372,73)"/>
<path d="M0 0 C7.75 0.75 7.75 0.75 10 3 C5.82412255 4.39195915 3.86525224 2.82323219 0 1 C0 0.67 0 0.34 0 0 Z " fill="#4C7295" transform="translate(297,594)"/>
<path d="M0 0 C2.52588702 2.36292656 3.88820837 3.66462511 5 7 C3.68 7 2.36 7 1 7 C0.67 4.69 0.34 2.38 0 0 Z " fill="#496A8E" transform="translate(619,421)"/>
<path d="M0 0 C0.66 0 1.32 0 2 0 C2 3.63 2 7.26 2 11 C1.01 11 0.02 11 -1 11 C-0.67 10.01 -0.34 9.02 0 8 C0.06665376 6.60560336 0.08538199 5.20830125 0.0625 3.8125 C0.041875 2.554375 0.02125 1.29625 0 0 Z " fill="#527B96" transform="translate(386,274)"/>
<path d="M0 0 C0.66 0.33 1.32 0.66 2 1 C2 1.66 2 2.32 2 3 C-0.90548882 5.04169485 -2.40142046 6 -6 6 C-2.25 1.125 -2.25 1.125 0 0 Z " fill="#D0E3E9" transform="translate(326,77)"/>
</svg>
