<?xml version="1.0" encoding="UTF-8"?>
<svg version="1.1" xmlns="http://www.w3.org/2000/svg" width="860" height="882">
<path d="M0 0 C0 0.66 0 1.32 0 2 C0.70125 1.9175 1.4025 1.835 2.125 1.75 C6.01707435 2.08844125 7.97830327 3.58264262 11 6 C11.30808594 6.62132812 11.61617188 7.24265625 11.93359375 7.8828125 C13.22092973 10.43862239 14.87682077 12.08157898 16.875 14.125 C24.8786147 22.9275236 26.11678595 32.68014669 26.20532227 44.12084961 C26.21761824 45.59787495 26.21761824 45.59787495 26.23016262 47.10473919 C26.75014075 110.11763387 27.06963461 173.12664619 27.03151188 236.14181935 C27.02644593 244.67479087 27.02417374 253.20776263 27.02201658 261.7407353 C27.0175563 279.16049195 27.00996768 296.58024564 27 314 C27.77200422 313.99924056 28.54400844 313.99848112 29.33940673 313.99769866 C75.10896919 313.9529288 120.87852927 313.91861994 166.64810924 313.89786934 C172.14545177 313.89536797 177.64279426 313.89277932 183.14013672 313.89013672 C184.23454461 313.8896121 185.32895251 313.88908748 186.45652428 313.88854696 C204.16994015 313.8798477 221.88334302 313.86408036 239.59675118 313.84569441 C257.77644782 313.82698204 275.95613765 313.81588044 294.13584352 313.81182301 C305.35092143 313.80908073 316.56596259 313.80042376 327.78102919 313.78416707 C335.47478915 313.7735837 343.16853015 313.77040244 350.86229685 313.77299725 C355.29914247 313.77427642 359.73592393 313.77233487 364.1727581 313.76158905 C368.24064956 313.75180907 372.30843412 313.75139571 376.37633064 313.75820221 C377.84221628 313.75904263 379.30810878 313.75654596 380.77398106 313.75023364 C402.32575976 313.66287988 402.32575976 313.66287988 411 318 C412.07701172 318.14501953 412.07701172 318.14501953 413.17578125 318.29296875 C416.9741536 319.24387524 419.9482011 321.19697042 423.1875 323.3125 C423.81591797 323.70373047 424.44433594 324.09496094 425.09179688 324.49804688 C428.49653438 326.69382946 430.39920142 328.31088691 432 332 C433.48288664 333.49690258 435.00958021 334.95088264 436.5625 336.375 C451.27332991 350.83072881 459.18281702 370.34771417 459.375 390.9375 C459.17310494 412.60451088 451.05216895 429.57962368 437.34765625 446.0625 C435.8715022 447.90004433 435.8715022 447.90004433 435.62109375 450.0625 C434.69249303 452.95926703 432.57603559 453.46092789 430 455 C428.13377478 457.11744785 426.43054216 459.1858754 424.75 461.4375 C424.30398438 462.01048828 423.85796875 462.58347656 423.3984375 463.17382812 C420.88770566 466.45817965 420.88770566 466.45817965 419.453125 470.28515625 C419.30359375 470.85105469 419.1540625 471.41695313 419 472 C417.67891985 472.69062975 416.34320306 473.35344933 415 474 C412.83092497 476.28368454 412.83092497 476.28368454 410.8125 478.9375 C410.11769531 479.81277344 409.42289063 480.68804687 408.70703125 481.58984375 C406.85103742 483.96311647 406.85103742 483.96311647 406 487 C405.0206121 488.02019573 404.02104551 489.02149805 403 490 C402.67 490.66 402.34 491.32 402 492 C400.82567128 493.16163327 399.65055929 494.32248707 398.47119141 495.47900391 C395.67168592 498.3732819 393.20394013 501.54788833 390.6875 504.6875 C390.1193457 505.39285889 389.55119141 506.09821777 388.96582031 506.82495117 C387.83270481 508.23233725 386.70067871 509.64060122 385.56982422 511.04980469 C384.19176353 512.76177183 382.80437614 514.46525577 381.41015625 516.1640625 C380.69730469 517.03804687 379.98445312 517.91203125 379.25 518.8125 C378.63640625 519.56144531 378.0228125 520.31039062 377.390625 521.08203125 C375.81548708 523.05211068 375.81548708 523.05211068 375 526 C373.84455805 527.17859288 372.68375122 528.35250644 371.49365234 529.49609375 C368.54381958 532.46617708 365.95831636 535.76064793 363.3125 539 C362.70253174 539.74531982 362.09256348 540.49063965 361.46411133 541.25854492 C357.66850015 545.9138777 353.89176724 550.58405908 350.1875 555.3125 C349.00220703 556.82263672 349.00220703 556.82263672 347.79296875 558.36328125 C346.16604496 560.75581623 345.57561225 562.24212152 345 565 C343.66666667 565.66666667 342.33333333 566.33333333 341 567 C339.16252704 569.65412761 338.02212951 571.93361146 337 575 C336.01 575.33 335.02 575.66 334 576 C333.855625 576.639375 333.71125 577.27875 333.5625 577.9375 C333.376875 578.618125 333.19125 579.29875 333 580 C332.43023438 580.24621094 331.86046875 580.49242187 331.2734375 580.74609375 C328.04925847 582.52437806 326.22801154 585.23064957 324.0625 588.125 C323.0965647 589.38787714 322.12904834 590.64954616 321.16015625 591.91015625 C320.6511377 592.57418457 320.14211914 593.23821289 319.61767578 593.92236328 C316.27700935 598.21289623 312.79692502 602.39317296 309.32836914 606.58056641 C306.09400132 610.52184246 303.28903805 614.42192391 301 619 C299.83199936 620.15738245 298.66305702 621.31383081 297.48925781 622.46533203 C294.58972056 625.45328141 292.00542509 628.71360094 289.375 631.9375 C288.76615967 632.6809668 288.15731934 633.42443359 287.5300293 634.19042969 C283.58972669 639.01612997 279.67834118 643.86442906 275.8125 648.75 C275.3676123 649.30937256 274.92272461 649.86874512 274.46435547 650.44506836 C271.3424349 654.42233455 268.60585301 658.18244096 267 663 C266.13375 663.39638672 266.13375 663.39638672 265.25 663.80078125 C261.99168259 665.53741917 260.17285535 668.29022823 258 671.1875 C257.02684684 672.45634711 256.05285877 673.72455422 255.078125 674.9921875 C254.32305664 675.97977051 254.32305664 675.97977051 253.55273438 676.98730469 C250.99771908 680.299183 248.37186505 683.5534882 245.75 686.8125 C244.7483584 688.06483269 243.74704606 689.31742881 242.74609375 690.5703125 C241.07947362 692.65516535 239.40518246 694.73255402 237.72265625 696.8046875 C237.09230469 697.59101562 236.46195313 698.37734375 235.8125 699.1875 C235.01779297 700.16783203 235.01779297 700.16783203 234.20703125 701.16796875 C232.87559573 702.95356774 232.87559573 702.95356774 232.51171875 705.17578125 C232.34285156 705.77777344 232.17398438 706.37976563 232 707 C231.01 707.33 230.02 707.66 229 708 C228.855625 708.639375 228.71125 709.27875 228.5625 709.9375 C228.376875 710.618125 228.19125 711.29875 228 712 C227.4328125 712.24363281 226.865625 712.48726562 226.28125 712.73828125 C223.01185874 714.54652333 221.14153146 717.31631436 218.9375 720.25 C217.97052652 721.5133841 217.00306353 722.77639366 216.03515625 724.0390625 C215.29096436 725.01601074 215.29096436 725.01601074 214.53173828 726.01269531 C213.00315071 727.99591221 211.44406651 729.9502918 209.87109375 731.8984375 C209.36908447 732.52331055 208.8670752 733.14818359 208.34985352 733.79199219 C207.38470315 734.99152023 206.41529392 736.18763704 205.44116211 737.37988281 C203.15087169 740.25003102 201.81705948 742.44829246 201 746 C200.01 746.33 199.02 746.66 198 747 C197.855625 747.639375 197.71125 748.27875 197.5625 748.9375 C197.376875 749.618125 197.19125 750.29875 197 751 C196.44570313 751.23074219 195.89140625 751.46148438 195.3203125 751.69921875 C191.78976703 753.67846394 189.75367525 756.6998555 187.3125 759.875 C186.81427734 760.50019531 186.31605469 761.12539063 185.80273438 761.76953125 C183.05849708 765.16367196 183.05849708 765.16367196 181.4609375 769.15820312 C181.23277344 770.06989258 181.23277344 770.06989258 181 771 C180.13955078 771.42152344 180.13955078 771.42152344 179.26171875 771.8515625 C175.89709252 773.56002556 174.02957764 776.41889648 171.8125 779.375 C171.36197266 779.9525 170.91144531 780.53 170.44726562 781.125 C167.9064393 784.43263846 167.9064393 784.43263846 166.44921875 788.2890625 C166.30097656 788.85367188 166.15273438 789.41828125 166 790 C164.67904785 790.69087455 163.34398804 791.35508266 162 792 C160.30787249 794.0187718 160.30787249 794.0187718 158.875 796.375 C158.12863281 797.53128906 158.12863281 797.53128906 157.3671875 798.7109375 C155.97411593 800.92871969 155.97411593 800.92871969 155.0703125 803.1640625 C154 805 154 805 152.19140625 805.859375 C148.92595315 807.55904043 147.10610037 810.36502177 144.9375 813.25 C143.95457522 814.52875971 142.97149818 815.8074024 141.98828125 817.0859375 C141.49021973 817.73916992 140.9921582 818.39240234 140.47900391 819.06542969 C138.21909264 822.02144435 135.92416715 824.94947468 133.625 827.875 C132.95295532 828.73206543 132.95295532 828.73206543 132.26733398 829.60644531 C128.18830109 834.7938876 124.02352855 839.90979744 119.84960938 845.02099609 C115.7536756 850.0457158 111.74453664 855.13276283 107.76416016 860.24926758 C104.73462671 864.12334694 101.58482913 867.84268435 98.2421875 871.44921875 C96.77522536 873.09718808 96.77522536 873.09718808 96 876 C95.01 876.33 94.02 876.66 93 877 C92.5875 877.495 92.175 877.99 91.75 878.5 C89.10534676 880.76684564 86.39832388 880.6422817 83 881 C82.37383789 881.17072021 81.74767578 881.34144043 81.10253906 881.51733398 C78.6109762 882.08930563 76.35276198 882.11251606 73.796875 882.09765625 C72.8171875 882.09443359 71.8375 882.09121094 70.828125 882.08789062 C69.81234375 882.07951172 68.7965625 882.07113281 67.75 882.0625 C66.203125 882.05573242 66.203125 882.05573242 64.625 882.04882812 C62.08327427 882.03706088 59.54166681 882.02062011 57 882 C57 881.34 57 880.68 57 880 C56.319375 880.103125 55.63875 880.20625 54.9375 880.3125 C50.78317077 879.87055008 47.99231011 877.86417592 45 875 C44.31063282 873.67826057 43.64556542 872.34367686 43 871 C41.88112522 869.54141866 40.73314789 868.10486509 39.5625 866.6875 C34.02833571 859.6806267 31.98797461 853.03983418 31.71009827 844.12890625 C31.67207564 842.94022949 31.63405302 841.75155273 31.5948782 840.52685547 C31.54029996 838.56449951 31.54029996 838.56449951 31.48461914 836.5625 C31.46438631 835.87351624 31.44415348 835.18453247 31.42330754 834.47467041 C30.84416443 814.71321887 30.58145722 794.94463942 30.29281878 775.17729187 C30.21329266 769.76953334 30.13076935 764.36182045 30.04859924 758.95410156 C29.89428304 748.76956523 29.74256107 738.58499207 29.59183317 728.40040207 C29.41975375 716.78195379 29.24468781 705.16355106 29.06940353 693.54515076 C28.70967411 669.69681551 28.35358947 645.84842702 28 622 C28.13153716 630.86948098 28.26094469 639.73899011 28.38791317 648.60853767 C28.44698387 652.73073927 28.50668504 656.85292936 28.56803894 660.97509766 C28.98418314 688.98556837 29.12561393 716.98616071 29 745 C28.67 745 28.34 745 28 745 C27.38839671 718.09928819 26.89170105 691.19703128 26.50436401 664.29220581 C26.46134547 661.30562655 26.41671997 658.31907976 26.37039185 655.33255005 C25.94072846 627.21694065 26 599.12502746 26 571 C-90.16 571 -206.32 571 -326 571 C-326 570.34 -326 569.68 -326 569 C-327.29035156 568.86722656 -328.58070313 568.73445312 -329.91015625 568.59765625 C-331.62761148 568.41934123 -333.34505899 568.24095187 -335.0625 568.0625 C-336.33383789 567.93198242 -336.33383789 567.93198242 -337.63085938 567.79882812 C-340.08845575 567.54263082 -342.54431667 567.27387372 -345 567 C-345.69722168 566.92765137 -346.39444336 566.85530273 -347.11279297 566.78076172 C-351.76845422 566.23154578 -351.76845422 566.23154578 -354 564 C-355.90314185 562.93743133 -355.90314185 562.93743133 -357.76953125 562.65234375 C-360.76945151 561.77495902 -363.06178216 560.24870865 -365.6875 558.5625 C-367.14736328 557.63630859 -367.14736328 557.63630859 -368.63671875 556.69140625 C-371 555 -371 555 -372 553 C-372.99 552.67 -373.98 552.34 -375 552 C-375.68856376 550.67784185 -376.35138481 549.34220735 -377 548 C-378.340676 546.48965339 -379.72040261 545.01359103 -381.125 543.5625 C-397.74543666 525.33880578 -402.09934847 504.71565418 -401.18652344 480.83886719 C-400.10391735 464.36171591 -391.41408743 450.4199776 -381.296875 437.90234375 C-378.56641214 434.45211602 -375.97217491 430.94434981 -374 427 C-373.34 426.34 -372.68 425.68 -372 425 C-371.67 424.01 -371.34 423.02 -371 422 C-370.43410156 421.74734375 -369.86820312 421.4946875 -369.28515625 421.234375 C-365.82085894 419.36306226 -363.79850216 416.3161221 -361.4375 413.25 C-360.9108374 412.5789624 -360.3841748 411.9079248 -359.84155273 411.21655273 C-358.22097569 409.14952236 -356.61010573 407.075192 -355 405 C-353.63187588 403.24964739 -352.26128097 401.50126624 -350.88964844 399.75366211 C-350.00104408 398.62132907 -349.11368387 397.48801864 -348.22753906 396.35375977 C-345.17143536 392.45245581 -342.05094148 388.60893417 -338.9050293 384.77978516 C-330.09676882 374.70576972 -330.09676882 374.70576972 -324 363 C-323.38125 362.71125 -322.7625 362.4225 -322.125 362.125 C-318.43985015 360.17403831 -317.27346248 356.82038744 -316 353 C-315.42121094 352.73445313 -314.84242188 352.46890625 -314.24609375 352.1953125 C-311.01046578 350.4733957 -309.21603209 347.75280888 -307.0625 344.875 C-306.09123957 343.60700253 -305.11852205 342.34012014 -304.14453125 341.07421875 C-303.63486816 340.4095459 -303.12520508 339.74487305 -302.60009766 339.06005859 C-299.87671331 335.55381551 -297.06093977 332.12363505 -294.25 328.6875 C-288.97050436 322.21125232 -288.97050436 322.21125232 -283.75 315.6875 C-283.22921875 315.03136719 -282.7084375 314.37523437 -282.171875 313.69921875 C-280.8095677 311.89249648 -280.8095677 311.89249648 -280 309 C-278.84308674 307.81994848 -277.68084209 306.64454306 -276.48925781 305.49951172 C-273.56144488 302.55154008 -270.99954156 299.27889618 -268.375 296.0625 C-267.76035889 295.31250732 -267.14571777 294.56251465 -266.51245117 293.78979492 C-261.83108235 288.05989657 -257.22489586 282.27494496 -252.68359375 276.43359375 C-250.78256466 273.98961549 -248.85448918 271.56982033 -246.91015625 269.16015625 C-246.40250732 268.52682373 -245.8948584 267.89349121 -245.37182617 267.2409668 C-244.3993125 266.02861612 -243.42186908 264.82019768 -242.4387207 263.61645508 C-240.14876921 260.74777577 -238.81670852 258.55018195 -238 255 C-237.01 254.67 -236.02 254.34 -235 254 C-234.835 253.34 -234.67 252.68 -234.5 252 C-234.335 251.34 -234.17 250.68 -234 250 C-233.01 249.67 -232.02 249.34 -231 249 C-230.855625 248.360625 -230.71125 247.72125 -230.5625 247.0625 C-230.376875 246.381875 -230.19125 245.70125 -230 245 C-229.14535156 244.63068359 -229.14535156 244.63068359 -228.2734375 244.25390625 C-225.04928764 242.47563803 -223.22793847 239.76938618 -221.0625 236.875 C-220.09789619 235.61340282 -219.13168006 234.35303718 -218.1640625 233.09375 C-217.65520508 232.42988281 -217.14634766 231.76601562 -216.62207031 231.08203125 C-213.2536435 226.75843946 -209.74188403 222.54773692 -206.24047852 218.33154297 C-205.71639404 217.69361816 -205.19230957 217.05569336 -204.65234375 216.3984375 C-204.18820068 215.83817871 -203.72405762 215.27791992 -203.24584961 214.70068359 C-201.23559734 211.95652971 -200.0737492 209.22124759 -199 206 C-198.071875 205.566875 -198.071875 205.566875 -197.125 205.125 C-193.43985015 203.17403831 -192.27346248 199.82038744 -191 196 C-190.43410156 195.74863281 -189.86820313 195.49726563 -189.28515625 195.23828125 C-185.77915228 193.33844662 -183.82257472 190.32575621 -181.4375 187.1875 C-180.95603516 186.57068359 -180.47457031 185.95386719 -179.97851562 185.31835938 C-176.73294584 181.11742242 -173.69452202 177.08356605 -172 172 C-171.43667969 171.74992188 -170.87335938 171.49984375 -170.29296875 171.2421875 C-166.752279 169.32406256 -164.73909322 166.28117821 -162.3125 163.125 C-161.81427734 162.49980469 -161.31605469 161.87460938 -160.80273438 161.23046875 C-158.05854622 157.83662379 -158.05854622 157.83662379 -156.46142578 153.84228516 C-156.30915527 153.23433105 -156.15688477 152.62637695 -156 152 C-155.42378906 151.71640625 -154.84757813 151.4328125 -154.25390625 151.140625 C-150.93723369 149.46217026 -149.12433778 146.66079991 -146.9375 143.75 C-145.97052652 142.4866159 -145.00306353 141.22360634 -144.03515625 139.9609375 C-143.53902832 139.30963867 -143.04290039 138.65833984 -142.53173828 137.98730469 C-141.00315071 136.00408779 -139.44406651 134.0497082 -137.87109375 132.1015625 C-137.36908447 131.47668945 -136.8670752 130.85181641 -136.34985352 130.20800781 C-135.38470315 129.00847977 -134.41529392 127.81236296 -133.44116211 126.62011719 C-131.15087169 123.74996898 -129.81705948 121.55170754 -129 118 C-127.515 117.505 -127.515 117.505 -126 117 C-125.855625 116.360625 -125.71125 115.72125 -125.5625 115.0625 C-125.376875 114.381875 -125.19125 113.70125 -125 113 C-124.40445312 112.71769531 -123.80890625 112.43539062 -123.1953125 112.14453125 C-120.47074145 110.72406983 -119.17430113 109.05624573 -117.3125 106.625 C-116.40951172 105.46871094 -116.40951172 105.46871094 -115.48828125 104.2890625 C-113.89568997 102.1236799 -113.89568997 102.1236799 -113.48046875 99.7734375 C-113.32191406 99.18820313 -113.16335938 98.60296875 -113 98 C-111.515 97.505 -111.515 97.505 -110 97 C-109.855625 96.360625 -109.71125 95.72125 -109.5625 95.0625 C-109.376875 94.381875 -109.19125 93.70125 -109 93 C-108.39414062 92.71898438 -107.78828125 92.43796875 -107.1640625 92.1484375 C-104.45201671 90.70919298 -103.45587483 89.13528989 -101.8125 86.5625 C-101.30332031 85.78003906 -100.79414063 84.99757813 -100.26953125 84.19140625 C-98.86928132 81.94439088 -98.86928132 81.94439088 -98 79 C-97.38125 78.71125 -96.7625 78.4225 -96.125 78.125 C-92.43985015 76.17403831 -91.27346248 72.82038744 -90 69 C-89.38125 68.71125 -88.7625 68.4225 -88.125 68.125 C-84.43985015 66.17403831 -83.27346248 62.82038744 -82 59 C-80.515 58.505 -80.515 58.505 -79 58 C-78.855625 57.360625 -78.71125 56.72125 -78.5625 56.0625 C-78.376875 55.381875 -78.19125 54.70125 -78 54 C-77.39285156 53.71769531 -76.78570312 53.43539062 -76.16015625 53.14453125 C-73.46650403 51.71733396 -72.49902776 50.18433171 -70.875 47.625 C-70.37742187 46.85414062 -69.87984375 46.08328125 -69.3671875 45.2890625 C-67.97411593 43.07128031 -67.97411593 43.07128031 -67.0703125 40.8359375 C-66 39 -66 39 -64.22265625 38.17578125 C-60.73611031 36.33140457 -58.794864 33.28929473 -56.4375 30.1875 C-55.95603516 29.57068359 -55.47457031 28.95386719 -54.97851562 28.31835938 C-51.73294584 24.11742242 -48.69452202 20.08356605 -47 15 C-46.13375 14.5978125 -46.13375 14.5978125 -45.25 14.1875 C-42.61774682 12.79825527 -41.15178216 10.9661513 -39.34375 8.6328125 C-29.93405279 -2.80106376 -13.50992933 -0.3736259 0 0 Z " fill="#32B379" transform="translate(401,0)"/>
<path d="M0 0 C0 0.66 0 1.32 0 2 C0.70125 1.9175 1.4025 1.835 2.125 1.75 C6.01707435 2.08844125 7.97830327 3.58264262 11 6 C11.30808594 6.62132812 11.61617188 7.24265625 11.93359375 7.8828125 C13.22092973 10.43862239 14.87682077 12.08157898 16.875 14.125 C23.13050473 21.00491991 26.08520293 29.28505336 26.15443325 38.56926346 C26.16340793 39.46186741 26.1723826 40.35447135 26.18162924 41.27412391 C26.18650223 42.24627349 26.19137522 43.21842308 26.19639587 44.22003174 C26.20990669 45.78167978 26.20990669 45.78167978 26.22369045 47.37487626 C26.25268919 50.8739213 26.27469432 54.37297437 26.29663086 57.87207031 C26.31573343 60.38170901 26.335206 62.89134491 26.35502052 65.40097809 C26.40223324 71.54705339 26.4446248 77.69314603 26.48461042 83.83927214 C26.5177056 88.91445011 26.55284996 93.98961039 26.58921623 99.06476593 C27.05298597 163.9596712 27.31030603 228.85536707 27.51740968 293.75152946 C27.55021078 304.0197081 27.58436072 314.28788147 27.61941843 324.55605265 C28.04134245 448.17115401 28.04134245 448.17115401 28.02734375 509.3125 C28.02715406 510.28918042 28.02696436 511.26586084 28.02676892 512.27213764 C28.02295713 530.49618579 28.01027195 548.72019164 27.97235298 566.94420242 C27.95720636 574.27008878 27.94577305 581.59597773 27.9375 588.921875 C27.93668238 589.60961093 27.93586475 590.29734686 27.93502235 591.00592327 C27.90693957 617.10518323 28.21231521 643.19663489 28.63879395 669.29217529 C28.68460781 672.11307206 28.73008649 674.9339739 28.77514648 677.75488281 C28.78604809 678.43672748 28.79694969 679.11857215 28.80818164 679.82107878 C29.14948904 701.54594741 29.09742296 723.2731801 29 745 C28.67 745 28.34 745 28 745 C27.38839671 718.09928819 26.89170105 691.19703128 26.50436401 664.29220581 C26.46134547 661.30562655 26.41671997 658.31907976 26.37039185 655.33255005 C25.94072846 627.21694065 26 599.12502746 26 571 C-90.16 571 -206.32 571 -326 571 C-326 570.34 -326 569.68 -326 569 C-327.29035156 568.86722656 -328.58070313 568.73445312 -329.91015625 568.59765625 C-331.62761148 568.41934123 -333.34505899 568.24095187 -335.0625 568.0625 C-336.33383789 567.93198242 -336.33383789 567.93198242 -337.63085938 567.79882812 C-340.08845575 567.54263082 -342.54431667 567.27387372 -345 567 C-345.69722168 566.92765137 -346.39444336 566.85530273 -347.11279297 566.78076172 C-351.76845422 566.23154578 -351.76845422 566.23154578 -354 564 C-355.90314185 562.93743133 -355.90314185 562.93743133 -357.76953125 562.65234375 C-360.76945151 561.77495902 -363.06178216 560.24870865 -365.6875 558.5625 C-367.14736328 557.63630859 -367.14736328 557.63630859 -368.63671875 556.69140625 C-371 555 -371 555 -372 553 C-372.99 552.67 -373.98 552.34 -375 552 C-375.68856376 550.67784185 -376.35138481 549.34220735 -377 548 C-378.340676 546.48965339 -379.72040261 545.01359103 -381.125 543.5625 C-397.74543666 525.33880578 -402.09934847 504.71565418 -401.18652344 480.83886719 C-400.10391735 464.36171591 -391.41408743 450.4199776 -381.296875 437.90234375 C-378.56641214 434.45211602 -375.97217491 430.94434981 -374 427 C-373.34 426.34 -372.68 425.68 -372 425 C-371.67 424.01 -371.34 423.02 -371 422 C-370.43410156 421.74734375 -369.86820312 421.4946875 -369.28515625 421.234375 C-365.82085894 419.36306226 -363.79850216 416.3161221 -361.4375 413.25 C-360.9108374 412.5789624 -360.3841748 411.9079248 -359.84155273 411.21655273 C-358.22097569 409.14952236 -356.61010573 407.075192 -355 405 C-353.63187588 403.24964739 -352.26128097 401.50126624 -350.88964844 399.75366211 C-350.00104408 398.62132907 -349.11368387 397.48801864 -348.22753906 396.35375977 C-345.17143536 392.45245581 -342.05094148 388.60893417 -338.9050293 384.77978516 C-330.09676882 374.70576972 -330.09676882 374.70576972 -324 363 C-323.38125 362.71125 -322.7625 362.4225 -322.125 362.125 C-318.43985015 360.17403831 -317.27346248 356.82038744 -316 353 C-315.42121094 352.73445313 -314.84242188 352.46890625 -314.24609375 352.1953125 C-311.01046578 350.4733957 -309.21603209 347.75280888 -307.0625 344.875 C-306.09123957 343.60700253 -305.11852205 342.34012014 -304.14453125 341.07421875 C-303.63486816 340.4095459 -303.12520508 339.74487305 -302.60009766 339.06005859 C-299.87671331 335.55381551 -297.06093977 332.12363505 -294.25 328.6875 C-288.97050436 322.21125232 -288.97050436 322.21125232 -283.75 315.6875 C-283.22921875 315.03136719 -282.7084375 314.37523437 -282.171875 313.69921875 C-280.8095677 311.89249648 -280.8095677 311.89249648 -280 309 C-278.84308674 307.81994848 -277.68084209 306.64454306 -276.48925781 305.49951172 C-273.56144488 302.55154008 -270.99954156 299.27889618 -268.375 296.0625 C-267.76035889 295.31250732 -267.14571777 294.56251465 -266.51245117 293.78979492 C-261.83108235 288.05989657 -257.22489586 282.27494496 -252.68359375 276.43359375 C-250.78256466 273.98961549 -248.85448918 271.56982033 -246.91015625 269.16015625 C-246.40250732 268.52682373 -245.8948584 267.89349121 -245.37182617 267.2409668 C-244.3993125 266.02861612 -243.42186908 264.82019768 -242.4387207 263.61645508 C-240.14876921 260.74777577 -238.81670852 258.55018195 -238 255 C-237.01 254.67 -236.02 254.34 -235 254 C-234.835 253.34 -234.67 252.68 -234.5 252 C-234.335 251.34 -234.17 250.68 -234 250 C-233.01 249.67 -232.02 249.34 -231 249 C-230.855625 248.360625 -230.71125 247.72125 -230.5625 247.0625 C-230.376875 246.381875 -230.19125 245.70125 -230 245 C-229.14535156 244.63068359 -229.14535156 244.63068359 -228.2734375 244.25390625 C-225.04928764 242.47563803 -223.22793847 239.76938618 -221.0625 236.875 C-220.09789619 235.61340282 -219.13168006 234.35303718 -218.1640625 233.09375 C-217.65520508 232.42988281 -217.14634766 231.76601562 -216.62207031 231.08203125 C-213.2536435 226.75843946 -209.74188403 222.54773692 -206.24047852 218.33154297 C-205.71639404 217.69361816 -205.19230957 217.05569336 -204.65234375 216.3984375 C-204.18820068 215.83817871 -203.72405762 215.27791992 -203.24584961 214.70068359 C-201.23559734 211.95652971 -200.0737492 209.22124759 -199 206 C-198.071875 205.566875 -198.071875 205.566875 -197.125 205.125 C-193.43985015 203.17403831 -192.27346248 199.82038744 -191 196 C-190.43410156 195.74863281 -189.86820313 195.49726563 -189.28515625 195.23828125 C-185.77915228 193.33844662 -183.82257472 190.32575621 -181.4375 187.1875 C-180.95603516 186.57068359 -180.47457031 185.95386719 -179.97851562 185.31835938 C-176.73294584 181.11742242 -173.69452202 177.08356605 -172 172 C-171.43667969 171.74992188 -170.87335938 171.49984375 -170.29296875 171.2421875 C-166.752279 169.32406256 -164.73909322 166.28117821 -162.3125 163.125 C-161.81427734 162.49980469 -161.31605469 161.87460938 -160.80273438 161.23046875 C-158.05854622 157.83662379 -158.05854622 157.83662379 -156.46142578 153.84228516 C-156.30915527 153.23433105 -156.15688477 152.62637695 -156 152 C-155.42378906 151.71640625 -154.84757813 151.4328125 -154.25390625 151.140625 C-150.93723369 149.46217026 -149.12433778 146.66079991 -146.9375 143.75 C-145.97052652 142.4866159 -145.00306353 141.22360634 -144.03515625 139.9609375 C-143.53902832 139.30963867 -143.04290039 138.65833984 -142.53173828 137.98730469 C-141.00315071 136.00408779 -139.44406651 134.0497082 -137.87109375 132.1015625 C-137.36908447 131.47668945 -136.8670752 130.85181641 -136.34985352 130.20800781 C-135.38470315 129.00847977 -134.41529392 127.81236296 -133.44116211 126.62011719 C-131.15087169 123.74996898 -129.81705948 121.55170754 -129 118 C-127.515 117.505 -127.515 117.505 -126 117 C-125.855625 116.360625 -125.71125 115.72125 -125.5625 115.0625 C-125.376875 114.381875 -125.19125 113.70125 -125 113 C-124.40445312 112.71769531 -123.80890625 112.43539062 -123.1953125 112.14453125 C-120.47074145 110.72406983 -119.17430113 109.05624573 -117.3125 106.625 C-116.40951172 105.46871094 -116.40951172 105.46871094 -115.48828125 104.2890625 C-113.89568997 102.1236799 -113.89568997 102.1236799 -113.48046875 99.7734375 C-113.32191406 99.18820313 -113.16335938 98.60296875 -113 98 C-111.515 97.505 -111.515 97.505 -110 97 C-109.855625 96.360625 -109.71125 95.72125 -109.5625 95.0625 C-109.376875 94.381875 -109.19125 93.70125 -109 93 C-108.39414062 92.71898438 -107.78828125 92.43796875 -107.1640625 92.1484375 C-104.45201671 90.70919298 -103.45587483 89.13528989 -101.8125 86.5625 C-101.30332031 85.78003906 -100.79414063 84.99757813 -100.26953125 84.19140625 C-98.86928132 81.94439088 -98.86928132 81.94439088 -98 79 C-97.38125 78.71125 -96.7625 78.4225 -96.125 78.125 C-92.43985015 76.17403831 -91.27346248 72.82038744 -90 69 C-89.38125 68.71125 -88.7625 68.4225 -88.125 68.125 C-84.43985015 66.17403831 -83.27346248 62.82038744 -82 59 C-80.515 58.505 -80.515 58.505 -79 58 C-78.855625 57.360625 -78.71125 56.72125 -78.5625 56.0625 C-78.376875 55.381875 -78.19125 54.70125 -78 54 C-77.39285156 53.71769531 -76.78570312 53.43539062 -76.16015625 53.14453125 C-73.46650403 51.71733396 -72.49902776 50.18433171 -70.875 47.625 C-70.37742187 46.85414062 -69.87984375 46.08328125 -69.3671875 45.2890625 C-67.97411593 43.07128031 -67.97411593 43.07128031 -67.0703125 40.8359375 C-66 39 -66 39 -64.22265625 38.17578125 C-60.73611031 36.33140457 -58.794864 33.28929473 -56.4375 30.1875 C-55.95603516 29.57068359 -55.47457031 28.95386719 -54.97851562 28.31835938 C-51.73294584 24.11742242 -48.69452202 20.08356605 -47 15 C-46.13375 14.5978125 -46.13375 14.5978125 -45.25 14.1875 C-42.61774682 12.79825527 -41.15178216 10.9661513 -39.34375 8.6328125 C-29.93405279 -2.80106376 -13.50992933 -0.3736259 0 0 Z " fill="#3DCF8E" transform="translate(401,0)"/>
<path d="M0 0 C0.33 0 0.66 0 1 0 C1.01030746 0.66985428 1.02061493 1.33970856 1.03123474 2.02986145 C1.13924336 8.98883946 1.25384605 15.9476865 1.37231445 22.90649414 C1.41568138 25.50509913 1.45735515 28.10373295 1.49731445 30.70239258 C1.55497423 34.43319392 1.61868129 38.16384994 1.68359375 41.89453125 C1.70030624 43.06023148 1.71701874 44.2259317 1.73423767 45.42695618 C1.75418289 46.50785019 1.77412811 47.5887442 1.79467773 48.70239258 C1.81022202 49.65503494 1.8257663 50.60767731 1.84178162 51.58918762 C1.90718078 54.14391198 1.90718078 54.14391198 3 57 C4.04830241 63.70913544 4.01379789 70.30722814 3.5625 77.0625 C2.94825275 86.51893556 2.87400508 95.96514369 2.875 105.4375 C2.87491943 106.21148132 2.87483887 106.98546265 2.87475586 107.78289795 C2.88256824 116.10156179 2.97629641 124.38625309 3.5625 132.6875 C4.43361195 145.34349192 3.69973508 158.06077589 3.33576965 170.72666931 C3.31133286 171.57870438 3.28689606 172.43073944 3.26171875 173.30859375 C3.23748337 174.15188736 3.21324799 174.99518097 3.1882782 175.86402893 C2.99687493 182.70098049 2.88373247 189.53514914 2.875 196.375 C2.87056885 197.23327393 2.8661377 198.09154785 2.86157227 198.97583008 C2.87111972 203.09493398 3.0922355 207.09437528 3.56640625 211.1875 C4.00325808 215.19015486 3.8483748 218.64939805 3.0625 222.625 C2.86785156 223.64851562 2.67320312 224.67203125 2.47265625 225.7265625 C2.31667969 226.47679687 2.16070312 227.22703125 2 228 C1.67 228 1.34 228 1 228 C0.82613341 207.62505694 0.6600247 187.2500561 0.5 166.875 C0.49405146 166.11872031 0.48810292 165.36244062 0.48197412 164.58324337 C0.15218756 122.59689769 -0.09837947 80.61294393 -0.0625 38.625 C-0.06164398 37.61567162 -0.06078796 36.60634323 -0.05990601 35.56642914 C-0.04905705 23.71093132 -0.02991372 11.8554652 0 0 Z " fill="#239B63" transform="translate(428,362)"/>
<path d="M0 0 C120.78 0 241.56 0 366 0 C366 0.33 366 0.66 366 1 C245.22 1 124.44 1 0 1 C0 0.67 0 0.34 0 0 Z " fill="#288258" transform="translate(429,312)"/>
<path d="M0 0 C0.33 0 0.66 0 1 0 C1 48.18 1 96.36 1 146 C0.67 146 0.34 146 0 146 C0 97.82 0 49.64 0 0 Z " fill="#4BC490" transform="translate(429,162)"/>
<path d="M0 0 C0.33 0 0.66 0 1 0 C1 42.24 1 84.48 1 128 C0.67 128 0.34 128 0 128 C0 85.76 0 43.52 0 0 Z " fill="#4ABA89" transform="translate(428,34)"/>
<path d="M0 0 C0.33 0 0.66 0 1 0 C1 19.8 1 39.6 1 60 C0.67 60 0.34 60 0 60 C0 40.2 0 20.4 0 0 Z " fill="#36A370" transform="translate(430,760)"/>
<path d="M0 0 C-0.75 3.375 -0.75 3.375 -2 7 C-3.8125 8.125 -3.8125 8.125 -6 9 C-7.70496537 10.62746694 -9.37897032 12.28891311 -11 14 C-11.33 13.01 -11.66 12.02 -12 11 C-11.34 10.34 -10.68 9.68 -10 9 C-9.67 8.34 -9.34 7.68 -9 7 C-8.34 6.67 -7.68 6.34 -7 6 C-6.835 5.01 -6.67 4.02 -6.5 3 C-6.335 2.01 -6.17 1.02 -6 0 C-3.50907189 -1.24546405 -2.58919267 -0.7767578 0 0 Z " fill="#38D388" transform="translate(822,465)"/>
<path d="M0 0 C0.33 0 0.66 0 1 0 C1.33 11.55 1.66 23.1 2 35 C-0.16679291 30.66641418 -0.23437001 28.59314121 -0.1953125 23.828125 C-0.1924826 23.1457074 -0.18965271 22.46328979 -0.18673706 21.76019287 C-0.17558098 19.58994693 -0.15048557 17.42012029 -0.125 15.25 C-0.11496426 13.77474556 -0.10583944 12.29948463 -0.09765625 10.82421875 C-0.07565687 7.21601058 -0.04115883 3.60804625 0 0 Z " fill="#3E9F5D" transform="translate(431,820)"/>
<path d="M0 0 C1.65 0.33 3.3 0.66 5 1 C3.63055898 3.94956528 2.12169591 6.52468811 0 9 C-0.66 9 -1.32 9 -2 9 C-2 6.69 -2 4.38 -2 2 C-1.34 2 -0.68 2 0 2 C0 1.34 0 0.68 0 0 Z " fill="#3BCD8B" transform="translate(658,664)"/>
<path d="M0 0 C-1.40976705 3.03852705 -3.08870228 5.5939595 -5.125 8.25 C-5.66382813 8.95640625 -6.20265625 9.6628125 -6.7578125 10.390625 C-7.16773438 10.92171875 -7.57765625 11.4528125 -8 12 C-9 9 -9 9 -8.125 6.9375 C-7.75375 6.298125 -7.3825 5.65875 -7 5 C-6.67 4.34 -6.34 3.68 -6 3 C-3.46153846 0 -3.46153846 0 0 0 Z " fill="#3DCE8F" transform="translate(768,533)"/>
<path d="M0 0 C0.33 0.99 0.66 1.98 1 3 C-0.21484375 4.82421875 -0.21484375 4.82421875 -1.9375 6.6875 C-2.50339844 7.31011719 -3.06929687 7.93273437 -3.65234375 8.57421875 C-4.09707031 9.04472656 -4.54179688 9.51523437 -5 10 C-5.66 9.67 -6.32 9.34 -7 9 C-7 7 -7 7 -5 5 C-4.67 4.34 -4.34 3.68 -4 3 C-2.69084721 1.96854629 -1.35917857 0.96457834 0 0 Z " fill="#3ECE92" transform="translate(817,469)"/>
<path d="M0 0 C0.33 0.66 0.66 1.32 1 2 C0.07421875 4.34765625 0.07421875 4.34765625 -1.3125 7.0625 C-1.98732422 8.41021484 -1.98732422 8.41021484 -2.67578125 9.78515625 C-4 12 -4 12 -6 13 C-5.67 10.36 -5.34 7.72 -5 5 C-3.68 4.67 -2.36 4.34 -1 4 C-0.67 2.68 -0.34 1.36 0 0 Z " fill="#39D18D" transform="translate(853,420)"/>
<path d="M0 0 C-0.54226981 3.79588866 -2.20127563 5.47211993 -5 8 C-5.36625971 3.48279689 -5.36625971 3.48279689 -3.625 1.1875 C-2 0 -2 0 0 0 Z " fill="#3ED289" transform="translate(789,505)"/>
<path d="M0 0 C3.53233755 1.17744585 3.86308075 1.95605641 5.6875 5.0625 C6.12449219 5.79597656 6.56148437 6.52945312 7.01171875 7.28515625 C7.33785156 7.85105469 7.66398438 8.41695313 8 9 C5 9 5 9 3.4375 7.875 C1.56112131 5.42754954 0.85010055 2.94265576 0 0 Z " fill="#3BD090" transform="translate(840,341)"/>
<path d="M0 0 C0.66 0 1.32 0 2 0 C2 0.66 2 1.32 2 2 C2.66 2.33 3.32 2.66 4 3 C2.68 4.65 1.36 6.3 0 8 C-0.66 7.67 -1.32 7.34 -2 7 C-1.34 4.69 -0.68 2.38 0 0 Z " fill="#41CC89" transform="translate(722,584)"/>
<path d="M0 0 C0.99 0.33 1.98 0.66 3 1 C2.67 2.65 2.34 4.3 2 6 C0.68 5.67 -0.64 5.34 -2 5 C-1.125 1.125 -1.125 1.125 0 0 Z " fill="#41C691" transform="translate(822,323)"/>
<path d="M0 0 C0.99 0 1.98 0 3 0 C1.55746343 3.36591866 -0.33264727 5.51047079 -3 8 C-2.45276317 4.62537285 -1.9451 2.91765 0 0 Z " fill="#35C985" transform="translate(624,710)"/>
<path d="M0 0 C-1.36944102 2.94956528 -2.87830409 5.52468811 -5 8 C-5.66 8 -6.32 8 -7 8 C-7 5 -7 5 -4.625 2.3125 C-2 0 -2 0 0 0 Z " fill="#38D192" transform="translate(775,524)"/>
<path d="M0 0 C-1 3 -1 3 -2.9375 4.125 C-3.618125 4.41375 -4.29875 4.7025 -5 5 C-5.99 5.495 -5.99 5.495 -7 6 C-6.625 3.5625 -6.625 3.5625 -6 1 C-4 0 -4 0 0 0 Z " fill="#37BF80" transform="translate(739,572)"/>
<path d="M0 0 C0.33 0.66 0.66 1.32 1 2 C1.66 2.33 2.32 2.66 3 3 C1 4 -1 5 -3 6 C-2.625 3.5625 -2.625 3.5625 -2 1 C-1.34 0.67 -0.68 0.34 0 0 Z " fill="#3EBD8B" transform="translate(495,872)"/>
<path d="M0 0 C0.99 0.33 1.98 0.66 3 1 C2.34 2.32 1.68 3.64 1 5 C0.01 5 -0.98 5 -2 5 C-2 4.01 -2 3.02 -2 2 C-1.34 2 -0.68 2 0 2 C0 1.34 0 0.68 0 0 Z " fill="#3DC683" transform="translate(658,664)"/>
<path d="M0 0 C3.63 0 7.26 0 11 0 C11 0.33 11 0.66 11 1 C7.37 1 3.74 1 0 1 C0 0.67 0 0.34 0 0 Z " fill="#509B71" transform="translate(64,569)"/>
<path d="M0 0 C1.65 0 3.3 0 5 0 C5 0.33 5 0.66 5 1 C3.35 1 1.7 1 0 1 C0 0.67 0 0.34 0 0 Z " fill="#32C469" transform="translate(59,568)"/>
<path d="M0 0 C0.33 0 0.66 0 1 0 C1 1.65 1 3.3 1 5 C0.67 5 0.34 5 0 5 C0 3.35 0 1.7 0 0 Z " fill="#45B37E" transform="translate(859,407)"/>
<path d="M0 0 C0.33 0 0.66 0 1 0 C1 1.65 1 3.3 1 5 C0.67 5 0.34 5 0 5 C0 3.35 0 1.7 0 0 Z " fill="#3DC47E" transform="translate(859,371)"/>
<path d="M0 0 C0.99 0.33 1.98 0.66 3 1 C2.67 1.66 2.34 2.32 2 3 C1.34 2.01 0.68 1.02 0 0 Z " fill="#3BCF5E" transform="translate(835,333)"/>
<path d="M0 0 C1.65 0 3.3 0 5 0 C5 0.33 5 0.66 5 1 C3.35 1 1.7 1 0 1 C0 0.67 0 0.34 0 0 Z " fill="#49EB8D" transform="translate(795,313)"/>
<path d="M0 0 C0.33 0 0.66 0 1 0 C1 1.65 1 3.3 1 5 C0.67 5 0.34 5 0 5 C0 3.35 0 1.7 0 0 Z " fill="#55BA8F" transform="translate(427,29)"/>
<path d="M0 0 C0 3 0 3 0 3 Z " fill="#3BA46D" transform="translate(505,865)"/>
<path d="M0 0 C0 3 0 3 0 3 Z " fill="#4AC775" transform="translate(536,826)"/>
<path d="M0 0 C0 3 0 3 0 3 Z " fill="#3C9F72" transform="translate(540,821)"/>
<path d="M0 0 C0 3 0 3 0 3 Z " fill="#26904D" transform="translate(606,738)"/>
<path d="M0 0 C0 3 0 3 0 3 Z " fill="#1CE857" transform="translate(610,733)"/>
<path d="M0 0 C0 3 0 3 0 3 Z " fill="#30CF6F" transform="translate(614,728)"/>
<path d="M0 0 C0 3 0 3 0 3 Z " fill="#29AE54" transform="translate(657,674)"/>
<path d="M0 0 C0 3 0 3 0 3 Z " fill="#2D8C61" transform="translate(672,655)"/>
<path d="M0 0 C0 3 0 3 0 3 Z " fill="#46C971" transform="translate(684,640)"/>
<path d="M0 0 C0 3 0 3 0 3 Z " fill="#25EB8A" transform="translate(688,635)"/>
<path d="M0 0 C0 3 0 3 0 3 Z " fill="#3BD36F" transform="translate(711,606)"/>
<path d="M0 0 C0 3 0 3 0 3 Z " fill="#2BBF62" transform="translate(715,601)"/>
<path d="M0 0 C0 3 0 3 0 3 Z " fill="#34A663" transform="translate(731,581)"/>
<path d="M0 0 C1 4 1 4 1 4 Z " fill="#3CCF91" transform="translate(0,508)"/>
<path d="M0 0 C0 3 0 3 0 3 Z " fill="#29BD92" transform="translate(789,508)"/>
<path d="M0 0 C1 4 1 4 1 4 Z " fill="#2CCE84" transform="translate(0,469)"/>
<path d="M0 0 C0 3 0 3 0 3 Z " fill="#2DA86A" transform="translate(840,444)"/>
<path d="M0 0 C0 3 0 3 0 3 Z " fill="#18BD4F" transform="translate(38,412)"/>
<path d="M0 0 C0 3 0 3 0 3 Z " fill="#38D77C" transform="translate(61,383)"/>
<path d="M0 0 C0 3 0 3 0 3 Z " fill="#52A775" transform="translate(65,378)"/>
<path d="M0 0 C0 3 0 3 0 3 Z " fill="#39A15D" transform="translate(88,349)"/>
<path d="M0 0 C0 3 0 3 0 3 Z " fill="#3EA74E" transform="translate(92,344)"/>
<path d="M0 0 C0 3 0 3 0 3 Z " fill="#27CC79" transform="translate(108,324)"/>
<path d="M0 0 C0 3 0 3 0 3 Z " fill="#52CB92" transform="translate(112,319)"/>
<path d="M0 0 C0 3 0 3 0 3 Z " fill="#33B28D" transform="translate(139,285)"/>
<path d="M0 0 C0 3 0 3 0 3 Z " fill="#2C8C5E" transform="translate(151,270)"/>
<path d="M0 0 C0 3 0 3 0 3 Z " fill="#2B885D" transform="translate(178,236)"/>
<path d="M0 0 C0 3 0 3 0 3 Z " fill="#41B679" transform="translate(182,231)"/>
<path d="M0 0 C0 3 0 3 0 3 Z " fill="#4AE25A" transform="translate(186,226)"/>
<path d="M0 0 C0 3 0 3 0 3 Z " fill="#3AA36F" transform="translate(213,192)"/>
<path d="M0 0 C0 3 0 3 0 3 Z " fill="#488F80" transform="translate(237,162)"/>
<path d="M0 0 C0 3 0 3 0 3 Z " fill="#51CD75" transform="translate(260,133)"/>
<path d="M0 0 C0 3 0 3 0 3 Z " fill="#2DD673" transform="translate(264,128)"/>
<path d="M0 0 C0 3 0 3 0 3 Z " fill="#43A788" transform="translate(307,74)"/>
<path d="M0 0 C0 3 0 3 0 3 Z " fill="#45A26E" transform="translate(338,35)"/>
<path d="M0 0 C3 1 3 1 3 1 Z " fill="#268542" transform="translate(486,880)"/>
<path d="" fill="#5DC198" transform="translate(0,0)"/>
<path d="M0 0 C3 1 3 1 3 1 Z " fill="#45C387" transform="translate(56,567)"/>
<path d="" fill="#2BA875" transform="translate(0,0)"/>
<path d="" fill="#4EE3A5" transform="translate(0,0)"/>
<path d="" fill="#3D9B6D" transform="translate(0,0)"/>
<path d="" fill="#6CC492" transform="translate(0,0)"/>
<path d="" fill="#32F780" transform="translate(0,0)"/>
<path d="" fill="#3BB1A5" transform="translate(0,0)"/>
<path d="" fill="#6ABF98" transform="translate(0,0)"/>
<path d="" fill="#1D754B" transform="translate(0,0)"/>
<path d="M0 0 C0.66 0 1.32 0 2 0 C1.67 0.66 1.34 1.32 1 2 C0.67 1.34 0.34 0.68 0 0 Z " fill="#237C52" transform="translate(838,336)"/>
<path d="M0 0 C3 1 3 1 3 1 Z " fill="#45BC8D" transform="translate(804,315)"/>
<path d="M0 0 C3 1 3 1 3 1 Z " fill="#57AC93" transform="translate(801,314)"/>
<path d="" fill="#3FC079" transform="translate(0,0)"/>
<path d="" fill="#70CEB3" transform="translate(0,0)"/>
<path d="M0 0 C0.66 0 1.32 0 2 0 C1.67 0.66 1.34 1.32 1 2 C0.67 1.34 0.34 0.68 0 0 Z " fill="#63E8A4" transform="translate(413,8)"/>
<path d="M0 0 C3 1 3 1 3 1 Z " fill="#2DB376" transform="translate(401,1)"/>
<path d="M0 0 C2 1 2 1 2 1 Z " fill="#62CE97" transform="translate(484,881)"/>
<path d="M0 0 C2 1 2 1 2 1 Z " fill="#329E73" transform="translate(456,880)"/>
<path d="" fill="#287232" transform="translate(0,0)"/>
<path d="" fill="#2AAFA1" transform="translate(0,0)"/>
<path d="" fill="#3ABF6A" transform="translate(0,0)"/>
<path d="" fill="#266038" transform="translate(0,0)"/>
<path d="" fill="#57C497" transform="translate(0,0)"/>
<path d="" fill="#359E84" transform="translate(0,0)"/>
<path d="" fill="#25DBC3" transform="translate(0,0)"/>
<path d="" fill="#50C98F" transform="translate(0,0)"/>
<path d="" fill="#16DE52" transform="translate(0,0)"/>
<path d="" fill="#1B9E7A" transform="translate(0,0)"/>
<path d="" fill="#2CC362" transform="translate(0,0)"/>
<path d="" fill="#27D0A7" transform="translate(0,0)"/>
<path d="" fill="#3A8F6C" transform="translate(0,0)"/>
<path d="" fill="#2CAD53" transform="translate(0,0)"/>
<path d="" fill="#3EBB83" transform="translate(0,0)"/>
<path d="" fill="#60DFB9" transform="translate(0,0)"/>
<path d="" fill="#1ACFAF" transform="translate(0,0)"/>
<path d="" fill="#41BC86" transform="translate(0,0)"/>
<path d="" fill="#0FBF37" transform="translate(0,0)"/>
<path d="" fill="#0CAD31" transform="translate(0,0)"/>
<path d="" fill="#4EC892" transform="translate(0,0)"/>
<path d="" fill="#49F4CC" transform="translate(0,0)"/>
<path d="" fill="#2A9460" transform="translate(0,0)"/>
<path d="" fill="#33D58B" transform="translate(0,0)"/>
<path d="" fill="#38D969" transform="translate(0,0)"/>
<path d="" fill="#31D6C0" transform="translate(0,0)"/>
<path d="" fill="#56F5C3" transform="translate(0,0)"/>
<path d="" fill="#319967" transform="translate(0,0)"/>
<path d="" fill="#2DE0AD" transform="translate(0,0)"/>
<path d="" fill="#28E2A9" transform="translate(0,0)"/>
<path d="" fill="#4BE96B" transform="translate(0,0)"/>
<path d="" fill="#26E1B8" transform="translate(0,0)"/>
<path d="" fill="#34C2A3" transform="translate(0,0)"/>
<path d="" fill="#66BEA5" transform="translate(0,0)"/>
<path d="" fill="#49F7C1" transform="translate(0,0)"/>
<path d="" fill="#58CA87" transform="translate(0,0)"/>
<path d="" fill="#27CA6D" transform="translate(0,0)"/>
<path d="" fill="#6CBBB4" transform="translate(0,0)"/>
<path d="" fill="#2EF9D3" transform="translate(0,0)"/>
<path d="" fill="#2EA177" transform="translate(0,0)"/>
<path d="" fill="#31E59D" transform="translate(0,0)"/>
<path d="" fill="#21DEAF" transform="translate(0,0)"/>
<path d="M0 0 C2 1 2 1 2 1 Z " fill="#50906B" transform="translate(45,563)"/>
<path d="" fill="#399587" transform="translate(0,0)"/>
<path d="" fill="#46C290" transform="translate(0,0)"/>
<path d="" fill="#3AEA81" transform="translate(0,0)"/>
<path d="" fill="#43E882" transform="translate(0,0)"/>
<path d="" fill="#55C3C0" transform="translate(0,0)"/>
<path d="" fill="#5FC58E" transform="translate(0,0)"/>
<path d="" fill="#81EBE1" transform="translate(0,0)"/>
<path d="" fill="#3DE19E" transform="translate(0,0)"/>
<path d="" fill="#307146" transform="translate(0,0)"/>
<path d="" fill="#24B775" transform="translate(0,0)"/>
<path d="" fill="#3BE3B2" transform="translate(0,0)"/>
<path d="" fill="#2C8358" transform="translate(0,0)"/>
<path d="" fill="#3DD1A5" transform="translate(0,0)"/>
<path d="" fill="#3EF9CB" transform="translate(0,0)"/>
<path d="" fill="#2C958A" transform="translate(0,0)"/>
<path d="" fill="#47E28C" transform="translate(0,0)"/>
<path d="" fill="#55C89A" transform="translate(0,0)"/>
<path d="" fill="#28F9CB" transform="translate(0,0)"/>
<path d="" fill="#2EE7AB" transform="translate(0,0)"/>
<path d="" fill="#2DC34D" transform="translate(0,0)"/>
<path d="" fill="#3FCC99" transform="translate(0,0)"/>
<path d="" fill="#50DC9E" transform="translate(0,0)"/>
<path d="" fill="#35C78F" transform="translate(0,0)"/>
<path d="" fill="#24D2A2" transform="translate(0,0)"/>
<path d="" fill="#38955E" transform="translate(0,0)"/>
<path d="" fill="#29C7A7" transform="translate(0,0)"/>
<path d="" fill="#42CBBA" transform="translate(0,0)"/>
<path d="" fill="#56E181" transform="translate(0,0)"/>
<path d="" fill="#7CF9B4" transform="translate(0,0)"/>
<path d="" fill="#038B5C" transform="translate(0,0)"/>
<path d="" fill="#55CDAE" transform="translate(0,0)"/>
<path d="" fill="#33E5B2" transform="translate(0,0)"/>
<path d="" fill="#55E3A4" transform="translate(0,0)"/>
<path d="" fill="#178C4A" transform="translate(0,0)"/>
<path d="" fill="#4FD0A0" transform="translate(0,0)"/>
<path d="" fill="#33B57A" transform="translate(0,0)"/>
<path d="" fill="#4BD798" transform="translate(0,0)"/>
<path d="" fill="#3DF1E2" transform="translate(0,0)"/>
<path d="" fill="#439271" transform="translate(0,0)"/>
<path d="" fill="#48C3AF" transform="translate(0,0)"/>
<path d="" fill="#68E7A8" transform="translate(0,0)"/>
<path d="" fill="#39D143" transform="translate(0,0)"/>
<path d="" fill="#3CC38F" transform="translate(0,0)"/>
<path d="" fill="#44CB8E" transform="translate(0,0)"/>
<path d="" fill="#51AA99" transform="translate(0,0)"/>
<path d="" fill="#5DD890" transform="translate(0,0)"/>
<path d="" fill="#258A6D" transform="translate(0,0)"/>
<path d="" fill="#14BA96" transform="translate(0,0)"/>
<path d="" fill="#54C7B0" transform="translate(0,0)"/>
<path d="" fill="#2ADAD4" transform="translate(0,0)"/>
<path d="" fill="#43C38B" transform="translate(0,0)"/>
<path d="" fill="#24A875" transform="translate(0,0)"/>
<path d="" fill="#56D689" transform="translate(0,0)"/>
<path d="" fill="#209F6B" transform="translate(0,0)"/>
<path d="" fill="#44D7A8" transform="translate(0,0)"/>
<path d="" fill="#53EBB7" transform="translate(0,0)"/>
<path d="" fill="#5ED0B7" transform="translate(0,0)"/>
<path d="" fill="#46C888" transform="translate(0,0)"/>
<path d="" fill="#428563" transform="translate(0,0)"/>
<path d="" fill="#5CE4B4" transform="translate(0,0)"/>
<path d="" fill="#2FD87F" transform="translate(0,0)"/>
<path d="" fill="#6FE8C1" transform="translate(0,0)"/>
<path d="" fill="#54CB9E" transform="translate(0,0)"/>
<path d="" fill="#4FC28C" transform="translate(0,0)"/>
<path d="" fill="#54F4BB" transform="translate(0,0)"/>
<path d="M0 0 C2 1 2 1 2 1 Z " fill="#4DF2B1" transform="translate(810,317)"/>
<path d="" fill="#64EEAD" transform="translate(0,0)"/>
<path d="" fill="#0CCDB3" transform="translate(0,0)"/>
<path d="" fill="#48CF9A" transform="translate(0,0)"/>
<path d="" fill="#36E6C8" transform="translate(0,0)"/>
<path d="" fill="#17DD5E" transform="translate(0,0)"/>
<path d="" fill="#48BF7E" transform="translate(0,0)"/>
<path d="" fill="#23A481" transform="translate(0,0)"/>
<path d="" fill="#59CFA7" transform="translate(0,0)"/>
<path d="" fill="#69E4C2" transform="translate(0,0)"/>
<path d="" fill="#2F9C72" transform="translate(0,0)"/>
<path d="" fill="#7AF0C5" transform="translate(0,0)"/>
<path d="" fill="#3B9363" transform="translate(0,0)"/>
<path d="" fill="#109464" transform="translate(0,0)"/>
<path d="" fill="#4ED599" transform="translate(0,0)"/>
<path d="" fill="#2DE9C3" transform="translate(0,0)"/>
<path d="" fill="#44BEA8" transform="translate(0,0)"/>
<path d="" fill="#0E977E" transform="translate(0,0)"/>
<path d="" fill="#4BC4BC" transform="translate(0,0)"/>
<path d="" fill="#30C088" transform="translate(0,0)"/>
<path d="" fill="#48CA9B" transform="translate(0,0)"/>
<path d="" fill="#4FD8A9" transform="translate(0,0)"/>
<path d="" fill="#50E56C" transform="translate(0,0)"/>
<path d="" fill="#33CF80" transform="translate(0,0)"/>
<path d="" fill="#3EF8D7" transform="translate(0,0)"/>
<path d="" fill="#4AC48D" transform="translate(0,0)"/>
<path d="" fill="#16D3B4" transform="translate(0,0)"/>
<path d="" fill="#2F9C6F" transform="translate(0,0)"/>
<path d="" fill="#349471" transform="translate(0,0)"/>
<path d="" fill="#57CDA8" transform="translate(0,0)"/>
<path d="" fill="#33E399" transform="translate(0,0)"/>
<path d="" fill="#60BDB0" transform="translate(0,0)"/>
<path d="" fill="#17A76C" transform="translate(0,0)"/>
<path d="" fill="#2ED575" transform="translate(0,0)"/>
<path d="" fill="#60EEB1" transform="translate(0,0)"/>
<path d="" fill="#56E7AD" transform="translate(0,0)"/>
<path d="M0 0 C2 1 2 1 2 1 Z " fill="#2BBD91" transform="translate(371,1)"/>
<path d="M0 0 C2 1 2 1 2 1 Z " fill="#67FAD6" transform="translate(374,0)"/>
<path d="" fill="#3CAD60" transform="translate(0,0)"/>
<path d="" fill="#54AB60" transform="translate(0,0)"/>
<path d="" fill="#2FA270" transform="translate(0,0)"/>
<path d="" fill="#92E798" transform="translate(0,0)"/>
<path d="" fill="#56CC99" transform="translate(0,0)"/>
<path d="" fill="#67DEA1" transform="translate(0,0)"/>
<path d="" fill="#2E9C6C" transform="translate(0,0)"/>
<path d="" fill="#3ABF82" transform="translate(0,0)"/>
<path d="" fill="#39A877" transform="translate(0,0)"/>
<path d="" fill="#169B5E" transform="translate(0,0)"/>
<path d="" fill="#2FD891" transform="translate(0,0)"/>
<path d="" fill="#0F8A4E" transform="translate(0,0)"/>
<path d="" fill="#39E599" transform="translate(0,0)"/>
<path d="" fill="#45AC80" transform="translate(0,0)"/>
<path d="" fill="#15A98B" transform="translate(0,0)"/>
<path d="" fill="#2BBC67" transform="translate(0,0)"/>
<path d="" fill="#12E02F" transform="translate(0,0)"/>
<path d="" fill="#44AE98" transform="translate(0,0)"/>
<path d="" fill="#298D4B" transform="translate(0,0)"/>
<path d="" fill="#66C789" transform="translate(0,0)"/>
<path d="" fill="#24A16E" transform="translate(0,0)"/>
<path d="" fill="#3BAF93" transform="translate(0,0)"/>
<path d="" fill="#008078" transform="translate(0,0)"/>
<path d="" fill="#28AA7C" transform="translate(0,0)"/>
<path d="" fill="#239873" transform="translate(0,0)"/>
<path d="" fill="#11825C" transform="translate(0,0)"/>
<path d="" fill="#37BA85" transform="translate(0,0)"/>
<path d="" fill="#12A988" transform="translate(0,0)"/>
<path d="" fill="#5FFFAF" transform="translate(0,0)"/>
<path d="" fill="#3DC189" transform="translate(0,0)"/>
<path d="" fill="#46B395" transform="translate(0,0)"/>
<path d="" fill="#21EED4" transform="translate(0,0)"/>
<path d="" fill="#2DB985" transform="translate(0,0)"/>
<path d="" fill="#4FB575" transform="translate(0,0)"/>
<path d="" fill="#028542" transform="translate(0,0)"/>
<path d="" fill="#55A79B" transform="translate(0,0)"/>
<path d="" fill="#56B661" transform="translate(0,0)"/>
<path d="" fill="#35CC75" transform="translate(0,0)"/>
<path d="" fill="#0FE073" transform="translate(0,0)"/>
<path d="" fill="#49B8A0" transform="translate(0,0)"/>
<path d="" fill="#2DD7A2" transform="translate(0,0)"/>
<path d="" fill="#02AE8D" transform="translate(0,0)"/>
<path d="" fill="#5CEAC8" transform="translate(0,0)"/>
<path d="" fill="#017B66" transform="translate(0,0)"/>
<path d="" fill="#5EE6A1" transform="translate(0,0)"/>
<path d="" fill="#1FAB5A" transform="translate(0,0)"/>
<path d="" fill="#7EFF94" transform="translate(0,0)"/>
<path d="" fill="#32B47D" transform="translate(0,0)"/>
<path d="" fill="#44C489" transform="translate(0,0)"/>
<path d="" fill="#4FB175" transform="translate(0,0)"/>
<path d="" fill="#0E7D4C" transform="translate(0,0)"/>
<path d="" fill="#5CF5AB" transform="translate(0,0)"/>
<path d="" fill="#30B684" transform="translate(0,0)"/>
<path d="" fill="#008A6B" transform="translate(0,0)"/>
<path d="" fill="#70F7BE" transform="translate(0,0)"/>
<path d="" fill="#119960" transform="translate(0,0)"/>
<path d="" fill="#45B790" transform="translate(0,0)"/>
<path d="" fill="#3DDCA7" transform="translate(0,0)"/>
<path d="" fill="#309F77" transform="translate(0,0)"/>
<path d="" fill="#7BF2C5" transform="translate(0,0)"/>
<path d="" fill="#067D4C" transform="translate(0,0)"/>
<path d="" fill="#119D6B" transform="translate(0,0)"/>
<path d="" fill="#05AD87" transform="translate(0,0)"/>
<path d="" fill="#66FFB3" transform="translate(0,0)"/>
<path d="" fill="#44C48B" transform="translate(0,0)"/>
<path d="" fill="#18AE87" transform="translate(0,0)"/>
<path d="" fill="#44BA79" transform="translate(0,0)"/>
<path d="" fill="#48B368" transform="translate(0,0)"/>
<path d="" fill="#028E33" transform="translate(0,0)"/>
<path d="" fill="#76E5BD" transform="translate(0,0)"/>
<path d="" fill="#4AAC7F" transform="translate(0,0)"/>
<path d="" fill="#1E7E52" transform="translate(0,0)"/>
<path d="" fill="#5FE4A8" transform="translate(0,0)"/>
<path d="" fill="#5BF1AF" transform="translate(0,0)"/>
<path d="" fill="#008A62" transform="translate(0,0)"/>
<path d="" fill="#3FA872" transform="translate(0,0)"/>
<path d="" fill="#2BA293" transform="translate(0,0)"/>
<path d="" fill="#2AC976" transform="translate(0,0)"/>
<path d="" fill="#11A664" transform="translate(0,0)"/>
<path d="" fill="#42C78A" transform="translate(0,0)"/>
<path d="" fill="#5CDE94" transform="translate(0,0)"/>
<path d="" fill="#45BB83" transform="translate(0,0)"/>
<path d="" fill="#33B470" transform="translate(0,0)"/>
<path d="" fill="#70E396" transform="translate(0,0)"/>
<path d="" fill="#2BDA5F" transform="translate(0,0)"/>
<path d="" fill="#0FAE5F" transform="translate(0,0)"/>
<path d="" fill="#24E592" transform="translate(0,0)"/>
<path d="" fill="#4DDAA4" transform="translate(0,0)"/>
<path d="" fill="#38C897" transform="translate(0,0)"/>
<path d="" fill="#34E4A9" transform="translate(0,0)"/>
<path d="" fill="#5BF27F" transform="translate(0,0)"/>
<path d="" fill="#43C86E" transform="translate(0,0)"/>
<path d="" fill="#6DFF8E" transform="translate(0,0)"/>
<path d="" fill="#2DBA74" transform="translate(0,0)"/>
<path d="" fill="#2BA469" transform="translate(0,0)"/>
<path d="" fill="#36B87C" transform="translate(0,0)"/>
<path d="" fill="#67DBAF" transform="translate(0,0)"/>
<path d="" fill="#3E895B" transform="translate(0,0)"/>
<path d="" fill="#4BA67E" transform="translate(0,0)"/>
<path d="" fill="#40E8DB" transform="translate(0,0)"/>
<path d="" fill="#0EB19A" transform="translate(0,0)"/>
<path d="" fill="#00A18A" transform="translate(0,0)"/>
<path d="" fill="#23F1DD" transform="translate(0,0)"/>
<path d="" fill="#229968" transform="translate(0,0)"/>
<path d="" fill="#5FCB9B" transform="translate(0,0)"/>
<path d="" fill="#68DFA4" transform="translate(0,0)"/>
<path d="" fill="#38BC7B" transform="translate(0,0)"/>
<path d="" fill="#3FD4A2" transform="translate(0,0)"/>
<path d="" fill="#76E7A8" transform="translate(0,0)"/>
<path d="" fill="#25A47B" transform="translate(0,0)"/>
<path d="" fill="#77F8D1" transform="translate(0,0)"/>
<path d="" fill="#31C4A0" transform="translate(0,0)"/>
<path d="" fill="#0E937F" transform="translate(0,0)"/>
<path d="" fill="#67FFAA" transform="translate(0,0)"/>
<path d="" fill="#55F996" transform="translate(0,0)"/>
<path d="" fill="#43E97B" transform="translate(0,0)"/>
<path d="" fill="#1B9842" transform="translate(0,0)"/>
<path d="" fill="#3CB467" transform="translate(0,0)"/>
<path d="" fill="#009768" transform="translate(0,0)"/>
<path d="" fill="#71EAB1" transform="translate(0,0)"/>
<path d="" fill="#14A36C" transform="translate(0,0)"/>
<path d="" fill="#50FFBB" transform="translate(0,0)"/>
<path d="" fill="#13E792" transform="translate(0,0)"/>
<path d="" fill="#40BC97" transform="translate(0,0)"/>
<path d="" fill="#50DEC9" transform="translate(0,0)"/>
<path d="" fill="#0FA990" transform="translate(0,0)"/>
<path d="" fill="#3CC28C" transform="translate(0,0)"/>
<path d="" fill="#7DF6AB" transform="translate(0,0)"/>
<path d="" fill="#72F3AF" transform="translate(0,0)"/>
<path d="" fill="#76F4AC" transform="translate(0,0)"/>
<path d="" fill="#4FBC67" transform="translate(0,0)"/>
<path d="" fill="#6FEFA2" transform="translate(0,0)"/>
<path d="" fill="#6EFFAC" transform="translate(0,0)"/>
<path d="" fill="#4DB074" transform="translate(0,0)"/>
<path d="" fill="#2DE09F" transform="translate(0,0)"/>
<path d="" fill="#1FF2AF" transform="translate(0,0)"/>
<path d="" fill="#2ABF9C" transform="translate(0,0)"/>
<path d="" fill="#088E73" transform="translate(0,0)"/>
<path d="" fill="#71EC97" transform="translate(0,0)"/>
<path d="" fill="#6BF093" transform="translate(0,0)"/>
<path d="" fill="#36E875" transform="translate(0,0)"/>
<path d="" fill="#43C589" transform="translate(0,0)"/>
<path d="" fill="#22A061" transform="translate(0,0)"/>
<path d="" fill="#4BD8CB" transform="translate(0,0)"/>
<path d="" fill="#4DB67E" transform="translate(0,0)"/>
<path d="" fill="#90F1BE" transform="translate(0,0)"/>
<path d="" fill="#4CC099" transform="translate(0,0)"/>
<path d="" fill="#44B98A" transform="translate(0,0)"/>
<path d="" fill="#31C064" transform="translate(0,0)"/>
<path d="" fill="#75E783" transform="translate(0,0)"/>
<path d="" fill="#7EFB8D" transform="translate(0,0)"/>
<path d="" fill="#48BEA3" transform="translate(0,0)"/>
<path d="" fill="#36DAAE" transform="translate(0,0)"/>
<path d="" fill="#20A777" transform="translate(0,0)"/>
<path d="" fill="#40B788" transform="translate(0,0)"/>
<path d="" fill="#0C8056" transform="translate(0,0)"/>
<path d="" fill="#15A868" transform="translate(0,0)"/>
<path d="" fill="#58F5A4" transform="translate(0,0)"/>
<path d="" fill="#20C17D" transform="translate(0,0)"/>
<path d="" fill="#52BC5F" transform="translate(0,0)"/>
<path d="" fill="#53AE84" transform="translate(0,0)"/>
<path d="" fill="#52AC89" transform="translate(0,0)"/>
<path d="" fill="#52ED6B" transform="translate(0,0)"/>
<path d="" fill="#42C78A" transform="translate(0,0)"/>
<path d="" fill="#54B6AC" transform="translate(0,0)"/>
<path d="" fill="#39BC89" transform="translate(0,0)"/>
<path d="" fill="#42B794" transform="translate(0,0)"/>
<path d="" fill="#019666" transform="translate(0,0)"/>
<path d="" fill="#7EECBC" transform="translate(0,0)"/>
<path d="" fill="#55AD98" transform="translate(0,0)"/>
<path d="" fill="#1BCD85" transform="translate(0,0)"/>
<path d="" fill="#0ED57D" transform="translate(0,0)"/>
<path d="" fill="#179858" transform="translate(0,0)"/>
<path d="" fill="#70EFAD" transform="translate(0,0)"/>
<path d="" fill="#44B284" transform="translate(0,0)"/>
<path d="" fill="#72EB92" transform="translate(0,0)"/>
<path d="" fill="#40C990" transform="translate(0,0)"/>
<path d="" fill="#3AB570" transform="translate(0,0)"/>
<path d="" fill="#6BFF93" transform="translate(0,0)"/>
<path d="" fill="#19E79B" transform="translate(0,0)"/>
<path d="" fill="#2CBE78" transform="translate(0,0)"/>
<path d="" fill="#74F8A3" transform="translate(0,0)"/>
<path d="" fill="#4CCA8D" transform="translate(0,0)"/>
<path d="" fill="#2AA972" transform="translate(0,0)"/>
<path d="" fill="#60E1A1" transform="translate(0,0)"/>
<path d="" fill="#46B999" transform="translate(0,0)"/>
<path d="" fill="#2AE46A" transform="translate(0,0)"/>
<path d="" fill="#7DF8C1" transform="translate(0,0)"/>
<path d="" fill="#7FFFD5" transform="translate(0,0)"/>
<path d="" fill="#66FBCF" transform="translate(0,0)"/>
<path d="" fill="#39C17E" transform="translate(0,0)"/>
<path d="" fill="#25EDD5" transform="translate(0,0)"/>
<path d="" fill="#41BD8F" transform="translate(0,0)"/>
<path d="" fill="#038661" transform="translate(0,0)"/>
<path d="" fill="#86EBCD" transform="translate(0,0)"/>
<path d="" fill="#50B593" transform="translate(0,0)"/>
<path d="" fill="#4AB490" transform="translate(0,0)"/>
<path d="" fill="#6CDDB5" transform="translate(0,0)"/>
<path d="" fill="#35E1A2" transform="translate(0,0)"/>
<path d="" fill="#29CC8C" transform="translate(0,0)"/>
<path d="" fill="#25EF86" transform="translate(0,0)"/>
<path d="" fill="#5DF6B0" transform="translate(0,0)"/>
<path d="" fill="#18A271" transform="translate(0,0)"/>
<path d="" fill="#008764" transform="translate(0,0)"/>
<path d="" fill="#7AF5AE" transform="translate(0,0)"/>
<path d="" fill="#52F8B7" transform="translate(0,0)"/>
<path d="" fill="#48E7A2" transform="translate(0,0)"/>
<path d="" fill="#51CA8F" transform="translate(0,0)"/>
<path d="" fill="#34B57E" transform="translate(0,0)"/>
<path d="" fill="#46B38E" transform="translate(0,0)"/>
<path d="" fill="#65AFAD" transform="translate(0,0)"/>
<path d="" fill="#459D88" transform="translate(0,0)"/>
<path d="" fill="#53AE7B" transform="translate(0,0)"/>
<path d="" fill="#48AD72" transform="translate(0,0)"/>
<path d="" fill="#3CE28A" transform="translate(0,0)"/>
<path d="" fill="#48C07F" transform="translate(0,0)"/>
<path d="" fill="#2FB183" transform="translate(0,0)"/>
<path d="" fill="#34BF89" transform="translate(0,0)"/>
<path d="" fill="#5AE2AD" transform="translate(0,0)"/>
<path d="" fill="#35C481" transform="translate(0,0)"/>
<path d="" fill="#4EFEA3" transform="translate(0,0)"/>
<path d="" fill="#33DD9F" transform="translate(0,0)"/>
<path d="" fill="#3EDB9F" transform="translate(0,0)"/>
<path d="" fill="#6AF1C4" transform="translate(0,0)"/>
<path d="" fill="#03895E" transform="translate(0,0)"/>
<path d="" fill="#5AF1C3" transform="translate(0,0)"/>
<path d="" fill="#11AC85" transform="translate(0,0)"/>
<path d="" fill="#43D18A" transform="translate(0,0)"/>
<path d="" fill="#47CC8F" transform="translate(0,0)"/>
<path d="" fill="#289D6C" transform="translate(0,0)"/>
<path d="" fill="#17E8CF" transform="translate(0,0)"/>
<path d="" fill="#32C38E" transform="translate(0,0)"/>
<path d="" fill="#41AB69" transform="translate(0,0)"/>
<path d="" fill="#028A45" transform="translate(0,0)"/>
<path d="" fill="#59AA8A" transform="translate(0,0)"/>
<path d="" fill="#48AF9E" transform="translate(0,0)"/>
<path d="" fill="#107965" transform="translate(0,0)"/>
<path d="" fill="#68E2BB" transform="translate(0,0)"/>
<path d="" fill="#3CB48C" transform="translate(0,0)"/>
<path d="" fill="#67F7AF" transform="translate(0,0)"/>
<path d="" fill="#47CC9A" transform="translate(0,0)"/>
<path d="" fill="#1CE992" transform="translate(0,0)"/>
<path d="" fill="#36CD81" transform="translate(0,0)"/>
<path d="" fill="#49B46B" transform="translate(0,0)"/>
<path d="" fill="#48B172" transform="translate(0,0)"/>
<path d="" fill="#7EE8A9" transform="translate(0,0)"/>
<path d="" fill="#74FE90" transform="translate(0,0)"/>
<path d="" fill="#36BF81" transform="translate(0,0)"/>
<path d="" fill="#33AE69" transform="translate(0,0)"/>
<path d="" fill="#42BEA8" transform="translate(0,0)"/>
<path d="" fill="#74EBA3" transform="translate(0,0)"/>
<path d="" fill="#36E49A" transform="translate(0,0)"/>
<path d="" fill="#57FFC4" transform="translate(0,0)"/>
<path d="" fill="#7DFAC2" transform="translate(0,0)"/>
<path d="" fill="#2DC186" transform="translate(0,0)"/>
<path d="" fill="#59B383" transform="translate(0,0)"/>
<path d="" fill="#1FEBC6" transform="translate(0,0)"/>
<path d="" fill="#5BF2AA" transform="translate(0,0)"/>
<path d="" fill="#3BBB82" transform="translate(0,0)"/>
<path d="" fill="#3EC684" transform="translate(0,0)"/>
<path d="" fill="#58D89D" transform="translate(0,0)"/>
<path d="" fill="#7AEDBB" transform="translate(0,0)"/>
<path d="" fill="#37CF9E" transform="translate(0,0)"/>
<path d="" fill="#52A781" transform="translate(0,0)"/>
<path d="" fill="#5CB28C" transform="translate(0,0)"/>
<path d="" fill="#3FAFAB" transform="translate(0,0)"/>
<path d="" fill="#4CAC6E" transform="translate(0,0)"/>
<path d="" fill="#32BE7D" transform="translate(0,0)"/>
<path d="" fill="#25F3A2" transform="translate(0,0)"/>
<path d="" fill="#75FB80" transform="translate(0,0)"/>
<path d="" fill="#2B9E6C" transform="translate(0,0)"/>
<path d="" fill="#6EEEB3" transform="translate(0,0)"/>
<path d="" fill="#00A069" transform="translate(0,0)"/>
<path d="" fill="#6DF2B8" transform="translate(0,0)"/>
<path d="" fill="#59C18E" transform="translate(0,0)"/>
<path d="" fill="#5CBF90" transform="translate(0,0)"/>
<path d="" fill="#5CA897" transform="translate(0,0)"/>
<path d="" fill="#3AB492" transform="translate(0,0)"/>
<path d="" fill="#3DB89E" transform="translate(0,0)"/>
<path d="" fill="#1AA48E" transform="translate(0,0)"/>
<path d="" fill="#4DA082" transform="translate(0,0)"/>
<path d="" fill="#4FB394" transform="translate(0,0)"/>
<path d="" fill="#6CEEC4" transform="translate(0,0)"/>
<path d="" fill="#44AA90" transform="translate(0,0)"/>
<path d="" fill="#71E6C3" transform="translate(0,0)"/>
<path d="" fill="#4CDC97" transform="translate(0,0)"/>
<path d="" fill="#62F1AF" transform="translate(0,0)"/>
<path d="" fill="#32A39A" transform="translate(0,0)"/>
<path d="" fill="#43DCAF" transform="translate(0,0)"/>
<path d="" fill="#60F5B5" transform="translate(0,0)"/>
<path d="" fill="#31BA7E" transform="translate(0,0)"/>
<path d="" fill="#40CB93" transform="translate(0,0)"/>
<path d="" fill="#45C895" transform="translate(0,0)"/>
<path d="" fill="#27BE67" transform="translate(0,0)"/>
<path d="" fill="#5CF5B6" transform="translate(0,0)"/>
<path d="" fill="#53AB76" transform="translate(0,0)"/>
<path d="" fill="#82DDA3" transform="translate(0,0)"/>
<path d="" fill="#70DB97" transform="translate(0,0)"/>
<path d="" fill="#2CB176" transform="translate(0,0)"/>
<path d="" fill="#41C87F" transform="translate(0,0)"/>
<path d="" fill="#21A262" transform="translate(0,0)"/>
<path d="" fill="#43CD8A" transform="translate(0,0)"/>
<path d="" fill="#63F6A9" transform="translate(0,0)"/>
<path d="" fill="#45CB85" transform="translate(0,0)"/>
<path d="" fill="#5AB594" transform="translate(0,0)"/>
<path d="" fill="#5AF278" transform="translate(0,0)"/>
<path d="" fill="#008A77" transform="translate(0,0)"/>
<path d="" fill="#7EECBC" transform="translate(0,0)"/>
<path d="" fill="#41AC76" transform="translate(0,0)"/>
<path d="" fill="#1D8665" transform="translate(0,0)"/>
<path d="" fill="#4ABC93" transform="translate(0,0)"/>
<path d="" fill="#5AF3BB" transform="translate(0,0)"/>
<path d="" fill="#6DF782" transform="translate(0,0)"/>
<path d="" fill="#6BEC9C" transform="translate(0,0)"/>
<path d="" fill="#59F67B" transform="translate(0,0)"/>
<path d="" fill="#71FAA1" transform="translate(0,0)"/>
<path d="" fill="#73FE7F" transform="translate(0,0)"/>
<path d="" fill="#68E8AD" transform="translate(0,0)"/>
<path d="" fill="#219663" transform="translate(0,0)"/>
<path d="" fill="#3CA99B" transform="translate(0,0)"/>
<path d="" fill="#3DB07E" transform="translate(0,0)"/>
<path d="" fill="#229C6A" transform="translate(0,0)"/>
<path d="" fill="#45BF8D" transform="translate(0,0)"/>
<path d="" fill="#6BF5B9" transform="translate(0,0)"/>
<path d="" fill="#5FE8AA" transform="translate(0,0)"/>
<path d="" fill="#28A871" transform="translate(0,0)"/>
<path d="" fill="#1FEA86" transform="translate(0,0)"/>
<path d="" fill="#85E7BD" transform="translate(0,0)"/>
<path d="" fill="#38C988" transform="translate(0,0)"/>
<path d="" fill="#309B8B" transform="translate(0,0)"/>
<path d="" fill="#52BAA5" transform="translate(0,0)"/>
<path d="" fill="#42B09F" transform="translate(0,0)"/>
<path d="" fill="#54BD90" transform="translate(0,0)"/>
<path d="" fill="#2EDD99" transform="translate(0,0)"/>
<path d="" fill="#54BA95" transform="translate(0,0)"/>
<path d="" fill="#17EA9C" transform="translate(0,0)"/>
<path d="" fill="#5CF5AD" transform="translate(0,0)"/>
<path d="" fill="#4DAA9D" transform="translate(0,0)"/>
<path d="" fill="#57B090" transform="translate(0,0)"/>
<path d="" fill="#4FAD89" transform="translate(0,0)"/>
<path d="" fill="#42B469" transform="translate(0,0)"/>
<path d="" fill="#41C68B" transform="translate(0,0)"/>
<path d="" fill="#22E69F" transform="translate(0,0)"/>
<path d="" fill="#28AD7E" transform="translate(0,0)"/>
<path d="" fill="#61EDC9" transform="translate(0,0)"/>
<path d="" fill="#0B8E76" transform="translate(0,0)"/>
<path d="" fill="#4CB78F" transform="translate(0,0)"/>
<path d="" fill="#69E3B1" transform="translate(0,0)"/>
<path d="" fill="#3ED599" transform="translate(0,0)"/>
<path d="" fill="#63F8BD" transform="translate(0,0)"/>
<path d="" fill="#4CBC8B" transform="translate(0,0)"/>
<path d="" fill="#008A6E" transform="translate(0,0)"/>
<path d="" fill="#39AD91" transform="translate(0,0)"/>
<path d="" fill="#33C27B" transform="translate(0,0)"/>
<path d="" fill="#3EDB96" transform="translate(0,0)"/>
<path d="" fill="#5EF5B9" transform="translate(0,0)"/>
<path d="" fill="#33B19E" transform="translate(0,0)"/>
<path d="" fill="#4FB1A2" transform="translate(0,0)"/>
<path d="" fill="#45B992" transform="translate(0,0)"/>
<path d="" fill="#46B16B" transform="translate(0,0)"/>
<path d="" fill="#78DE9E" transform="translate(0,0)"/>
<path d="" fill="#349870" transform="translate(0,0)"/>
<path d="" fill="#45D396" transform="translate(0,0)"/>
<path d="" fill="#3CCD88" transform="translate(0,0)"/>
<path d="" fill="#40CA8C" transform="translate(0,0)"/>
<path d="" fill="#42C68E" transform="translate(0,0)"/>
<path d="" fill="#00865A" transform="translate(0,0)"/>
<path d="" fill="#39C893" transform="translate(0,0)"/>
<path d="" fill="#65FFB9" transform="translate(0,0)"/>
<path d="" fill="#0E8B7C" transform="translate(0,0)"/>
<path d="" fill="#50B39F" transform="translate(0,0)"/>
<path d="" fill="#56B4A6" transform="translate(0,0)"/>
<path d="" fill="#5DEAA6" transform="translate(0,0)"/>
<path d="" fill="#30BC7A" transform="translate(0,0)"/>
<path d="" fill="#31A06B" transform="translate(0,0)"/>
<path d="" fill="#4CB987" transform="translate(0,0)"/>
<path d="" fill="#6FEDA5" transform="translate(0,0)"/>
<path d="" fill="#3AAB5A" transform="translate(0,0)"/>
<path d="" fill="#0D7866" transform="translate(0,0)"/>
<path d="" fill="#3AB18D" transform="translate(0,0)"/>
<path d="" fill="#1EB46B" transform="translate(0,0)"/>
<path d="" fill="#159B55" transform="translate(0,0)"/>
<path d="" fill="#54B08A" transform="translate(0,0)"/>
<path d="" fill="#70E3A1" transform="translate(0,0)"/>
<path d="" fill="#4AB25F" transform="translate(0,0)"/>
<path d="" fill="#4BC287" transform="translate(0,0)"/>
<path d="" fill="#5CFCB3" transform="translate(0,0)"/>
<path d="" fill="#6FF9BA" transform="translate(0,0)"/>
<path d="" fill="#61E8AD" transform="translate(0,0)"/>
<path d="" fill="#71F0B8" transform="translate(0,0)"/>
<path d="" fill="#74FBA0" transform="translate(0,0)"/>
<path d="" fill="#3DC489" transform="translate(0,0)"/>
<path d="" fill="#17B18F" transform="translate(0,0)"/>
<path d="" fill="#199564" transform="translate(0,0)"/>
<path d="" fill="#7AF1C2" transform="translate(0,0)"/>
<path d="" fill="#11AC67" transform="translate(0,0)"/>
<path d="" fill="#67F4B2" transform="translate(0,0)"/>
<path d="" fill="#23746B" transform="translate(0,0)"/>
<path d="" fill="#57A99F" transform="translate(0,0)"/>
<path d="" fill="#53AF8B" transform="translate(0,0)"/>
<path d="" fill="#4AB398" transform="translate(0,0)"/>
<path d="" fill="#96F4D4" transform="translate(0,0)"/>
<path d="" fill="#4BAA83" transform="translate(0,0)"/>
<path d="" fill="#44C48D" transform="translate(0,0)"/>
<path d="" fill="#2CC387" transform="translate(0,0)"/>
<path d="" fill="#60FBA4" transform="translate(0,0)"/>
<path d="" fill="#69ECB0" transform="translate(0,0)"/>
<path d="" fill="#91F3C8" transform="translate(0,0)"/>
<path d="" fill="#51B687" transform="translate(0,0)"/>
<path d="" fill="#6BDFC1" transform="translate(0,0)"/>
<path d="" fill="#3CC899" transform="translate(0,0)"/>
<path d="" fill="#56EEAB" transform="translate(0,0)"/>
<path d="" fill="#12A065" transform="translate(0,0)"/>
<path d="" fill="#6AECBE" transform="translate(0,0)"/>
<path d="" fill="#12E6C7" transform="translate(0,0)"/>
<path d="" fill="#35C19B" transform="translate(0,0)"/>
<path d="" fill="#55B599" transform="translate(0,0)"/>
<path d="" fill="#44A37E" transform="translate(0,0)"/>
<path d="" fill="#7EE7BA" transform="translate(0,0)"/>
<path d="" fill="#179E55" transform="translate(0,0)"/>
<path d="" fill="#3AAC75" transform="translate(0,0)"/>
<path d="" fill="#42C884" transform="translate(0,0)"/>
<path d="" fill="#56B485" transform="translate(0,0)"/>
<path d="" fill="#54B48B" transform="translate(0,0)"/>
<path d="" fill="#089076" transform="translate(0,0)"/>
<path d="" fill="#67EEB1" transform="translate(0,0)"/>
<path d="" fill="#4DED79" transform="translate(0,0)"/>
<path d="" fill="#0E917E" transform="translate(0,0)"/>
<path d="" fill="#73ECBC" transform="translate(0,0)"/>
<path d="" fill="#4AC088" transform="translate(0,0)"/>
<path d="" fill="#1FEE73" transform="translate(0,0)"/>
<path d="" fill="#0C974F" transform="translate(0,0)"/>
<path d="" fill="#4AB158" transform="translate(0,0)"/>
<path d="" fill="#59B98B" transform="translate(0,0)"/>
<path d="" fill="#46BCA4" transform="translate(0,0)"/>
<path d="" fill="#3BC793" transform="translate(0,0)"/>
<path d="" fill="#16DE7F" transform="translate(0,0)"/>
<path d="" fill="#15B163" transform="translate(0,0)"/>
<path d="" fill="#3AC087" transform="translate(0,0)"/>
<path d="" fill="#24FDCD" transform="translate(0,0)"/>
<path d="" fill="#24CA84" transform="translate(0,0)"/>
<path d="" fill="#3FAD7F" transform="translate(0,0)"/>
<path d="" fill="#40B17D" transform="translate(0,0)"/>
<path d="" fill="#42E7C6" transform="translate(0,0)"/>
<path d="" fill="#41C697" transform="translate(0,0)"/>
<path d="" fill="#47C690" transform="translate(0,0)"/>
<path d="" fill="#1C7E56" transform="translate(0,0)"/>
<path d="" fill="#40A17E" transform="translate(0,0)"/>
<path d="" fill="#41B28A" transform="translate(0,0)"/>
<path d="" fill="#5BF974" transform="translate(0,0)"/>
<path d="" fill="#3ABA7D" transform="translate(0,0)"/>
<path d="" fill="#25A47B" transform="translate(0,0)"/>
<path d="" fill="#58DCBF" transform="translate(0,0)"/>
<path d="" fill="#008A64" transform="translate(0,0)"/>
<path d="" fill="#41B08D" transform="translate(0,0)"/>
<path d="" fill="#7DEFC4" transform="translate(0,0)"/>
<path d="" fill="#4BCA98" transform="translate(0,0)"/>
<path d="" fill="#46C893" transform="translate(0,0)"/>
<path d="" fill="#03A074" transform="translate(0,0)"/>
<path d="" fill="#3FBD89" transform="translate(0,0)"/>
<path d="" fill="#47AC6F" transform="translate(0,0)"/>
<path d="" fill="#46B566" transform="translate(0,0)"/>
<path d="" fill="#37BE9A" transform="translate(0,0)"/>
<path d="" fill="#39B884" transform="translate(0,0)"/>
<path d="" fill="#6DE6B7" transform="translate(0,0)"/>
<path d="" fill="#49A878" transform="translate(0,0)"/>
<path d="" fill="#49AA77" transform="translate(0,0)"/>
<path d="" fill="#6BEBA4" transform="translate(0,0)"/>
<path d="" fill="#3AC886" transform="translate(0,0)"/>
<path d="" fill="#55BF8E" transform="translate(0,0)"/>
<path d="" fill="#7ADEAA" transform="translate(0,0)"/>
<path d="" fill="#027E66" transform="translate(0,0)"/>
<path d="" fill="#3CBD88" transform="translate(0,0)"/>
<path d="" fill="#5CF4A8" transform="translate(0,0)"/>
<path d="" fill="#2CE29E" transform="translate(0,0)"/>
<path d="" fill="#50C295" transform="translate(0,0)"/>
<path d="" fill="#60E8B1" transform="translate(0,0)"/>
<path d="" fill="#55C168" transform="translate(0,0)"/>
<path d="" fill="#50BD86" transform="translate(0,0)"/>
<path d="" fill="#4BB98B" transform="translate(0,0)"/>
<path d="" fill="#47A867" transform="translate(0,0)"/>
<path d="" fill="#51C68A" transform="translate(0,0)"/>
<path d="" fill="#0BA566" transform="translate(0,0)"/>
<path d="" fill="#4ED7A0" transform="translate(0,0)"/>
<path d="" fill="#52C090" transform="translate(0,0)"/>
<path d="" fill="#7AEDBB" transform="translate(0,0)"/>
<path d="" fill="#6AF19D" transform="translate(0,0)"/>
<path d="" fill="#17F29A" transform="translate(0,0)"/>
<path d="" fill="#54A96A" transform="translate(0,0)"/>
<path d="" fill="#25C481" transform="translate(0,0)"/>
<path d="" fill="#1BDF89" transform="translate(0,0)"/>
<path d="" fill="#72FFBE" transform="translate(0,0)"/>
<path d="" fill="#75FFB8" transform="translate(0,0)"/>
<path d="" fill="#3CCB88" transform="translate(0,0)"/>
<path d="" fill="#49B46D" transform="translate(0,0)"/>
<path d="" fill="#2DA677" transform="translate(0,0)"/>
<path d="" fill="#47B471" transform="translate(0,0)"/>
<path d="" fill="#53BCA0" transform="translate(0,0)"/>
<path d="" fill="#29997F" transform="translate(0,0)"/>
<path d="" fill="#5BD99E" transform="translate(0,0)"/>
<path d="" fill="#50B9A5" transform="translate(0,0)"/>
<path d="" fill="#4BBE90" transform="translate(0,0)"/>
<path d="" fill="#79F1BF" transform="translate(0,0)"/>
<path d="" fill="#4DC9A4" transform="translate(0,0)"/>
<path d="" fill="#4EDEAD" transform="translate(0,0)"/>
</svg>
